<svg width="29" height="29" fill="none" xmlns="http://www.w3.org/2000/svg"><path d="M10.493 29c-4.316-.025-7.886-8.835-7.886-13.322 0-7.33 5.498-8.935 7.617-8.935.955 0 1.975.375 2.874.707.63.232 1.28.47 1.642.47.216 0 .726-.203 1.177-.38.96-.383 2.156-.859 3.548-.859h.009c1.04 0 4.191.228 6.086 3.074l.444.667-.639.482c-.912.689-2.577 1.945-2.577 4.433 0 2.948 1.886 4.08 2.791 4.626.4.24.814.489.814 1.031 0 .355-2.827 7.962-6.933 7.962-1.005 0-1.715-.302-2.342-.568-.634-.27-1.18-.502-2.084-.502-.458 0-1.037.216-1.65.446-.838.313-1.787.668-2.863.668h-.028zM19.9 0c.107 3.856-2.65 6.53-5.405 6.363C14.041 3.286 17.25 0 19.9 0z" fill="#9A1C8E"/></svg>