<svg width="29" height="29" fill="none" xmlns="http://www.w3.org/2000/svg"><path d="M26.115 23.285c-.85-.349-1.214-.81-1.179-1.5.037-.805-.42-1.395-.637-1.628.13-.5.514-2.232 0-3.736-.552-1.61-2.236-4.068-3.975-6.485-.712-.992-.745-2.071-.784-3.32-.037-1.192-.08-2.542-.744-4.044C18.074.937 16.624 0 14.82 0c-1.074 0-2.177.336-3.025.92-1.737 1.2-1.508 3.814-1.356 5.543.021.237.04.46.052.652.101 1.694.01 2.587-.111 2.858-.078.177-.461.682-.867 1.216-.42.553-.895 1.18-1.285 1.763-.465.703-.841 1.776-1.204 2.814-.266.76-.517 1.478-.761 1.906a2.595 2.595 0 00-.252 1.95c-.175.122-.429.362-.643.814-.258.551-.782.848-1.873 1.057-.5.103-.846.313-1.027.626-.263.456-.12 1.028.01 1.42.194.575.074.939-.145 1.6-.05.152-.108.325-.165.515-.092.3-.059.574.097.812.412.63 1.614.852 2.85.998.74.088 1.548.383 2.33.669.766.28 1.558.57 2.278.657.11.014.218.02.322.02a1.896 1.896 0 001.734-1.017c.39-.08 1.737-.335 3.126-.37 1.386-.039 2.727.235 3.106.32.12.229.435.75.936 1.02.276.15.66.237 1.053.237.42 0 1.219-.1 1.851-.764.63-.669 2.206-1.522 3.357-2.145.257-.139.497-.269.707-.386.647-.358 1-.87.968-1.405-.026-.443-.32-.833-.767-1.015zm-14.307-.13c-.08-.566-.81-1.128-1.653-1.779-.69-.532-1.473-1.135-1.689-1.646-.445-1.053-.094-2.906.518-3.86.303-.478.55-1.202.789-1.903.258-.756.525-1.539.823-1.88.473-.535.91-1.575.987-2.395.443.422 1.13.958 1.764.958.097 0 .192-.012.283-.038.434-.125 1.072-.494 1.69-.85.531-.308 1.188-.687 1.435-.722.423.608 2.883 6.053 3.135 7.801a8.27 8.27 0 01-.117 2.975 2.188 2.188 0 00-.293-.02c-.685 0-.867.373-.914.597-.121.58-.134 2.435-.136 2.852-.247.315-1.5 1.798-3.3 2.064-.732.107-1.417.16-2.033.16-.528 0-.864-.04-1.004-.061l-.904-1.035c.357-.175.713-.547.62-1.217zM12.955 6.1a1.43 1.43 0 00-.083.04 1.693 1.693 0 00-.019-.186c-.099-.568-.475-.98-.895-.98a.632.632 0 00-.097.007c-.25.042-.446.23-.554.496.095-.584.426-1.017.818-1.017.461 0 .851.621.851 1.357 0 .093-.007.185-.02.283zm3.584.438c.042-.134.065-.28.065-.43 0-.667-.423-1.19-.964-1.19-.527 0-.957.534-.957 1.19 0 .044.002.09.006.134l-.082-.032a1.82 1.82 0 01-.091-.571c0-.798.51-1.447 1.136-1.447.627 0 1.136.65 1.136 1.447a1.7 1.7 0 01-.25.9zm-.462 1.553c-.01.04-.029.058-.241.168a7.41 7.41 0 00-.408.227l-.112.068c-.448.272-1.498.909-1.784.946-.193.026-.313-.049-.582-.232a8.578 8.578 0 00-.195-.13c-.485-.318-.798-.669-.833-.806.158-.123.55-.429.752-.61.407-.38.818-.634 1.02-.634.012 0 .021 0 .031.003.24.042.828.277 1.258.448.198.08.37.148.49.191.381.13.58.298.604.36zm3.418 17.72c.214-.968.461-2.285.421-3.061a16.421 16.421 0 00-.04-.554c-.028-.347-.07-.863-.027-1.016a.194.194 0 01.03-.01c0 .444.097 1.329.805 1.638.211.092.453.138.717.138.71 0 1.496-.348 1.818-.67.19-.19.35-.422.462-.606.024.072.04.165.031.286-.042.655.276 1.523.882 1.843l.088.046c.216.113.788.414.798.557 0 0-.005.017-.037.046-.144.131-.649.39-1.137.639-.866.442-1.848.943-2.29 1.407-.62.654-1.322 1.093-1.746 1.093a.46.46 0 01-.14-.02c-.46-.144-.84-.808-.635-1.756zm-15.7-2.47c-.047-.22-.084-.393-.044-.56.03-.125.644-.259.907-.316.369-.08.75-.163 1-.314.338-.205.52-.582.682-.915.117-.24.237-.49.38-.571a.081.081 0 01.045-.01c.269 0 .833.565 1.158 1.07.082.128.235.384.412.68.528.883 1.251 2.094 1.63 2.5.34.365.89 1.066.755 1.668-.099.467-.627.846-.752.93a.775.775 0 01-.167.016c-.723 0-2.155-.602-2.924-.925l-.114-.048c-.43-.18-1.13-.294-1.809-.403-.54-.088-1.278-.207-1.4-.315-.1-.112.016-.474.117-.793.073-.23.149-.467.19-.715.059-.397-.01-.72-.066-.978z" fill="#9A1C8E"/></svg>