<svg xmlns="http://www.w3.org/2000/svg" viewBox="0 0 279.76 146.67"><defs><style>.cls-4{fill:none;stroke:#4c4c96;stroke-miterlimit:10;stroke-width:.5px}</style></defs><g id="Слой_2" data-name="Слой 2"><g id="Слой_1-2" data-name="Слой 1"><text transform="translate(18.84 75.72)" fill="#4c4c96" font-size="36" font-family="Tahoma" letter-spacing=".01em">DESCOUNTER</text><path d="M102.91 21.82h134.5a17.15 17.15 0 0115 8.77c20 35.69 47.71 149.35-5 103.23-48.12-51.76-98.82-37.64-98.82-37.64" stroke-width="4" stroke="#4c4c96" stroke-miterlimit="10" fill="none"/><path d="M121.73 21.49v-2.4c0-.44.25-.8.56-.8h6.89c.31 0 .55.36.55.8v2.4" stroke-width="3" stroke="#4c4c96" stroke-miterlimit="10" fill="#4c4c96"/><rect class="cls-4" x="177.49" y="112.52" width="4.37" transform="rotate(-6.03 179.609 112.46)"/><rect class="cls-4" x="175.5" y="114.65" width="6.65" transform="rotate(45 178.824 114.641)"/><rect class="cls-4" x="175.85" y="113.43" width="6.65" transform="rotate(17.24 179.149 113.408)"/><path d="M125.73 19.27c4-20.51-21-17-42.11-17.67C16.32-.4 1.5 27.43 1.5 67.41s7.17 93.37 44.5 65.94c64-47.06 132.52-19.72 132.52-19.72" stroke-width="3" stroke="#4c4c96" stroke-miterlimit="10" fill="none"/></g></g></svg>