<svg width="337" height="76" fill="none" xmlns="http://www.w3.org/2000/svg"><g filter="url(#filter0_d)"><path d="M97.85 51.95h-22c.2 2.733 1.25 4.95 3.15 6.65 1.9 1.667 4.3 2.5 7.2 2.5 1.633 0 3.133-.283 4.5-.85 1.367-.6 2.55-1.467 3.55-2.6l2 2.3c-1.167 1.4-2.633 2.467-4.4 3.2-1.733.733-3.65 1.1-5.75 1.1-2.7 0-5.1-.567-7.2-1.7-2.067-1.167-3.683-2.767-4.85-4.8-1.167-2.033-1.75-4.333-1.75-6.9s.55-4.867 1.65-6.9c1.133-2.033 2.667-3.617 4.6-4.75 1.967-1.133 4.167-1.7 6.6-1.7s4.617.567 6.55 1.7c1.933 1.133 3.45 2.717 4.55 4.75 1.1 2 1.65 4.3 1.65 6.9l-.05 1.1zm-12.7-11.4c-2.533 0-4.667.817-6.4 2.45-1.7 1.6-2.667 3.7-2.9 6.3H94.5c-.233-2.6-1.217-4.7-2.95-6.3-1.7-1.633-3.833-2.45-6.4-2.45zm27.026 23.7c-2.134 0-4.184-.3-6.15-.9-1.934-.633-3.45-1.417-4.55-2.35l1.6-2.8c1.1.867 2.483 1.583 4.15 2.15 1.666.533 3.4.8 5.2.8 2.4 0 4.166-.367 5.3-1.1 1.166-.767 1.75-1.833 1.75-3.2 0-.967-.317-1.717-.95-2.25-.634-.567-1.434-.983-2.4-1.25-.967-.3-2.25-.583-3.85-.85-2.134-.4-3.85-.8-5.15-1.2a7.95 7.95 0 01-3.35-2.15c-.9-1-1.35-2.383-1.35-4.15 0-2.2.916-4 2.75-5.4 1.833-1.4 4.383-2.1 7.65-2.1 1.7 0 3.4.233 5.1.7 1.7.433 3.1 1.017 4.2 1.75l-1.55 2.85c-2.167-1.5-4.75-2.25-7.75-2.25-2.267 0-3.984.4-5.15 1.2-1.134.8-1.7 1.85-1.7 3.15 0 1 .316 1.8.95 2.4.666.6 1.483 1.05 2.45 1.35.966.267 2.3.55 4 .85 2.1.4 3.783.8 5.05 1.2a7.422 7.422 0 013.25 2.05c.9.967 1.35 2.3 1.35 4 0 2.3-.967 4.133-2.9 5.5-1.9 1.333-4.55 2-7.95 2zm28.313 0c-2.6 0-4.934-.567-7-1.7a12.392 12.392 0 01-4.8-4.75c-1.167-2.067-1.75-4.383-1.75-6.95s.583-4.867 1.75-6.9a12.392 12.392 0 014.8-4.75c2.066-1.133 4.4-1.7 7-1.7 2.266 0 4.283.45 6.05 1.35a9.897 9.897 0 014.25 3.85l-2.65 1.8c-.867-1.3-1.967-2.267-3.3-2.9-1.334-.667-2.784-1-4.35-1-1.9 0-3.617.433-5.15 1.3-1.5.833-2.684 2.033-3.55 3.6-.834 1.567-1.25 3.35-1.25 5.35 0 2.033.416 3.833 1.25 5.4a9.44 9.44 0 003.55 3.6c1.533.833 3.25 1.25 5.15 1.25 1.566 0 3.016-.317 4.35-.95 1.333-.633 2.433-1.6 3.3-2.9l2.65 1.8c-1.034 1.7-2.45 3-4.25 3.9-1.8.867-3.817 1.3-6.05 1.3zm27.584 0c-2.533 0-4.817-.567-6.85-1.7a12.767 12.767 0 01-4.8-4.8c-1.167-2.033-1.75-4.333-1.75-6.9s.583-4.867 1.75-6.9a12.406 12.406 0 014.8-4.75c2.033-1.133 4.317-1.7 6.85-1.7 2.533 0 4.817.567 6.85 1.7a12.056 12.056 0 014.75 4.75c1.167 2.033 1.75 4.333 1.75 6.9s-.583 4.867-1.75 6.9a12.402 12.402 0 01-4.75 4.8c-2.033 1.133-4.317 1.7-6.85 1.7zm0-3.15c1.867 0 3.533-.417 5-1.25 1.5-.867 2.667-2.083 3.5-3.65.833-1.567 1.25-3.35 1.25-5.35 0-2-.417-3.783-1.25-5.35-.833-1.567-2-2.767-3.5-3.6-1.467-.867-3.133-1.3-5-1.3s-3.55.433-5.05 1.3c-1.467.833-2.633 2.033-3.5 3.6-.833 1.567-1.25 3.35-1.25 5.35 0 2 .417 3.783 1.25 5.35.867 1.567 2.033 2.783 3.5 3.65 1.5.833 3.183 1.25 5.05 1.25zm44.298-23.4V64h-3.4v-4.8a9.92 9.92 0 01-3.85 3.75c-1.634.867-3.5 1.3-5.6 1.3-3.434 0-6.15-.95-8.15-2.85-1.967-1.933-2.95-4.75-2.95-8.45V37.7h3.55v14.9c0 2.767.683 4.867 2.05 6.3 1.366 1.433 3.316 2.15 5.85 2.15 2.766 0 4.95-.833 6.55-2.5 1.6-1.7 2.4-4.05 2.4-7.05V37.7h3.55zm23.342-.2c3.3 0 5.917.967 7.85 2.9 1.967 1.9 2.95 4.683 2.95 8.35V64h-3.55V49.1c0-2.733-.683-4.817-2.05-6.25-1.366-1.433-3.316-2.15-5.85-2.15-2.833 0-5.083.85-6.75 2.55-1.633 1.667-2.45 3.983-2.45 6.95V64h-3.55V37.7h3.4v4.85c.967-1.6 2.3-2.833 4-3.7 1.734-.9 3.734-1.35 6-1.35zm34.288 24.9c-.666.6-1.5 1.067-2.5 1.4-.966.3-1.983.45-3.05.45-2.466 0-4.366-.667-5.7-2-1.333-1.333-2-3.217-2-5.65V40.7h-4.7v-3h4.7v-5.75h3.55v5.75h8v3h-8v15.7c0 1.567.384 2.767 1.15 3.6.8.8 1.934 1.2 3.4 1.2.734 0 1.434-.117 2.1-.35.7-.233 1.3-.567 1.8-1l1.25 2.55zm28.435-10.45h-22c.2 2.733 1.25 4.95 3.15 6.65 1.9 1.667 4.3 2.5 7.2 2.5 1.633 0 3.133-.283 4.5-.85 1.367-.6 2.55-1.467 3.55-2.6l2 2.3c-1.167 1.4-2.633 2.467-4.4 3.2-1.733.733-3.65 1.1-5.75 1.1-2.7 0-5.1-.567-7.2-1.7-2.067-1.167-3.683-2.767-4.85-4.8-1.167-2.033-1.75-4.333-1.75-6.9s.55-4.867 1.65-6.9c1.133-2.033 2.667-3.617 4.6-4.75 1.967-1.133 4.167-1.7 6.6-1.7s4.617.567 6.55 1.7c1.933 1.133 3.45 2.717 4.55 4.75 1.1 2 1.65 4.3 1.65 6.9l-.05 1.1zm-12.7-11.4c-2.533 0-4.667.817-6.4 2.45-1.7 1.6-2.667 3.7-2.9 6.3h18.65c-.233-2.6-1.217-4.7-2.95-6.3-1.7-1.633-3.833-2.45-6.4-2.45zm23.376 2.3c.833-1.767 2.066-3.1 3.7-4 1.666-.9 3.716-1.35 6.15-1.35v3.45l-.85-.05c-2.767 0-4.934.85-6.5 2.55-1.567 1.7-2.35 4.083-2.35 7.15V64h-3.55V37.7h3.4v5.15z" fill="#F89827"/></g><g filter="url(#filter1_d)"><path d="M10.64 10h25.44c6.08 0 11.44 1.173 16.08 3.52 4.693 2.293 8.32 5.547 10.88 9.76 2.613 4.213 3.92 9.12 3.92 14.72 0 5.6-1.307 10.507-3.92 14.72-2.56 4.213-6.187 7.493-10.88 9.84-4.64 2.293-10 3.44-16.08 3.44H10.64V10zm24.8 45.36c5.6 0 10.053-1.547 13.36-4.64 3.36-3.147 5.04-7.387 5.04-12.72 0-5.333-1.68-9.547-5.04-12.64-3.307-3.147-7.76-4.72-13.36-4.72H23.6v34.72h11.84z" fill="#F89827"/></g><g clip-path="url(#clip0)" fill="#270035"><path d="M15.847 29.244a.524.524 0 00.072-.155.658.658 0 000-.365.524.524 0 00-.072-.155l-.158-.225a.176.176 0 01-.025-.052.22.22 0 010-.121.176.176 0 01.025-.052l.158-.225a.118.118 0 01.036-.034.083.083 0 01.043-.012c.014 0 .03.004.043.012a.12.12 0 01.036.034l.316.45c.021.029.05.045.079.044.03 0 .057-.017.078-.046.02-.03.032-.07.033-.111a.2.2 0 00-.032-.112l-.316-.45a.356.356 0 00-.109-.103.252.252 0 00-.128-.037.252.252 0 00-.129.037.354.354 0 00-.109.103l-.158.225a.524.524 0 00-.072.155.657.657 0 000 .365c.017.058.041.11.072.155l.159.225a.2.2 0 01.024.051.22.22 0 010 .122.177.177 0 01-.024.052l-.159.225a.118.118 0 01-.036.034.084.084 0 01-.043.012.084.084 0 01-.043-.012.12.12 0 01-.036-.034l-.316-.45a.12.12 0 00-.036-.036.085.085 0 00-.044-.013.083.083 0 00-.043.012.117.117 0 00-.037.035.177.177 0 00-.024.052.221.221 0 000 .123c.007.02.015.037.026.052l.316.45c.031.044.068.08.109.103a.25.25 0 00.128.037.252.252 0 00.129-.037.355.355 0 00.108-.103l.159-.225zm.681 1.815l.711-1.687a.214.214 0 00-.016-.194l-.159-.225a.104.104 0 00-.065-.046.086.086 0 00-.071.022l-1.186 1.012a.139.139 0 00-.033.042.222.222 0 00-.006.176.155.155 0 00.03.046.103.103 0 00.04.027.08.08 0 00.043.003.094.094 0 00.04-.021l.321-.274.351.5-.192.455a.207.207 0 00-.013.12c.004.02.01.04.019.056.009.017.02.031.032.042.013.01.027.018.041.021a.08.08 0 00.044-.003.102.102 0 00.04-.026.153.153 0 00.029-.046zm-.153-1.288l.593-.506.034.05-.355.842-.272-.386zm.96 2.265l-.395-.563.87-1.237a.172.172 0 00.025-.051.22.22 0 000-.123.174.174 0 00-.024-.052.12.12 0 00-.037-.035.084.084 0 00-.043-.012.085.085 0 00-.043.013.12.12 0 00-.037.036l-.948 1.349a.198.198 0 00-.033.112c0 .043.012.083.033.113l.474.675c.021.028.05.044.079.044.03 0 .057-.017.078-.046.02-.03.032-.07.033-.111a.199.199 0 00-.032-.112zm.745 1.058l-.316-.45.317-.45.158.225c.02.03.049.045.078.045.03 0 .058-.017.078-.047a.193.193 0 00.033-.11.199.199 0 00-.031-.113l-.158-.224.316-.45.316.45c.01.015.023.027.037.035a.085.085 0 00.043.013c.014 0 .03-.004.043-.012a.12.12 0 00.037-.034.174.174 0 00.024-.053.218.218 0 000-.123.174.174 0 00-.026-.051l-.395-.563a.099.099 0 00-.08-.046c-.029 0-.057.017-.078.046l-.95 1.35a.197.197 0 00-.032.112.2.2 0 00.033.113l.395.562a.12.12 0 00.037.036.085.085 0 00.043.013c.015 0 .03-.004.043-.012a.117.117 0 00.037-.035.173.173 0 00.024-.052.22.22 0 000-.123.173.173 0 00-.026-.052z"/><path d="M18.765 34.835l.808.177a.402.402 0 00.258-.03.57.57 0 00.221-.193.899.899 0 00.137-.313c.027-.118.035-.244.022-.367l-.258-2.45a1.722 1.722 0 00-.283-.8l-3.35-4.764c-.104-.15-.246-.233-.395-.233-.148 0-.29.084-.395.233l-1.582 2.249a.99.99 0 00-.164.562c0 .211.06.413.164.563l1.834 2.608c-.937.272-1.532.886-1.532 1.603 0 .981 1.13 1.75 2.572 1.75.755 0 1.459-.217 1.943-.595zm-4.658-5.591a.612.612 0 01-.095-.338c0-.126.034-.246.095-.337l1.581-2.25a.356.356 0 01.109-.103.253.253 0 01.128-.036c.044 0 .088.012.129.036.04.024.077.06.109.104l3.35 4.763c.117.17.195.387.22.623l.257 2.45a.69.69 0 01-.027.27.497.497 0 01-.087.163.321.321 0 01-.126.097.24.24 0 01-.143.012l-.564-.123a1.54 1.54 0 00.208-.31c.117 0 .229-.068.311-.185a.818.818 0 00.127-.45.818.818 0 00-.127-.45.471.471 0 00-.157-.148.33.33 0 00-.37.028.532.532 0 00-.145.173.777.777 0 00-.082.242.902.902 0 00-.005.269.79.79 0 00.074.247.557.557 0 00.14.182 1.444 1.444 0 01-.294.332l-.83-.182a.732.732 0 01-.435-.313l-3.351-4.766zm5.064 4.436a.83.83 0 01-.032.226.249.249 0 01-.05-.052.38.38 0 01-.065-.172.45.45 0 01.016-.193.31.31 0 01.092-.144.175.175 0 01.134-.043.2.2 0 01.126.075c.036.042.062.1.073.164a.451.451 0 01-.006.195.33.33 0 01-.084.153 1.31 1.31 0 00.02-.209.198.198 0 00-.033-.112c-.021-.03-.05-.047-.08-.047s-.058.017-.079.047a.198.198 0 00-.032.112zm-4.697 0c0-.574.615-1.116 1.5-1.33l1.326 1.884c.151.216.347.357.559.403l.506.111a3.238 3.238 0 01-1.543.364c-1.273 0-2.348-.656-2.348-1.432z"/></g><path d="M20.506 47.808l1.871-2.097c.04-.045.002-.122-.086-.173l-6.635-3.864a.313.313 0 00-.088-.033.245.245 0 00-.172-.026l-3.259 1.064c-.069.022-.071.092-.005.156l5.046 4.843c.067.064.177.097.246.075l1.78-.581 1.073.625c.087.05.19.056.23.011zm-3.197-.327l-4.806-4.613 3.008-.981 4.805 4.612-3.007.982zm.216-3.983l2.848 1.658c-.018.237.12.512.379.763l-.326.364-2.901-2.785zm1.947 3.586l1.21-.395c.07-.023.071-.093.005-.156l-.002-.002.412-.462a.05.05 0 00.006-.015c.048-.032.035-.097-.029-.152-.265-.225-.396-.487-.347-.697.011-.051-.043-.118-.126-.157a.26.26 0 00-.02-.015l-3.476-2.024a.298.298 0 00-.133-.042l-.746-.716 5.763 3.357-1.727 1.936-.79-.46z" fill="#270035"/><path d="M13.686 43.047c.157.242.15.474-.019.616-.037.032-.027.087.025.137a.246.246 0 00.021.016.158.158 0 00.013.017l2.806 2.706a.228.228 0 00.017.013c.044.061.14.106.215.1.305-.014.667.097.965.293.072.047.163.061.214.033a.16.16 0 00.021-.003l.974-.32a.075.075 0 00.015-.01c.068-.01.091-.062.053-.121-.157-.242-.15-.474.02-.617.041-.035.021-.1-.046-.152a.18.18 0 00-.013-.017l-2.806-2.707a.238.238 0 00-.021-.015.286.286 0 00-.212-.097c-.304.013-.667-.097-.964-.293-.072-.048-.164-.062-.214-.033a.155.155 0 00-.021.002l-.974.32a.078.078 0 00-.014.01c-.07.01-.093.062-.055.122zm1.227-.21c.333.194.713.31 1.052.32l2.711 2.615c-.15.171-.158.415-.021.674l-.875.288a2.305 2.305 0 00-1.052-.32l-2.711-2.615c.15-.172.157-.415.021-.674l.875-.288z" fill="#270035"/><path d="M15.586 45.033c.402.385 1.068.587 1.487.45.42-.136.433-.56.031-.945-.402-.386-1.067-.587-1.487-.45-.418.137-.432.56-.03.945zm1.265-.413c.268.257.259.54-.02.63-.28.092-.724-.043-.992-.3s-.258-.539.021-.63c.28-.091.723.043.991.3zm-1.85-.939c.1.096.267.147.372.113.105-.035.108-.14.008-.237-.1-.096-.267-.147-.372-.112-.105.034-.108.14-.008.236zm.253-.083c.034.032.033.068-.002.08-.035.01-.09-.006-.124-.038s-.033-.068.002-.08c.035-.01.09.006.124.038zm2.057 2.416c.1.096.267.146.372.112.105-.034.108-.14.008-.236-.1-.096-.267-.147-.372-.113-.105.035-.108.14-.008.237zm.253-.083c.034.032.032.068-.002.079-.035.011-.09-.005-.124-.038-.034-.032-.033-.067.002-.078.035-.012.09.005.124.037z" fill="#270035"/><g clip-path="url(#clip1)" fill="#270035"><path d="M17.501 64.333c.337-.313.674-.703.961-1.105.273-.388.503-.78.637-1.13.482-1.326-.157-1.779-.93-2.314-.242-.174-.505-.357-.736-.58l-.064-.076c-.186-.262-.326-.55-.461-.814-.416-.839-.758-1.544-2.157-1.273a5.12 5.12 0 00-1.221.448c-.444.22-.884.489-1.248.771-.401.315-.65.592-.777.843-.111.24-.121.457-.03.655.085.177.243.33.469.44.375.192.926.314 1.524.382.43.041.921.384 1.298.823.377.44.64.977.613 1.406-.027.598.007 1.16.138 1.559.081.232.201.418.363.53.175.113.392.151.662.066.262-.078.576-.28.959-.63zm-1.073.283c-.146.045-.259.036-.347-.02-.094-.064-.17-.183-.228-.343-.12-.356-.151-.867-.122-1.416.043-.534-.248-1.165-.683-1.673-.435-.508-1.015-.893-1.543-.956-.556-.065-1.066-.169-1.386-.342-.15-.083-.263-.17-.304-.279-.042-.095-.034-.207.034-.343.093-.184.303-.415.666-.697.34-.263.76-.527 1.188-.733.399-.195.794-.348 1.133-.413 1.111-.223 1.405.365 1.747 1.07a5.832 5.832 0 00.505.882l.071.083.013.015c.257.254.526.445.788.628.639.453 1.184.828.788 1.886-.119.322-.325.68-.588 1.049-.279.38-.593.752-.915 1.052-.337.312-.599.482-.817.55z"/><path d="M15.782 59.335a.603.603 0 00-.104-.383.566.566 0 00.163-.347v-.014a.563.563 0 00-.136-.421.592.592 0 00-.78-.097.598.598 0 00-.357-.17h-.014a.569.569 0 00-.422.136.588.588 0 00-.202.394c-.011.14.021.27.11.39a.53.53 0 00-.163.362c-.012.154.033.3.137.42.104.122.255.19.396.202a.61.61 0 00.385-.105c.098.1.228.16.363.163.155.013.3-.032.423-.136a.587.587 0 00.201-.394zm-.588.173a.204.204 0 01-.144-.075l-.09-.106a.19.19 0 00-.269-.021l-.099.084a.204.204 0 01-.153.051.204.204 0 01-.143-.075.202.202 0 01.023-.295l.107-.09a.189.189 0 00.021-.267l-.09-.106a.202.202 0 01-.052-.153.205.205 0 01.22-.188l.014.002a.24.24 0 01.13.074l.09.106a.19.19 0 00.269.02l.106-.09a.205.205 0 01.297.024.202.202 0 01.051.152v.014a.238.238 0 01-.075.129l-.107.09a.189.189 0 00-.02.267l.09.106a.202.202 0 01-.023.295.205.205 0 01-.153.052zm2.28 1.876a.352.352 0 00.494.039.348.348 0 00.04-.492.352.352 0 00-.495-.039.348.348 0 00-.039.492zm-1.081.918a.351.351 0 00.494.04.348.348 0 00.039-.492.352.352 0 00-.494-.04.348.348 0 00-.04.492zm.08-.997a.352.352 0 00.494.039.348.348 0 00.039-.492.351.351 0 00-.494-.039.348.348 0 00-.04.492zm.92 1.076a.352.352 0 00.494.039.348.348 0 00.04-.492.351.351 0 00-.494-.039.348.348 0 00-.04.492z"/></g><g clip-path="url(#clip2)" fill="#270035"><path d="M21.415 15.205l-.09.1-.006-.006a1.13 1.13 0 00-1.297-.147.624.624 0 00-.833.082l-1.016 1.123-1.315-1.178a.245.245 0 00-.345.018l-.505.559c-.09.1-.081.253.019.342l1.029.922a.117.117 0 00.166-.01.117.117 0 00-.009-.165l-1.029-.921a.008.008 0 010-.012l.505-.558a.008.008 0 01.011 0l1.316 1.177-1.689 1.869a.617.617 0 00.006.834c-.18.427-.082.94.284 1.268l.006.005-.09.1a.367.367 0 00.028.518l.374.335a.371.371 0 00.522-.027l.09-.099.38.34a1.13 1.13 0 001.587-.083l3.198-3.538a1.117 1.117 0 00-.083-1.581l-.38-.34.089-.1a.367.367 0 00-.028-.519l-.374-.335a.371.371 0 00-.521.027zm-4.133 6.071a.135.135 0 01-.19.01l-.374-.335a.133.133 0 01-.01-.188l.09-.1.573.514-.09.1zm5.19-4.63a.883.883 0 01.065 1.25l-3.198 3.538a.893.893 0 01-1.255.066l-1.31-1.173a.883.883 0 01-.066-1.25l2.609-2.886a.117.117 0 00-.009-.165.118.118 0 00-.166.008l-2.61 2.887c-.026.03-.05.06-.073.091a.383.383 0 01.043-.456l2.861-3.166a.389.389 0 01.451-.09 1.119 1.119 0 00-.083.083l-.252.279a.117.117 0 00.008.165c.049.044.123.04.167-.008l.252-.28a.893.893 0 011.256-.066l1.31 1.173zm-.32-.959c.056.05.06.134.01.189l-.089.099-.573-.514.09-.099a.134.134 0 01.189-.01l.374.335z"/><path d="M18.507 20.857a.367.367 0 00.027.52.371.371 0 00.522-.028.367.367 0 00-.027-.52.371.371 0 00-.522.028zm.374.335a.134.134 0 01-.19.01.133.133 0 01-.01-.188.134.134 0 01.19-.01c.055.05.06.134.01.188zm-2.057-1.842a.367.367 0 00.028.518.37.37 0 00.521-.027.367.367 0 00-.027-.52.371.371 0 00-.522.028zm.374.334a.135.135 0 01-.189.01.133.133 0 01-.01-.188.134.134 0 01.19-.01c.054.05.059.134.01.188zm4.675-2.552a.367.367 0 00.027.52.371.371 0 00.522-.028.367.367 0 00-.028-.519.37.37 0 00-.521.027zm.374.335a.134.134 0 01-.19.01.133.133 0 01-.01-.188.135.135 0 01.19-.01c.055.05.06.134.01.189zm-2.057-1.843a.367.367 0 00.027.52.371.371 0 00.522-.028.367.367 0 00-.027-.519.371.371 0 00-.522.027zm.374.336a.134.134 0 01-.189.01.133.133 0 01-.01-.189.134.134 0 01.19-.01c.054.05.058.134.01.189zm-1.536 2.274c-.058.03-.08.1-.05.158l.409.783a.154.154 0 01-.194.214l-.826-.322a.117.117 0 10-.086.218l.826.323a.388.388 0 00.488-.54l-.409-.784a.118.118 0 00-.158-.05zm1.328-.933a.371.371 0 00-.521.027l-.505.56a.117.117 0 00.009.165l.748.67c.048.043.123.04.166-.009a.117.117 0 00-.009-.165l-.66-.592.426-.472a.135.135 0 01.189-.01c.055.05.06.134.01.189l-.167.184a.161.161 0 00.147.268l.67-.11a.117.117 0 00.096-.134.118.118 0 00-.135-.097l-.464.076.028-.03a.367.367 0 00-.028-.52z"/></g><g clip-path="url(#clip3)" fill="#270035"><path d="M30.192 56.035L29.69 57.3a.13.13 0 00.243.096l.502-1.264a.224.224 0 01.29-.125l3.36 1.321a.222.222 0 01.125.289l-2.923 7.365a.224.224 0 01-.29.125l-3.36-1.322a.222.222 0 01-.125-.288l2.165-5.455a.13.13 0 00-.073-.17.131.131 0 00-.17.074l-.492 1.239-.29-.115a.276.276 0 00-.357.154l-.069.174-.206-.081a.37.37 0 01-.209-.48l.086-.216a.63.63 0 00-.357-.819l-.33-.13a.635.635 0 00-.822.355l-.08.201a.373.373 0 01-.482.208l-.95-.373a.131.131 0 00-.169.073.13.13 0 00.074.17l.949.373a.635.635 0 00.822-.355l.08-.2a.373.373 0 01.482-.21l.33.13a.37.37 0 01.21.481l-.086.216a.63.63 0 00.356.818l.206.08-.06.15c-.055.14.014.3.155.355l.29.114-1.247 3.143a.483.483 0 00.273.627l3.36 1.32a.486.486 0 00.629-.27l2.923-7.365a.483.483 0 00-.272-.627l-3.36-1.321a.486.486 0 00-.63.271zm-1.878 3.849l.224-.565a.013.013 0 01.017-.008l.29.115-.233.59-.29-.115a.013.013 0 01-.008-.017z"/><path d="M28.162 62.82l-.212.534a.21.21 0 00.119.274l.494.194a.212.212 0 00.275-.118l.212-.535a.21.21 0 00-.119-.273l-.494-.195a.212.212 0 00-.275.119zm.626.3l-.175.442-.401-.158.175-.442.401.157zm-.21-1.348l-.212.535a.21.21 0 00.119.273l.494.194a.212.212 0 00.275-.118l.212-.535a.21.21 0 00-.119-.273l-.494-.195a.212.212 0 00-.275.119zm.626.3l-.175.442-.401-.158.175-.442.401.158zm-.21-1.348l-.212.534a.21.21 0 00.119.274l.494.194a.212.212 0 00.275-.118l.212-.535a.21.21 0 00-.119-.273l-.494-.195a.212.212 0 00-.275.119zm.626.3l-.175.442-.401-.158.175-.442.401.157zm-.21-1.348l-.213.535a.21.21 0 00.12.273l.494.195a.212.212 0 00.274-.119l.213-.534a.21.21 0 00-.12-.274l-.494-.194a.212.212 0 00-.274.118zm.626.3l-.176.442-.4-.157.175-.443.4.158zm-.21-1.348l-.213.535a.21.21 0 00.12.273l.494.195a.212.212 0 00.274-.119l.213-.535a.21.21 0 00-.12-.273l-.494-.194a.212.212 0 00-.274.118zm.626.3l-.176.442-.4-.158.175-.442.401.158zm-.209-1.348l-.212.535a.21.21 0 00.119.273l.494.195a.212.212 0 00.275-.119l.212-.535a.21.21 0 00-.119-.273l-.494-.194a.212.212 0 00-.275.118zm.626.3l-.175.442-.401-.158.175-.442.401.158zm-.209-1.348l-.213.535a.21.21 0 00.119.273l.494.194a.212.212 0 00.275-.118l.212-.535a.21.21 0 00-.119-.273l-.494-.195a.212.212 0 00-.275.119zm.625.3l-.175.442-.401-.158.175-.442.401.158zm-1.772 5.988l-.394.993a.21.21 0 00.119.274l.494.194a.212.212 0 00.275-.118l.394-.993a.21.21 0 00-.12-.273l-.493-.195a.212.212 0 00-.275.119zm.626.3l-.357.9-.401-.157.357-.9.401.157zm1.687-6.128l-.394.992a.21.21 0 00.12.274l.494.194a.212.212 0 00.274-.118l.394-.993a.21.21 0 00-.119-.273l-.494-.195a.212.212 0 00-.275.119zm.627.3l-.358.9-.401-.158.357-.9.402.157zm-2.517 4.461l-.213.535a.21.21 0 00.12.273l.494.194a.212.212 0 00.274-.118l.212-.535a.21.21 0 00-.119-.273l-.494-.195a.212.212 0 00-.274.119zm.626.3l-.176.442-.401-.158.175-.442.402.158zm-.197-1.379l-.212.535a.21.21 0 00.119.273l.494.195a.212.212 0 00.275-.119l.212-.535a.21.21 0 00-.119-.273l-.494-.194a.212.212 0 00-.275.118zm.627.3l-.176.442-.401-.158.175-.442.401.158zm-.199-1.378l-.212.534a.21.21 0 00.12.274l.494.194a.212.212 0 00.274-.118l.212-.535a.21.21 0 00-.119-.273l-.494-.195a.212.212 0 00-.275.119zm.627.3l-.176.442-.401-.158.175-.442.402.157zm-.2-1.378l-.212.535a.21.21 0 00.119.273l.494.195a.212.212 0 00.274-.119l.213-.535a.21.21 0 00-.12-.273l-.494-.194a.212.212 0 00-.274.118zm.626.3l-.175.442-.402-.158.176-.442.401.158zm.695-.225l-1.414 3.563a.13.13 0 00.243.096l1.396-3.517.402.158-1.765 4.444-.4-.158.112-.283a.131.131 0 00-.243-.096l-.132.33a.21.21 0 00.12.273l.494.195a.212.212 0 00.274-.119l1.801-4.537a.21.21 0 00-.119-.273l-.494-.194a.212.212 0 00-.275.118zm-2.043 5.145l-.212.535a.21.21 0 00.12.273l.494.195a.212.212 0 00.274-.119l.213-.534a.21.21 0 00-.12-.274l-.494-.194a.212.212 0 00-.274.118zm.627.3l-.176.442-.401-.158.176-.442.4.158zm1.869-6.587l-.213.535a.21.21 0 00.12.273l.494.195a.212.212 0 00.274-.119l.213-.534a.21.21 0 00-.12-.274l-.494-.194a.212.212 0 00-.274.118zm.626.3l-.176.442-.4-.158.175-.442.4.158z"/></g><g clip-path="url(#clip4)" fill="#270035"><path d="M40.326 62.357a2.239 2.239 0 01.825-3.067l1.55-.89a2.264 2.264 0 013.08.822 2.236 2.236 0 01-.825 3.066l-1.55.89a2.267 2.267 0 01-3.08-.821zm5.267-3.027a2.048 2.048 0 00-2.784-.742l-1.549.89a2.02 2.02 0 00-.746 2.771 2.046 2.046 0 002.784.742l1.55-.89a2.022 2.022 0 00.746-2.771z"/><path d="M44.597 62.369l-2.146-3.7a.107.107 0 01.04-.148.11.11 0 01.148.04l2.146 3.7a.108.108 0 01-.122.158.109.109 0 01-.066-.05z"/><path d="M43.524 60.519a.108.108 0 01.04-.148l.47-.27a.11.11 0 01.148.04.108.108 0 01-.04.147l-.47.27a.108.108 0 01-.148-.04zm1.486-.854a.108.108 0 01.04-.148l.678-.39a.655.655 0 01.89.238l.163.281a.434.434 0 00.594.158l.094-.054a.11.11 0 01.148.04.108.108 0 01-.04.148l-.094.054a.655.655 0 01-.89-.238l-.163-.28a.434.434 0 00-.593-.159l-.678.39a.108.108 0 01-.148-.04z"/><path d="M43.996 60.249a.41.41 0 01.152-.563l.486-.28a.416.416 0 01.565.151.41.41 0 01-.151.563l-.486.28a.416.416 0 01-.566-.151zm1.015-.584a.198.198 0 00-.269-.071l-.486.28a.196.196 0 00-.072.267.196.196 0 00.269.072l.486-.28a.196.196 0 00.072-.267z"/></g><g clip-path="url(#clip5)" fill="#270035"><path d="M63.178 43.802l-.066-.116.007-.004a1.12 1.12 0 00.545-1.18.617.617 0 00.183-.814l-.755-1.31 1.536-.877a.242.242 0 00.09-.33l-.376-.652a.244.244 0 00-.332-.09l-1.201.685a.117.117 0 00-.044.16.118.118 0 00.161.043l1.201-.685a.008.008 0 01.011.003l.375.652a.008.008 0 01-.003.011l-1.535.876-1.255-2.18a.624.624 0 00-.798-.255 1.13 1.13 0 00-1.299-.129l-.007.004-.066-.115a.37.37 0 00-.505-.137l-.436.25a.367.367 0 00-.137.501l.066.116-.443.253a1.118 1.118 0 00-.417 1.528l2.377 4.13a1.13 1.13 0 001.535.414l.444-.253.066.116a.37.37 0 00.505.136l.436-.25a.367.367 0 00.137-.501zm-4.502-5.805a.133.133 0 01.05-.182l.437-.25a.135.135 0 01.182.05l.067.116-.67.382-.066-.116zm2.797 6.354a.892.892 0 01-1.213-.328l-2.378-4.13a.884.884 0 01.33-1.208l1.528-.871a.892.892 0 011.214.328l1.939 3.369a.118.118 0 00.16.043.117.117 0 00.044-.16l-1.94-3.369a1.165 1.165 0 00-.063-.098.387.387 0 01.421.183l2.127 3.695c.087.15.06.334-.054.454a1.127 1.127 0 00-.053-.104l-.188-.326a.118.118 0 00-.16-.044.117.117 0 00-.044.16l.188.326A.884.884 0 0163 43.48l-1.528.872zm1.014-.001a.134.134 0 01-.182-.05l-.067-.115.67-.382.066.116a.133.133 0 01-.05.181l-.437.25z"/><path d="M63.178 43.802l-.066-.116.007-.004a1.12 1.12 0 00.545-1.18.617.617 0 00.183-.814l-.755-1.31 1.536-.877a.242.242 0 00.09-.33l-.376-.652a.244.244 0 00-.332-.09l-1.201.685a.117.117 0 00-.044.16.118.118 0 00.161.043l1.201-.685a.008.008 0 01.011.003l.375.652a.008.008 0 01-.003.011l-1.535.876-1.255-2.18a.624.624 0 00-.798-.255 1.13 1.13 0 00-1.299-.129l-.007.004-.066-.115a.37.37 0 00-.505-.137l-.436.25a.367.367 0 00-.137.501l.066.116-.443.253a1.118 1.118 0 00-.417 1.528l2.377 4.13a1.13 1.13 0 001.535.414l.444-.253.066.116a.37.37 0 00.505.136l.436-.25a.367.367 0 00.137-.501zm-4.502-5.805a.133.133 0 01.05-.182l.437-.25a.135.135 0 01.182.05l.067.116-.67.382-.066-.116zm2.797 6.354a.892.892 0 01-1.213-.328l-2.378-4.13a.884.884 0 01.33-1.208l1.528-.871a.892.892 0 011.214.328l1.939 3.369a.118.118 0 00.16.043.117.117 0 00.044-.16l-1.94-3.369a1.165 1.165 0 00-.063-.098.387.387 0 01.421.183l2.127 3.695c.087.15.06.334-.054.454a1.127 1.127 0 00-.053-.104l-.188-.326a.118.118 0 00-.16-.044.117.117 0 00-.044.16l.188.326A.884.884 0 0163 43.48l-1.528.872zm1.014-.001a.134.134 0 01-.182-.05l-.067-.115.67-.382.066.116a.133.133 0 01-.05.181l-.437.25z"/><path d="M63.178 43.802l-.066-.116.007-.004a1.12 1.12 0 00.545-1.18.617.617 0 00.183-.814l-.755-1.31 1.536-.877a.242.242 0 00.09-.33l-.376-.652a.244.244 0 00-.332-.09l-1.201.685a.117.117 0 00-.044.16.118.118 0 00.161.043l1.201-.685a.008.008 0 01.011.003l.375.652a.008.008 0 01-.003.011l-1.535.876-1.255-2.18a.624.624 0 00-.798-.255 1.13 1.13 0 00-1.299-.129l-.007.004-.066-.115a.37.37 0 00-.505-.137l-.436.25a.367.367 0 00-.137.501l.066.116-.443.253a1.118 1.118 0 00-.417 1.528l2.377 4.13a1.13 1.13 0 001.535.414l.444-.253.066.116a.37.37 0 00.505.136l.436-.25a.367.367 0 00.137-.501zm-4.502-5.805a.133.133 0 01.05-.182l.437-.25a.135.135 0 01.182.05l.067.116-.67.382-.066-.116zm2.797 6.354a.892.892 0 01-1.213-.328l-2.378-4.13a.884.884 0 01.33-1.208l1.528-.871a.892.892 0 011.214.328l1.939 3.369a.118.118 0 00.16.043.117.117 0 00.044-.16l-1.94-3.369a1.165 1.165 0 00-.063-.098.387.387 0 01.421.183l2.127 3.695c.087.15.06.334-.054.454a1.127 1.127 0 00-.053-.104l-.188-.326a.118.118 0 00-.16-.044.117.117 0 00-.044.16l.188.326A.884.884 0 0163 43.48l-1.528.872zm1.014-.001a.134.134 0 01-.182-.05l-.067-.115.67-.382.066.116a.133.133 0 01-.05.181l-.437.25z"/><path d="M63.178 43.802l-.066-.116.007-.004a1.12 1.12 0 00.545-1.18.617.617 0 00.183-.814l-.755-1.31 1.536-.877a.242.242 0 00.09-.33l-.376-.652a.244.244 0 00-.332-.09l-1.201.685a.117.117 0 00-.044.16.118.118 0 00.161.043l1.201-.685a.008.008 0 01.011.003l.375.652a.008.008 0 01-.003.011l-1.535.876-1.255-2.18a.624.624 0 00-.798-.255 1.13 1.13 0 00-1.299-.129l-.007.004-.066-.115a.37.37 0 00-.505-.137l-.436.25a.367.367 0 00-.137.501l.066.116-.443.253a1.118 1.118 0 00-.417 1.528l2.377 4.13a1.13 1.13 0 001.535.414l.444-.253.066.116a.37.37 0 00.505.136l.436-.25a.367.367 0 00.137-.501zm-4.502-5.805a.133.133 0 01.05-.182l.437-.25a.135.135 0 01.182.05l.067.116-.67.382-.066-.116zm2.797 6.354a.892.892 0 01-1.213-.328l-2.378-4.13a.884.884 0 01.33-1.208l1.528-.871a.892.892 0 011.214.328l1.939 3.369a.118.118 0 00.16.043.117.117 0 00.044-.16l-1.94-3.369a1.165 1.165 0 00-.063-.098.387.387 0 01.421.183l2.127 3.695c.087.15.06.334-.054.454a1.127 1.127 0 00-.053-.104l-.188-.326a.118.118 0 00-.16-.044.117.117 0 00-.044.16l.188.326A.884.884 0 0163 43.48l-1.528.872zm1.014-.001a.134.134 0 01-.182-.05l-.067-.115.67-.382.066.116a.133.133 0 01-.05.181l-.437.25z"/><path d="M63.178 43.802l-.066-.116.007-.004a1.12 1.12 0 00.545-1.18.617.617 0 00.183-.814l-.755-1.31 1.536-.877a.242.242 0 00.09-.33l-.376-.652a.244.244 0 00-.332-.09l-1.201.685a.117.117 0 00-.044.16.118.118 0 00.161.043l1.201-.685a.008.008 0 01.011.003l.375.652a.008.008 0 01-.003.011l-1.535.876-1.255-2.18a.624.624 0 00-.798-.255 1.13 1.13 0 00-1.299-.129l-.007.004-.066-.115a.37.37 0 00-.505-.137l-.436.25a.367.367 0 00-.137.501l.066.116-.443.253a1.118 1.118 0 00-.417 1.528l2.377 4.13a1.13 1.13 0 001.535.414l.444-.253.066.116a.37.37 0 00.505.136l.436-.25a.367.367 0 00.137-.501zm-4.502-5.805a.133.133 0 01.05-.182l.437-.25a.135.135 0 01.182.05l.067.116-.67.382-.066-.116zm2.797 6.354a.892.892 0 01-1.213-.328l-2.378-4.13a.884.884 0 01.33-1.208l1.528-.871a.892.892 0 011.214.328l1.939 3.369a.118.118 0 00.16.043.117.117 0 00.044-.16l-1.94-3.369a1.165 1.165 0 00-.063-.098.387.387 0 01.421.183l2.127 3.695c.087.15.06.334-.054.454a1.127 1.127 0 00-.053-.104l-.188-.326a.118.118 0 00-.16-.044.117.117 0 00-.044.16l.188.326A.884.884 0 0163 43.48l-1.528.872zm1.014-.001a.134.134 0 01-.182-.05l-.067-.115.67-.382.066.116a.133.133 0 01-.05.181l-.437.25z"/><path d="M63.178 43.802l-.066-.116.007-.004a1.12 1.12 0 00.545-1.18.617.617 0 00.183-.814l-.755-1.31 1.536-.877a.242.242 0 00.09-.33l-.376-.652a.244.244 0 00-.332-.09l-1.201.685a.117.117 0 00-.044.16.118.118 0 00.161.043l1.201-.685a.008.008 0 01.011.003l.375.652a.008.008 0 01-.003.011l-1.535.876-1.255-2.18a.624.624 0 00-.798-.255 1.13 1.13 0 00-1.299-.129l-.007.004-.066-.115a.37.37 0 00-.505-.137l-.436.25a.367.367 0 00-.137.501l.066.116-.443.253a1.118 1.118 0 00-.417 1.528l2.377 4.13a1.13 1.13 0 001.535.414l.444-.253.066.116a.37.37 0 00.505.136l.436-.25a.367.367 0 00.137-.501zm-4.502-5.805a.133.133 0 01.05-.182l.437-.25a.135.135 0 01.182.05l.067.116-.67.382-.066-.116zm2.797 6.354a.892.892 0 01-1.213-.328l-2.378-4.13a.884.884 0 01.33-1.208l1.528-.871a.892.892 0 011.214.328l1.939 3.369a.118.118 0 00.16.043.117.117 0 00.044-.16l-1.94-3.369a1.165 1.165 0 00-.063-.098.387.387 0 01.421.183l2.127 3.695c.087.15.06.334-.054.454a1.127 1.127 0 00-.053-.104l-.188-.326a.118.118 0 00-.16-.044.117.117 0 00-.044.16l.188.326A.884.884 0 0163 43.48l-1.528.872zm1.014-.001a.134.134 0 01-.182-.05l-.067-.115.67-.382.066.116a.133.133 0 01-.05.181l-.437.25z"/><path d="M63.178 43.802l-.066-.116.007-.004a1.12 1.12 0 00.545-1.18.617.617 0 00.183-.814l-.755-1.31 1.536-.877a.242.242 0 00.09-.33l-.376-.652a.244.244 0 00-.332-.09l-1.201.685a.117.117 0 00-.044.16.118.118 0 00.161.043l1.201-.685a.008.008 0 01.011.003l.375.652a.008.008 0 01-.003.011l-1.535.876-1.255-2.18a.624.624 0 00-.798-.255 1.13 1.13 0 00-1.299-.129l-.007.004-.066-.115a.37.37 0 00-.505-.137l-.436.25a.367.367 0 00-.137.501l.066.116-.443.253a1.118 1.118 0 00-.417 1.528l2.377 4.13a1.13 1.13 0 001.535.414l.444-.253.066.116a.37.37 0 00.505.136l.436-.25a.367.367 0 00.137-.501zm-4.502-5.805a.133.133 0 01.05-.182l.437-.25a.135.135 0 01.182.05l.067.116-.67.382-.066-.116zm2.797 6.354a.892.892 0 01-1.213-.328l-2.378-4.13a.884.884 0 01.33-1.208l1.528-.871a.892.892 0 011.214.328l1.939 3.369a.118.118 0 00.16.043.117.117 0 00.044-.16l-1.94-3.369a1.165 1.165 0 00-.063-.098.387.387 0 01.421.183l2.127 3.695c.087.15.06.334-.054.454a1.127 1.127 0 00-.053-.104l-.188-.326a.118.118 0 00-.16-.044.117.117 0 00-.044.16l.188.326A.884.884 0 0163 43.48l-1.528.872zm1.014-.001a.134.134 0 01-.182-.05l-.067-.115.67-.382.066.116a.133.133 0 01-.05.181l-.437.25z"/><path d="M63.178 43.802l-.066-.116.007-.004a1.12 1.12 0 00.545-1.18.617.617 0 00.183-.814l-.755-1.31 1.536-.877a.242.242 0 00.09-.33l-.376-.652a.244.244 0 00-.332-.09l-1.201.685a.117.117 0 00-.044.16.118.118 0 00.161.043l1.201-.685a.008.008 0 01.011.003l.375.652a.008.008 0 01-.003.011l-1.535.876-1.255-2.18a.624.624 0 00-.798-.255 1.13 1.13 0 00-1.299-.129l-.007.004-.066-.115a.37.37 0 00-.505-.137l-.436.25a.367.367 0 00-.137.501l.066.116-.443.253a1.118 1.118 0 00-.417 1.528l2.377 4.13a1.13 1.13 0 001.535.414l.444-.253.066.116a.37.37 0 00.505.136l.436-.25a.367.367 0 00.137-.501zm-4.502-5.805a.133.133 0 01.05-.182l.437-.25a.135.135 0 01.182.05l.067.116-.67.382-.066-.116zm2.797 6.354a.892.892 0 01-1.213-.328l-2.378-4.13a.884.884 0 01.33-1.208l1.528-.871a.892.892 0 011.214.328l1.939 3.369a.118.118 0 00.16.043.117.117 0 00.044-.16l-1.94-3.369a1.165 1.165 0 00-.063-.098.387.387 0 01.421.183l2.127 3.695c.087.15.06.334-.054.454a1.127 1.127 0 00-.053-.104l-.188-.326a.118.118 0 00-.16-.044.117.117 0 00-.044.16l.188.326A.884.884 0 0163 43.48l-1.528.872zm1.014-.001a.134.134 0 01-.182-.05l-.067-.115.67-.382.066.116a.133.133 0 01-.05.181l-.437.25z"/><path d="M58.695 39.287a.37.37 0 00-.504-.136.367.367 0 00-.137.501.37.37 0 00.504.136.367.367 0 00.137-.501zm-.437.249a.133.133 0 01.05-.182.133.133 0 11.133.231.134.134 0 01-.183-.05zm2.4-1.371a.37.37 0 00-.504-.136.367.367 0 00-.137.502.37.37 0 00.504.136.367.367 0 00.137-.502zm-.437.25a.133.133 0 01.05-.183.133.133 0 11.133.231.134.134 0 01-.183-.049zm.974 5.218a.37.37 0 00-.504-.136.367.367 0 10.367.638.367.367 0 00.137-.502zm-.436.25a.133.133 0 01.05-.182.133.133 0 11.133.231.134.134 0 01-.183-.05zm2.403-1.37a.37.37 0 00-.505-.136.367.367 0 00-.136.502.37.37 0 00.504.136.367.367 0 00.137-.502zm-.437.249a.133.133 0 01.05-.182.133.133 0 11.133.231.135.135 0 01-.183-.049zm-1.69-2.165a.118.118 0 00-.136-.097l-.875.142a.154.154 0 01-.144-.25l.566-.68a.117.117 0 00-.016-.164.118.118 0 00-.165.015l-.566.68a.388.388 0 00.363.63l.875-.141a.117.117 0 00.098-.135zm.475 1.55a.367.367 0 00.137-.502l-.376-.652a.118.118 0 00-.16-.044l-.874.498a.117.117 0 00-.043.16.118.118 0 00.16.044l.772-.44.317.55a.133.133 0 01-.05.182.135.135 0 01-.183-.05l-.124-.215a.163.163 0 00-.302.056l-.104.666a.118.118 0 00.233.036l.072-.462.02.036a.37.37 0 00.505.137z"/></g><path d="M36.371 14.084l-3.544-1.403c-.075-.03-.179-.019-.23.025l-3.956 3.292a.07.07 0 00-.026.046c-.03.03-.027.067.006.097l2.387 2.057c.051.044.154.056.23.027l5.794-2.22c.076-.03.097-.088.046-.132l-1.304-1.124.64-.533c.052-.043.033-.102-.043-.132zm.339 1.815l-5.518 2.115-2.204-1.9L34.506 14l2.204 1.9zm-5.879-.719l1.697-1.413c.35.045.718.007 1.018-.107l.616.244-3.331 1.276zm4.746-.601l-.887-.764c-.05-.044-.153-.055-.23-.026h-.002l-.78-.309a.18.18 0 00-.024-.005.26.26 0 00-.215-.006 1.603 1.603 0 01-.93.099c-.078-.014-.163.007-.198.05a.155.155 0 00-.017.01l-2.072 1.724c-.025.02-.035.046-.027.071l-.856.328 3.436-2.86 3.272 1.296-.47.392z" fill="#270035"/><path d="M30.785 17.337a1.62 1.62 0 01.946.107c.057.028.14.03.201.006a.162.162 0 00.02-.01.25.25 0 00.022-.005l3.374-1.297a.125.125 0 00.015-.01c.082-.016.124-.068.094-.115-.102-.189-.03-.394.189-.545.053-.037.05-.091-.007-.126a.092.092 0 00-.01-.014l-.75-.646a.143.143 0 00-.018-.01c-.034-.044-.12-.067-.2-.053a1.617 1.617 0 01-.945-.108.266.266 0 00-.22.005.23.23 0 00-.023.005L30.1 15.818a.172.172 0 00-.018.01c-.076.02-.114.07-.09.116.1.188.03.393-.19.544-.052.037-.05.091.007.126l.01.014.75.646.017.01c.034.044.12.067.2.053zm-.648-.785c.207-.174.281-.388.206-.594l3.26-1.253a2.18 2.18 0 001.033.117l.674.582c-.207.173-.281.388-.206.594l-3.26 1.253a2.183 2.183 0 00-1.033-.118l-.674-.58z" fill="#270035"/><path d="M33.273 16.449c.453-.174.576-.526.273-.786-.302-.26-.915-.33-1.369-.156-.453.174-.576.526-.273.786.303.26.915.33 1.369.156zm-.913-.785c.302-.116.71-.07.913.104.201.173.12.408-.183.524-.302.116-.71.07-.913-.104-.201-.173-.12-.408.183-.524zm-1.142 1.083c.114-.043.145-.131.069-.196-.076-.065-.23-.083-.342-.04-.114.044-.144.132-.069.197.076.065.23.083.342.04zm-.182-.157c.038-.014.089-.008.114.013.025.022.015.051-.023.066-.038.014-.089.008-.114-.013-.025-.022-.015-.051.023-.066zm3.467-1.146c.114-.043.144-.131.069-.197-.076-.065-.23-.082-.343-.038-.113.043-.144.131-.068.196.075.065.229.083.342.04zm-.182-.157c.037-.014.088-.009.114.013.025.022.015.051-.023.066-.038.014-.089.008-.114-.013-.026-.022-.015-.051.023-.066z" fill="#270035"/><g clip-path="url(#clip6)" fill="#270035"><path d="M51.431 20.646c.1-.448.155-.96.163-1.453.003-.473-.03-.926-.12-1.29-.357-1.364-1.141-1.377-2.083-1.381-.299-.008-.62-.01-.937-.064l-.096-.026c-.302-.111-.581-.268-.843-.41-.82-.457-1.504-.845-2.502.168a5.08 5.08 0 00-.751 1.058c-.24.431-.45.901-.589 1.339-.151.486-.199.855-.16 1.133.045.26.16.445.348.557.17.097.389.135.637.098.419-.053.942-.265 1.473-.546.378-.209.978-.203 1.539-.054.56.15 1.082.444 1.304.812.32.509.667.952 1.002 1.206.2.146.404.232.6.233.21-.006.41-.097.584-.32.171-.211.316-.555.431-1.06zm-.723.838c-.094.12-.193.176-.297.18-.114 0-.244-.056-.384-.155-.302-.225-.618-.629-.906-1.098-.27-.463-.868-.82-1.516-.992-.647-.173-1.345-.163-1.815.083-.495.26-.974.463-1.337.5-.17.016-.313.01-.41-.058-.088-.054-.145-.152-.166-.302-.029-.204.013-.512.152-.95.13-.409.325-.862.56-1.274.218-.386.457-.735.7-.98.787-.81 1.365-.491 2.048-.103.279.157.568.317.898.436l.02.005.106.028.02.005c.355.064.685.07 1.006.073.784.013 1.447.014 1.722 1.11.087.332.121.743.113 1.195-.012.471-.06.954-.154 1.383-.1.447-.219.735-.36.914z"/><path d="M47.169 17.497a.607.607 0 00-.305-.256.565.565 0 00-.064-.378l-.007-.013a.567.567 0 00-.352-.269.593.593 0 00-.44.058.58.58 0 00-.258.303.598.598 0 00-.39.06l-.012.008a.565.565 0 00-.27.35.586.586 0 00.058.439c.07.122.17.21.313.259a.53.53 0 00.071.39.567.567 0 00.353.27.593.593 0 00.44-.058.606.606 0 00.258-.303c.138.027.28.002.392-.07a.564.564 0 00.27-.351.586.586 0 00-.057-.439zm-.387.475a.204.204 0 01-.16.019l-.136-.036a.19.19 0 00-.233.134l-.034.125a.204.204 0 01-.257.148.204.204 0 01-.15-.257l.037-.134a.19.19 0 00-.134-.232l-.136-.036a.204.204 0 01-.054-.376l.012-.007a.24.24 0 01.149-.012l.135.036a.19.19 0 00.233-.134l.036-.135a.204.204 0 01.257-.148.203.203 0 01.13.097l.007.012c.019.046.025.1.012.148l-.036.134a.19.19 0 00.134.232l.136.037a.204.204 0 01.149.256.203.203 0 01-.097.129zm2.947.259a.349.349 0 10.181-.674.349.349 0 10-.181.674zm-.369 1.368a.349.349 0 10.181-.674.349.349 0 10-.181.674zm-.503-.867a.349.349 0 10.181-.674.349.349 0 10-.181.674zm1.373.367a.349.349 0 10.181-.674.349.349 0 10-.181.674z"/><g clip-path="url(#clip7)"><path d="M125.478-299.57L-276.255-24.435c-6.074 4.16-7.616 12.464-3.437 18.51l174.654 252.674c4.179 6.047 12.521 7.581 18.596 3.421l171.01-117.12a67.468 67.468 0 0118.125 14.126l-61.627 42.207c-3.926 2.688-6.128 7.122-5.89 11.86l2.497 49.657a13.549 13.549 0 002.386 7.013l10.67 15.436c4.261 6.166 12.767 7.731 18.961 3.488l214.82-147.122c6.193-4.241 7.766-12.709 3.504-18.874l-10.67-15.437a13.64 13.64 0 00-5.73-4.724l-45.697-20.067a13.6 13.6 0 00-13.235 1.235l-61.627 42.207a66.956 66.956 0 01-6.775-21.898l111.01-76.029a7.479 7.479 0 001.937-10.43c-2.359-3.412-7.05-4.276-10.479-1.927L-93.586 236.854l-172.729-249.89L132.62-286.252l172.729 249.89-29.632 20.293a7.478 7.478 0 00-1.936 10.43c2.358 3.413 7.049 4.277 10.478 1.928l31.031-21.252c6.074-4.16 7.616-12.464 3.437-18.51L144.072-296.149c-4.179-6.046-12.521-7.58-18.594-3.421zM254.762 99.675L115.065 195.35c-3.428 2.348-4.295 7.018-1.937 10.43 2.359 3.413 7.051 4.276 10.479 1.928l144.611-99.04 6.567 9.5L62.329 263.671l-6.566-9.5 38.875-26.624c3.428-2.348 4.295-7.018 1.936-10.43-2.359-3.413-7.05-4.276-10.478-1.928l-33.961 23.259-1.868-37.159 61.455-42.088 5.83 8.435c2.786 4.029 7.973 5.725 12.616 4.125a77.914 77.914 0 0034.132-23.376 10.897 10.897 0 00.639-13.203l-5.83-8.435 61.456-42.09 34.197 15.018zm-124.122 1.822a82.009 82.009 0 0012.563 28.701l7.503 10.854a62.843 62.843 0 01-22.557 15.449l-7.503-10.855a82.39 82.39 0 00-22.438-21.937l32.432-22.212z"/><path d="M-221.504-13.378a7.479 7.479 0 001.936-10.43c-2.359-3.413-7.05-4.276-10.478-1.928l-15.233 10.432c-3.896 2.668-4.884 7.993-2.204 11.871l151.618 219.348c2.68 3.878 8.03 4.862 11.926 2.194L284.312-34.095c3.896-2.668 4.885-7.993 2.204-11.871L134.899-265.314c-2.681-3.878-8.03-4.862-11.926-2.194L-201.078-45.575a7.48 7.48 0 00-1.937 10.43c2.359 3.412 7.051 4.275 10.479 1.927l318.701-218.268L270.42-42.789-87.131 202.087-231.387-6.61l9.883-6.768z"/></g></g><g clip-path="url(#clip8)" fill="#270035"><path d="M63.02 29.885l-3.297-5.768a.184.184 0 00-.25-.068l-3.661 2.074a.182.182 0 00-.069.248l1.404 2.455a.92.92 0 01-.215.23l-.505-.885a.185.185 0 00-.156-.094l-.682-.024a.187.187 0 00-.099.024l-.224.127a.185.185 0 00-.07.253l1.763 3.084c.051.089.165.12.255.07l.223-.127a.187.187 0 00.072-.072l.328-.596a.184.184 0 00-.002-.181l-.506-.885a.927.927 0 01.308-.067l.91 1.594c.029.05.092.067.141.039a.102.102 0 00.039-.14l-2.793-4.886 3.621-2.051 3.274 5.728-3.621 2.05-.243-.425a.103.103 0 00-.14-.038.102.102 0 00-.04.14l.255.445c.05.087.162.118.25.068l3.661-2.073a.182.182 0 00.069-.249zm-5.615 1.288l-1.146-2.006a.103.103 0 00-.14-.038.102.102 0 00-.04.14l1.187 2.076-.137.078-1.744-3.05.138-.079.319.558a.102.102 0 10.18-.101l-.28-.487.511.018.504.882-.122.07a.15.15 0 00-.071.165c.047.187.145.356.28.49a.15.15 0 00.18.024l.122-.069.505.883-.246.446zm.12-1.685a1.13 1.13 0 00-.407.137l-.158.089a.854.854 0 01-.185-.324l.157-.09c.127-.07.237-.166.327-.278l.266.466z"/><path d="M59.509 24.847c.028.05.09.066.14.038a.102.102 0 00.039-.14l-.125-.218a.118.118 0 00-.16-.044l-3.179 1.8a.117.117 0 00-.043.16l3.022 5.287a.118.118 0 00.16.043l3.178-1.8a.116.116 0 00.044-.159l-2.66-4.652a.103.103 0 00-.14-.039.102.102 0 00-.038.14l2.615 4.576-3.024 1.712-2.934-5.133 3.024-1.713.08.142z"/></g><g clip-path="url(#clip9)" fill="#270035"><path d="M54.677 54.355a.424.424 0 00-.599.022l-.192.206a.141.141 0 01-.2.007l-.207-.191a.142.142 0 01-.045-.098.14.14 0 01.038-.1l.385-.413a.14.14 0 00-.01-.197.141.141 0 00-.197.006l-.385.412a.422.422 0 00.022.596l.207.192a.425.425 0 00.599-.022l.192-.206a.14.14 0 01.153-.036.14.14 0 01.047.029l.207.191a.14.14 0 01.007.199l-.385.412a.139.139 0 00-.026.155.14.14 0 00.135.083.143.143 0 00.098-.047l.385-.412a.422.422 0 00-.022-.596l-.207-.191zm1.58-.915l-1.53-.84a.142.142 0 00-.171.027l-.193.206a.14.14 0 00-.015.172l.953 1.459a.141.141 0 00.237-.154l-.257-.394.426-.457.414.227a.143.143 0 00.107.012.141.141 0 00.072-.223.143.143 0 00-.043-.035zm-1.135.233l-.477-.728.042-.045.765.42-.33.353zm1.965-1.278l-.481.515-1.139-1.054a.142.142 0 00-.201.006.139.139 0 00-.038.102.142.142 0 00.047.098l1.242 1.15a.141.141 0 00.2-.008l.577-.618a.14.14 0 00-.11-.234.142.142 0 00-.097.043zm.906-.97l-.385.412-.414-.383.192-.206a.14.14 0 00-.109-.234.142.142 0 00-.098.043l-.192.206-.414-.383.385-.413a.14.14 0 00-.162-.224.142.142 0 00-.045.033l-.48.515a.14.14 0 00.006.199l1.242 1.149a.142.142 0 00.2-.007l.48-.515a.14.14 0 00-.162-.225.14.14 0 00-.044.033z"/><path d="M59.507 50.508l.12-1.022a.7.7 0 00-.505-.756.71.71 0 00-.326-.016l-2.163.402a1.28 1.28 0 00-.698.383L51.86 53.86a.701.701 0 00.037.994l2.07 1.916a.708.708 0 00.998-.037l2.231-2.388c.285 1.169.857 1.897 1.494 1.873.871-.031 1.501-1.475 1.435-3.288-.035-.949-.26-1.826-.617-2.422zm-4.75 6.034a.435.435 0 01-.6.021l-2.068-1.915a.423.423 0 01-.022-.596l4.075-4.363a.997.997 0 01.542-.297l2.163-.402a.428.428 0 01.39.129.42.42 0 01.11.335l-.084.713a1.452 1.452 0 00-.284-.252.557.557 0 00-.18-.385.581.581 0 00-.798.029.563.563 0 00.752.835.565.565 0 00.155-.181c.12.103.224.224.308.358l-.123 1.05a.976.976 0 01-.259.556l-4.077 4.365zm3.706-6.507a.537.537 0 01.202.033.284.284 0 01-.366.137.285.285 0 01-.116-.439.286.286 0 01.456.006.798.798 0 00-.186-.018.142.142 0 00-.136.145.14.14 0 00.146.136zm.216 5.902c-.51.019-1.019-.737-1.25-1.843l1.612-1.726c.184-.197.3-.448.331-.715l.076-.64a5.5 5.5 0 01.394 1.927c.058 1.6-.474 2.972-1.163 2.997z"/><path d="M59.507 50.508l.12-1.022a.7.7 0 00-.505-.756.71.71 0 00-.326-.016l-2.163.402a1.28 1.28 0 00-.698.383L51.86 53.86a.701.701 0 00.037.994l2.07 1.916a.708.708 0 00.998-.037l2.231-2.388c.285 1.169.857 1.897 1.494 1.873.871-.031 1.501-1.475 1.435-3.288-.035-.949-.26-1.826-.617-2.422zm-4.75 6.034a.435.435 0 01-.6.021l-2.068-1.915a.423.423 0 01-.022-.596l4.075-4.363a.997.997 0 01.542-.297l2.163-.402a.428.428 0 01.39.129.42.42 0 01.11.335l-.084.713a1.452 1.452 0 00-.284-.252.557.557 0 00-.18-.385.581.581 0 00-.798.029.563.563 0 00.752.835.565.565 0 00.155-.181c.12.103.224.224.308.358l-.123 1.05a.976.976 0 01-.259.556l-4.077 4.365zm3.706-6.507a.537.537 0 01.202.033.284.284 0 01-.366.137.285.285 0 01-.116-.439.286.286 0 01.456.006.798.798 0 00-.186-.018.142.142 0 00-.136.145.14.14 0 00.146.136zm.216 5.902c-.51.019-1.019-.737-1.25-1.843l1.612-1.726c.184-.197.3-.448.331-.715l.076-.64a5.5 5.5 0 01.394 1.927c.058 1.6-.474 2.972-1.163 2.997z"/><path d="M59.507 50.508l.12-1.022a.7.7 0 00-.505-.756.71.71 0 00-.326-.016l-2.163.402a1.28 1.28 0 00-.698.383L51.86 53.86a.701.701 0 00.037.994l2.07 1.916a.708.708 0 00.998-.037l2.231-2.388c.285 1.169.857 1.897 1.494 1.873.871-.031 1.501-1.475 1.435-3.288-.035-.949-.26-1.826-.617-2.422zm-4.75 6.034a.435.435 0 01-.6.021l-2.068-1.915a.423.423 0 01-.022-.596l4.075-4.363a.997.997 0 01.542-.297l2.163-.402a.428.428 0 01.39.129.42.42 0 01.11.335l-.084.713a1.452 1.452 0 00-.284-.252.557.557 0 00-.18-.385.581.581 0 00-.798.029.563.563 0 00.752.835.565.565 0 00.155-.181c.12.103.224.224.308.358l-.123 1.05a.976.976 0 01-.259.556l-4.077 4.365zm3.706-6.507a.537.537 0 01.202.033.284.284 0 01-.366.137.285.285 0 01-.116-.439.286.286 0 01.456.006.798.798 0 00-.186-.018.142.142 0 00-.136.145.14.14 0 00.146.136zm.216 5.902c-.51.019-1.019-.737-1.25-1.843l1.612-1.726c.184-.197.3-.448.331-.715l.076-.64a5.5 5.5 0 01.394 1.927c.058 1.6-.474 2.972-1.163 2.997z"/><path d="M59.507 50.508l.12-1.022a.7.7 0 00-.505-.756.71.71 0 00-.326-.016l-2.163.402a1.28 1.28 0 00-.698.383L51.86 53.86a.701.701 0 00.037.994l2.07 1.916a.708.708 0 00.998-.037l2.231-2.388c.285 1.169.857 1.897 1.494 1.873.871-.031 1.501-1.475 1.435-3.288-.035-.949-.26-1.826-.617-2.422zm-4.75 6.034a.435.435 0 01-.6.021l-2.068-1.915a.423.423 0 01-.022-.596l4.075-4.363a.997.997 0 01.542-.297l2.163-.402a.428.428 0 01.39.129.42.42 0 01.11.335l-.084.713a1.452 1.452 0 00-.284-.252.557.557 0 00-.18-.385.581.581 0 00-.798.029.563.563 0 00.752.835.565.565 0 00.155-.181c.12.103.224.224.308.358l-.123 1.05a.976.976 0 01-.259.556l-4.077 4.365zm3.706-6.507a.537.537 0 01.202.033.284.284 0 01-.366.137.285.285 0 01-.116-.439.286.286 0 01.456.006.798.798 0 00-.186-.018.142.142 0 00-.136.145.14.14 0 00.146.136zm.216 5.902c-.51.019-1.019-.737-1.25-1.843l1.612-1.726c.184-.197.3-.448.331-.715l.076-.64a5.5 5.5 0 01.394 1.927c.058 1.6-.474 2.972-1.163 2.997z"/><path d="M59.507 50.508l.12-1.022a.7.7 0 00-.505-.756.71.71 0 00-.326-.016l-2.163.402a1.28 1.28 0 00-.698.383L51.86 53.86a.701.701 0 00.037.994l2.07 1.916a.708.708 0 00.998-.037l2.231-2.388c.285 1.169.857 1.897 1.494 1.873.871-.031 1.501-1.475 1.435-3.288-.035-.949-.26-1.826-.617-2.422zm-4.75 6.034a.435.435 0 01-.6.021l-2.068-1.915a.423.423 0 01-.022-.596l4.075-4.363a.997.997 0 01.542-.297l2.163-.402a.428.428 0 01.39.129.42.42 0 01.11.335l-.084.713a1.452 1.452 0 00-.284-.252.557.557 0 00-.18-.385.581.581 0 00-.798.029.563.563 0 00.752.835.565.565 0 00.155-.181c.12.103.224.224.308.358l-.123 1.05a.976.976 0 01-.259.556l-4.077 4.365zm3.706-6.507a.537.537 0 01.202.033.284.284 0 01-.366.137.285.285 0 01-.116-.439.286.286 0 01.456.006.798.798 0 00-.186-.018.142.142 0 00-.136.145.14.14 0 00.146.136zm.216 5.902c-.51.019-1.019-.737-1.25-1.843l1.612-1.726c.184-.197.3-.448.331-.715l.076-.64a5.5 5.5 0 01.394 1.927c.058 1.6-.474 2.972-1.163 2.997z"/><path d="M59.507 50.508l.12-1.022a.7.7 0 00-.505-.756.71.71 0 00-.326-.016l-2.163.402a1.28 1.28 0 00-.698.383L51.86 53.86a.701.701 0 00.037.994l2.07 1.916a.708.708 0 00.998-.037l2.231-2.388c.285 1.169.857 1.897 1.494 1.873.871-.031 1.501-1.475 1.435-3.288-.035-.949-.26-1.826-.617-2.422zm-4.75 6.034a.435.435 0 01-.6.021l-2.068-1.915a.423.423 0 01-.022-.596l4.075-4.363a.997.997 0 01.542-.297l2.163-.402a.428.428 0 01.39.129.42.42 0 01.11.335l-.084.713a1.452 1.452 0 00-.284-.252.557.557 0 00-.18-.385.581.581 0 00-.798.029.563.563 0 00.752.835.565.565 0 00.155-.181c.12.103.224.224.308.358l-.123 1.05a.976.976 0 01-.259.556l-4.077 4.365zm3.706-6.507a.537.537 0 01.202.033.284.284 0 01-.366.137.285.285 0 01-.116-.439.286.286 0 01.456.006.798.798 0 00-.186-.018.142.142 0 00-.136.145.14.14 0 00.146.136zm.216 5.902c-.51.019-1.019-.737-1.25-1.843l1.612-1.726c.184-.197.3-.448.331-.715l.076-.64a5.5 5.5 0 01.394 1.927c.058 1.6-.474 2.972-1.163 2.997z"/><path d="M59.507 50.508l.12-1.022a.7.7 0 00-.505-.756.71.71 0 00-.326-.016l-2.163.402a1.28 1.28 0 00-.698.383L51.86 53.86a.701.701 0 00.037.994l2.07 1.916a.708.708 0 00.998-.037l2.231-2.388c.285 1.169.857 1.897 1.494 1.873.871-.031 1.501-1.475 1.435-3.288-.035-.949-.26-1.826-.617-2.422zm-4.75 6.034a.435.435 0 01-.6.021l-2.068-1.915a.423.423 0 01-.022-.596l4.075-4.363a.997.997 0 01.542-.297l2.163-.402a.428.428 0 01.39.129.42.42 0 01.11.335l-.084.713a1.452 1.452 0 00-.284-.252.557.557 0 00-.18-.385.581.581 0 00-.798.029.563.563 0 00.752.835.565.565 0 00.155-.181c.12.103.224.224.308.358l-.123 1.05a.976.976 0 01-.259.556l-4.077 4.365zm3.706-6.507a.537.537 0 01.202.033.284.284 0 01-.366.137.285.285 0 01-.116-.439.286.286 0 01.456.006.798.798 0 00-.186-.018.142.142 0 00-.136.145.14.14 0 00.146.136zm.216 5.902c-.51.019-1.019-.737-1.25-1.843l1.612-1.726c.184-.197.3-.448.331-.715l.076-.64a5.5 5.5 0 01.394 1.927c.058 1.6-.474 2.972-1.163 2.997z"/><path d="M59.507 50.508l.12-1.022a.7.7 0 00-.505-.756.71.71 0 00-.326-.016l-2.163.402a1.28 1.28 0 00-.698.383L51.86 53.86a.701.701 0 00.037.994l2.07 1.916a.708.708 0 00.998-.037l2.231-2.388c.285 1.169.857 1.897 1.494 1.873.871-.031 1.501-1.475 1.435-3.288-.035-.949-.26-1.826-.617-2.422zm-4.75 6.034a.435.435 0 01-.6.021l-2.068-1.915a.423.423 0 01-.022-.596l4.075-4.363a.997.997 0 01.542-.297l2.163-.402a.428.428 0 01.39.129.42.42 0 01.11.335l-.084.713a1.452 1.452 0 00-.284-.252.557.557 0 00-.18-.385.581.581 0 00-.798.029.563.563 0 00.752.835.565.565 0 00.155-.181c.12.103.224.224.308.358l-.123 1.05a.976.976 0 01-.259.556l-4.077 4.365zm3.706-6.507a.537.537 0 01.202.033.284.284 0 01-.366.137.285.285 0 01-.116-.439.286.286 0 01.456.006.798.798 0 00-.186-.018.142.142 0 00-.136.145.14.14 0 00.146.136zm.216 5.902c-.51.019-1.019-.737-1.25-1.843l1.612-1.726c.184-.197.3-.448.331-.715l.076-.64a5.5 5.5 0 01.394 1.927c.058 1.6-.474 2.972-1.163 2.997z"/><g clip-path="url(#clip10)"><path d="M299.028-171.693H-188.61c-7.373 0-13.371 5.971-13.371 13.31v306.705c0 7.339 5.998 13.31 13.371 13.31H18.97a66.96 66.96 0 016.887 21.864h-74.805c-4.765 0-9.104 2.41-11.606 6.448l-26.22 42.318a13.54 13.54 0 00-2.029 7.123v18.738c0 7.484 6.117 13.572 13.635 13.572h260.754c7.518 0 13.635-6.088 13.635-13.572v-18.738a13.54 13.54 0 00-2.03-7.125l-26.219-42.315c-2.501-4.038-6.841-6.449-11.607-6.449H84.56a66.977 66.977 0 016.888-21.864h134.749c4.162 0 7.535-3.358 7.535-7.5 0-4.142-3.373-7.5-7.535-7.5h-413.109v-303.325h484.241v303.325h-35.968c-4.162 0-7.535 3.358-7.535 7.5 0 4.142 3.373 7.5 7.535 7.5h37.666c7.373 0 13.372-5.971 13.372-13.31v-306.706c0-7.339-5.999-13.309-13.371-13.309zM178.186 230.163H8.617c-4.161 0-7.535 3.358-7.535 7.5 0 4.142 3.374 7.5 7.535 7.5h175.535v11.532H-73.734v-11.532h47.187c4.162 0 7.535-3.358 7.535-7.5 0-4.142-3.373-7.5-7.535-7.5h-41.222l19.62-31.667h74.597v10.239c0 4.892 3.308 9.216 8.044 10.517a78.259 78.259 0 0041.43 0c4.738-1.3 8.046-5.625 8.046-10.517v-10.239h74.597l19.621 31.667zM74.893 161.632a81.858 81.858 0 00-5.994 30.733v13.175a63.117 63.117 0 01-27.38 0v-13.175a81.873 81.873 0 00-5.993-30.733h39.367z"/><path d="M-149.8-131.692c4.161 0 7.535-3.358 7.535-7.501 0-4.142-3.374-7.5-7.535-7.5h-18.49c-4.728 0-8.575 3.829-8.575 8.536v266.253c0 4.707 3.847 8.536 8.575 8.536h446.997c4.729 0 8.576-3.829 8.576-8.536v-266.253c0-4.707-3.847-8.536-8.576-8.536h-393.344c-4.161 0-7.535 3.358-7.535 7.5 0 4.143 3.374 7.501 7.535 7.501h386.85v253.323h-434.008v-253.323h11.995z"/><path d="M299.028-171.693H-188.61c-7.373 0-13.371 5.971-13.371 13.31v306.705c0 7.339 5.998 13.31 13.371 13.31H18.97a66.96 66.96 0 016.887 21.864h-74.805c-4.765 0-9.104 2.41-11.606 6.448l-26.22 42.318a13.54 13.54 0 00-2.029 7.123v18.738c0 7.484 6.117 13.572 13.635 13.572h260.754c7.518 0 13.635-6.088 13.635-13.572v-18.738a13.54 13.54 0 00-2.03-7.125l-26.219-42.315c-2.501-4.038-6.841-6.449-11.607-6.449H84.56a66.977 66.977 0 016.888-21.864h134.749c4.162 0 7.535-3.358 7.535-7.5 0-4.142-3.373-7.5-7.535-7.5h-413.109v-303.325h484.241v303.325h-35.968c-4.162 0-7.535 3.358-7.535 7.5 0 4.142 3.373 7.5 7.535 7.5h37.666c7.373 0 13.372-5.971 13.372-13.31v-306.706c0-7.339-5.999-13.309-13.371-13.309zM178.186 230.163H8.617c-4.161 0-7.535 3.358-7.535 7.5 0 4.142 3.374 7.5 7.535 7.5h175.535v11.531H-73.734v-11.531h47.187c4.162 0 7.535-3.358 7.535-7.5 0-4.142-3.373-7.5-7.535-7.5h-41.222l19.62-31.667h74.597v10.239c0 4.891 3.308 9.216 8.044 10.517a78.259 78.259 0 0041.43 0c4.738-1.3 8.046-5.626 8.046-10.517v-10.239h74.597l19.621 31.667zM74.893 161.632a81.858 81.858 0 00-5.994 30.733v13.175a63.117 63.117 0 01-27.38 0v-13.175a81.873 81.873 0 00-5.993-30.733h39.367z"/><path d="M-149.8-131.692c4.161 0 7.535-3.358 7.535-7.501 0-4.142-3.374-7.5-7.535-7.5h-18.49c-4.728 0-8.575 3.829-8.575 8.536v266.252c0 4.708 3.847 8.537 8.575 8.537h446.997c4.729 0 8.576-3.829 8.576-8.537v-266.252c0-4.707-3.847-8.536-8.576-8.536h-393.344c-4.161 0-7.535 3.358-7.535 7.5 0 4.143 3.374 7.501 7.535 7.501h386.85v253.323h-434.008v-253.323h11.995z"/><path d="M299.028-171.693H-188.61c-7.373 0-13.371 5.971-13.371 13.31v306.705c0 7.339 5.998 13.31 13.371 13.31H18.97a66.96 66.96 0 016.887 21.864h-74.805c-4.765 0-9.104 2.41-11.606 6.448l-26.22 42.318a13.54 13.54 0 00-2.029 7.123v18.738c0 7.484 6.117 13.572 13.635 13.572h260.754c7.518 0 13.635-6.088 13.635-13.572v-18.738a13.54 13.54 0 00-2.03-7.125l-26.219-42.315c-2.501-4.038-6.841-6.449-11.607-6.449H84.56a66.977 66.977 0 016.888-21.864h134.749c4.162 0 7.535-3.358 7.535-7.5 0-4.142-3.373-7.5-7.535-7.5h-413.109v-303.325h484.241v303.325h-35.968c-4.162 0-7.535 3.358-7.535 7.5 0 4.142 3.373 7.5 7.535 7.5h37.666c7.373 0 13.372-5.971 13.372-13.31v-306.706c0-7.339-5.999-13.309-13.371-13.309zM178.186 230.163H8.617c-4.161 0-7.535 3.358-7.535 7.5 0 4.142 3.374 7.5 7.535 7.5h175.535v11.531H-73.734v-11.531h47.187c4.162 0 7.535-3.358 7.535-7.5 0-4.142-3.373-7.5-7.535-7.5h-41.222l19.62-31.667h74.597v10.239c0 4.891 3.308 9.216 8.044 10.517a78.259 78.259 0 0041.43 0c4.738-1.3 8.046-5.626 8.046-10.517v-10.239h74.597l19.621 31.667zM74.893 161.632a81.858 81.858 0 00-5.994 30.733v13.175a63.117 63.117 0 01-27.38 0v-13.175a81.873 81.873 0 00-5.993-30.733h39.367z"/><path d="M-149.8-131.692c4.161 0 7.535-3.358 7.535-7.501 0-4.142-3.374-7.5-7.535-7.5h-18.49c-4.728 0-8.575 3.829-8.575 8.536v266.252c0 4.708 3.847 8.537 8.575 8.537h446.997c4.729 0 8.576-3.829 8.576-8.537v-266.252c0-4.707-3.847-8.536-8.576-8.536h-393.344c-4.161 0-7.535 3.358-7.535 7.5 0 4.143 3.374 7.501 7.535 7.501h386.85v253.323h-434.008v-253.323h11.995z"/><path d="M299.028-171.693H-188.61c-7.373 0-13.371 5.971-13.371 13.31v306.705c0 7.339 5.998 13.31 13.371 13.31H18.97a66.96 66.96 0 016.887 21.864h-74.805c-4.765 0-9.104 2.41-11.606 6.448l-26.22 42.318a13.54 13.54 0 00-2.029 7.123v18.738c0 7.484 6.117 13.572 13.635 13.572h260.754c7.518 0 13.635-6.088 13.635-13.572v-18.738a13.54 13.54 0 00-2.03-7.125l-26.219-42.315c-2.501-4.038-6.841-6.449-11.607-6.449H84.56a66.977 66.977 0 016.888-21.864h134.749c4.162 0 7.535-3.358 7.535-7.5 0-4.142-3.373-7.5-7.535-7.5h-413.109v-303.325h484.241v303.325h-35.968c-4.162 0-7.535 3.358-7.535 7.5 0 4.142 3.373 7.5 7.535 7.5h37.666c7.373 0 13.372-5.971 13.372-13.31v-306.706c0-7.339-5.999-13.309-13.371-13.309zM178.186 230.163H8.617c-4.161 0-7.535 3.358-7.535 7.5 0 4.142 3.374 7.5 7.535 7.5h175.535v11.531H-73.734v-11.531h47.187c4.162 0 7.535-3.358 7.535-7.5 0-4.142-3.373-7.5-7.535-7.5h-41.222l19.62-31.667h74.597v10.239c0 4.891 3.308 9.216 8.044 10.517a78.259 78.259 0 0041.43 0c4.738-1.3 8.046-5.626 8.046-10.517v-10.239h74.597l19.621 31.667zM74.893 161.632a81.858 81.858 0 00-5.994 30.733v13.175a63.117 63.117 0 01-27.38 0v-13.175a81.873 81.873 0 00-5.993-30.733h39.367z"/><path d="M-149.8-131.692c4.161 0 7.535-3.358 7.535-7.501 0-4.142-3.374-7.5-7.535-7.5h-18.49c-4.728 0-8.575 3.829-8.575 8.536v266.252c0 4.708 3.847 8.537 8.575 8.537h446.997c4.729 0 8.576-3.829 8.576-8.537v-266.252c0-4.707-3.847-8.536-8.576-8.536h-393.344c-4.161 0-7.535 3.358-7.535 7.5 0 4.143 3.374 7.501 7.535 7.501h386.85v253.323h-434.008v-253.323h11.995z"/><path d="M299.028-171.693H-188.61c-7.373 0-13.371 5.971-13.371 13.31v306.705c0 7.339 5.998 13.31 13.371 13.31H18.97a66.96 66.96 0 016.887 21.864h-74.805c-4.765 0-9.104 2.41-11.606 6.448l-26.22 42.318a13.54 13.54 0 00-2.029 7.123v18.738c0 7.484 6.117 13.572 13.635 13.572h260.754c7.518 0 13.635-6.088 13.635-13.572v-18.738a13.54 13.54 0 00-2.03-7.125l-26.219-42.315c-2.501-4.038-6.841-6.449-11.607-6.449H84.56a66.977 66.977 0 016.888-21.864h134.749c4.162 0 7.535-3.358 7.535-7.5 0-4.142-3.373-7.5-7.535-7.5h-413.109v-303.325h484.241v303.325h-35.968c-4.162 0-7.535 3.358-7.535 7.5 0 4.142 3.373 7.5 7.535 7.5h37.666c7.373 0 13.372-5.971 13.372-13.31v-306.706c0-7.339-5.999-13.309-13.371-13.309zM178.186 230.163H8.617c-4.161 0-7.535 3.358-7.535 7.5 0 4.142 3.374 7.5 7.535 7.5h175.535v11.531H-73.734v-11.531h47.187c4.162 0 7.535-3.358 7.535-7.5 0-4.142-3.373-7.5-7.535-7.5h-41.222l19.62-31.667h74.597v10.239c0 4.891 3.308 9.216 8.044 10.517a78.259 78.259 0 0041.43 0c4.738-1.3 8.046-5.626 8.046-10.517v-10.239h74.597l19.621 31.667zM74.893 161.632a81.858 81.858 0 00-5.994 30.733v13.175a63.117 63.117 0 01-27.38 0v-13.175a81.873 81.873 0 00-5.993-30.733h39.367z"/><path d="M-149.8-131.692c4.161 0 7.535-3.358 7.535-7.501 0-4.142-3.374-7.5-7.535-7.5h-18.49c-4.728 0-8.575 3.829-8.575 8.536v266.252c0 4.708 3.847 8.537 8.575 8.537h446.997c4.729 0 8.576-3.829 8.576-8.537v-266.252c0-4.707-3.847-8.536-8.576-8.536h-393.344c-4.161 0-7.535 3.358-7.535 7.5 0 4.143 3.374 7.501 7.535 7.501h386.85v253.323h-434.008v-253.323h11.995z"/><path d="M299.028-171.693H-188.61c-7.373 0-13.371 5.971-13.371 13.31v306.705c0 7.339 5.998 13.31 13.371 13.31H18.97a66.96 66.96 0 016.887 21.864h-74.805c-4.765 0-9.104 2.41-11.606 6.448l-26.22 42.318a13.54 13.54 0 00-2.029 7.123v18.738c0 7.484 6.117 13.572 13.635 13.572h260.754c7.518 0 13.635-6.088 13.635-13.572v-18.738a13.54 13.54 0 00-2.03-7.125l-26.219-42.315c-2.501-4.038-6.841-6.449-11.607-6.449H84.56a66.977 66.977 0 016.888-21.864h134.749c4.162 0 7.535-3.358 7.535-7.5 0-4.142-3.373-7.5-7.535-7.5h-413.109v-303.325h484.241v303.325h-35.968c-4.162 0-7.535 3.358-7.535 7.5 0 4.142 3.373 7.5 7.535 7.5h37.666c7.373 0 13.372-5.971 13.372-13.31v-306.706c0-7.339-5.999-13.309-13.371-13.309zM178.186 230.163H8.617c-4.161 0-7.535 3.358-7.535 7.5 0 4.142 3.374 7.5 7.535 7.5h175.535v11.531H-73.734v-11.531h47.187c4.162 0 7.535-3.358 7.535-7.5 0-4.142-3.373-7.5-7.535-7.5h-41.222l19.62-31.667h74.597v10.239c0 4.891 3.308 9.216 8.044 10.517a78.259 78.259 0 0041.43 0c4.738-1.3 8.046-5.626 8.046-10.517v-10.239h74.597l19.621 31.667zM74.893 161.632a81.858 81.858 0 00-5.994 30.733v13.175a63.117 63.117 0 01-27.38 0v-13.175a81.873 81.873 0 00-5.993-30.733h39.367z"/><path d="M-149.8-131.692c4.161 0 7.535-3.358 7.535-7.501 0-4.142-3.374-7.5-7.535-7.5h-18.49c-4.728 0-8.575 3.829-8.575 8.536v266.252c0 4.708 3.847 8.537 8.575 8.537h446.997c4.729 0 8.576-3.829 8.576-8.537v-266.252c0-4.707-3.847-8.536-8.576-8.536h-393.344c-4.161 0-7.535 3.358-7.535 7.5 0 4.143 3.374 7.501 7.535 7.501h386.85v253.323h-434.008v-253.323h11.995z"/><path d="M299.028-171.693H-188.61c-7.373 0-13.371 5.971-13.371 13.31v306.705c0 7.339 5.998 13.31 13.371 13.31H18.97a66.96 66.96 0 016.887 21.864h-74.805c-4.765 0-9.104 2.41-11.606 6.448l-26.22 42.318a13.54 13.54 0 00-2.029 7.123v18.738c0 7.484 6.117 13.572 13.635 13.572h260.754c7.518 0 13.635-6.088 13.635-13.572v-18.738a13.54 13.54 0 00-2.03-7.125l-26.219-42.315c-2.501-4.038-6.841-6.449-11.607-6.449H84.56a66.977 66.977 0 016.888-21.864h134.749c4.162 0 7.535-3.358 7.535-7.5 0-4.142-3.373-7.5-7.535-7.5h-413.109v-303.325h484.241v303.325h-35.968c-4.162 0-7.535 3.358-7.535 7.5 0 4.142 3.373 7.5 7.535 7.5h37.666c7.373 0 13.372-5.971 13.372-13.31v-306.706c0-7.339-5.999-13.309-13.371-13.309zM178.186 230.163H8.617c-4.161 0-7.535 3.358-7.535 7.5 0 4.142 3.374 7.5 7.535 7.5h175.535v11.531H-73.734v-11.531h47.187c4.162 0 7.535-3.358 7.535-7.5 0-4.142-3.373-7.5-7.535-7.5h-41.222l19.62-31.667h74.597v10.239c0 4.891 3.308 9.216 8.044 10.517a78.259 78.259 0 0041.43 0c4.738-1.3 8.046-5.626 8.046-10.517v-10.239h74.597l19.621 31.667zM74.893 161.632a81.858 81.858 0 00-5.994 30.733v13.175a63.117 63.117 0 01-27.38 0v-13.175a81.873 81.873 0 00-5.993-30.733h39.367z"/><path d="M-149.8-131.692c4.161 0 7.535-3.358 7.535-7.501 0-4.142-3.374-7.5-7.535-7.5h-18.49c-4.728 0-8.575 3.829-8.575 8.536v266.252c0 4.708 3.847 8.537 8.575 8.537h446.997c4.729 0 8.576-3.829 8.576-8.537v-266.252c0-4.707-3.847-8.536-8.576-8.536h-393.344c-4.161 0-7.535 3.358-7.535 7.5 0 4.143 3.374 7.501 7.535 7.501h386.85v253.323h-434.008v-253.323h11.995z"/><path d="M299.028-171.693H-188.61c-7.373 0-13.371 5.971-13.371 13.31v306.705c0 7.339 5.998 13.31 13.371 13.31H18.97a66.96 66.96 0 016.887 21.864h-74.805c-4.765 0-9.104 2.41-11.606 6.448l-26.22 42.318a13.54 13.54 0 00-2.029 7.123v18.738c0 7.484 6.117 13.572 13.635 13.572h260.754c7.518 0 13.635-6.088 13.635-13.572v-18.738a13.54 13.54 0 00-2.03-7.125l-26.219-42.315c-2.501-4.038-6.841-6.449-11.607-6.449H84.56a66.977 66.977 0 016.888-21.864h134.749c4.162 0 7.535-3.358 7.535-7.5 0-4.142-3.373-7.5-7.535-7.5h-413.109v-303.325h484.241v303.325h-35.968c-4.162 0-7.535 3.358-7.535 7.5 0 4.142 3.373 7.5 7.535 7.5h37.666c7.373 0 13.372-5.971 13.372-13.31v-306.706c0-7.339-5.999-13.309-13.371-13.309zM178.186 230.163H8.617c-4.161 0-7.535 3.358-7.535 7.5 0 4.142 3.374 7.5 7.535 7.5h175.535v11.531H-73.734v-11.531h47.187c4.162 0 7.535-3.358 7.535-7.5 0-4.142-3.373-7.5-7.535-7.5h-41.222l19.62-31.667h74.597v10.239c0 4.891 3.308 9.216 8.044 10.517a78.259 78.259 0 0041.43 0c4.738-1.3 8.046-5.626 8.046-10.517v-10.239h74.597l19.621 31.667zM74.893 161.632a81.858 81.858 0 00-5.994 30.733v13.175a63.117 63.117 0 01-27.38 0v-13.175a81.873 81.873 0 00-5.993-30.733h39.367z"/><path d="M-149.8-131.692c4.161 0 7.535-3.358 7.535-7.501 0-4.142-3.374-7.5-7.535-7.5h-18.49c-4.728 0-8.575 3.829-8.575 8.536v266.252c0 4.708 3.847 8.537 8.575 8.537h446.997c4.729 0 8.576-3.829 8.576-8.537v-266.252c0-4.707-3.847-8.536-8.576-8.536h-393.344c-4.161 0-7.535 3.358-7.535 7.5 0 4.143 3.374 7.501 7.535 7.501h386.85v253.323h-434.008v-253.323h11.995z"/></g></g><defs><clipPath id="clip0"><path fill="#fff" transform="rotate(90 -2.417 23.153)" d="M0 0h10.178v7.157H0z"/></clipPath><clipPath id="clip1"><path fill="#fff" transform="matrix(.65079 .75926 -.76222 .64732 16.114 55)" d="M0 0h8.016v8.022H0z"/></clipPath><clipPath id="clip2"><path fill="#fff" transform="matrix(.67053 -.74188 .74495 .66712 13.013 17.947)" d="M0 0h8.017v8.021H0z"/></clipPath><clipPath id="clip3"><path fill="#fff" transform="rotate(-68.348 57.384 14.15) skewX(.181)" d="M0 0h8.89v8.92H0z"/></clipPath><clipPath id="clip4"><path fill="#fff" transform="matrix(.50173 .86502 -.86702 .49827 45.09 55)" d="M0 0h8.009v8.028H0z"/></clipPath><clipPath id="clip5"><path fill="#fff" transform="matrix(.4989 .86666 -.86864 .49544 63.188 35)" d="M0 0h8.009v8.028H0z"/></clipPath><clipPath id="clip6"><path fill="#fff" transform="rotate(14.934 -29.93 178.435) skewX(-.132)" d="M0 0h8.035v8.003H0z"/></clipPath><clipPath id="clip7"><path fill="#fff" transform="matrix(.826 -.5657 .56796 .82167 -306.81 -45.158)" d="M0 0h513.036v513.359H0z"/></clipPath><clipPath id="clip8"><path fill="#fff" transform="matrix(.49623 .8682 -.87015 .49278 60.042 23.727)" d="M0 0h7.008v7.025H0z"/></clipPath><clipPath id="clip9"><path fill="#fff" transform="rotate(-2.075 1359.133 -1388.384) skewX(.019)" d="M0 0h9.042v9H0z"/></clipPath><clipPath id="clip10"><path fill="#fff" transform="translate(-201.981 -206.005)" d="M0 0h514.374v512.018H0z"/></clipPath><filter id="filter0_d" x="62.3" y="21.95" width="266.662" height="52.3" filterUnits="userSpaceOnUse" color-interpolation-filters="sRGB"><feFlood flood-opacity="0" result="BackgroundImageFix"/><feColorMatrix in="SourceAlpha" values="0 0 0 0 0 0 0 0 0 0 0 0 0 0 0 0 0 0 127 0"/><feOffset/><feGaussianBlur stdDeviation="5"/><feColorMatrix values="0 0 0 0 0.972549 0 0 0 0 0.596078 0 0 0 0 0.152941 0 0 0 1 0"/><feBlend in2="BackgroundImageFix" result="effect1_dropShadow"/><feBlend in="SourceGraphic" in2="effect1_dropShadow" result="shape"/></filter><filter id="filter1_d" x=".64" y="0" width="76.32" height="76" filterUnits="userSpaceOnUse" color-interpolation-filters="sRGB"><feFlood flood-opacity="0" result="BackgroundImageFix"/><feColorMatrix in="SourceAlpha" values="0 0 0 0 0 0 0 0 0 0 0 0 0 0 0 0 0 0 127 0"/><feOffset/><feGaussianBlur stdDeviation="5"/><feColorMatrix values="0 0 0 0 0.972549 0 0 0 0 0.596078 0 0 0 0 0.152941 0 0 0 1 0"/><feBlend in2="BackgroundImageFix" result="effect1_dropShadow"/><feBlend in="SourceGraphic" in2="effect1_dropShadow" result="shape"/></filter></defs></svg>