<svg width="400" height="150" viewBox="0 0 400 150" fill="none" xmlns="http://www.w3.org/2000/svg">
<rect width="400" height="150" fill="white"/>
<path d="M32.9229 63.6719H35.7354V85H32.9229V68.5645L22.4199 85H19.5928V63.6719H22.4199V80.1074L32.9229 63.6719ZM49.1533 73.4863C49.1533 72.7441 48.8701 72.1582 48.3037 71.7285C47.7373 71.2891 46.9609 71.0693 45.9746 71.0693C45.0176 71.0693 44.2168 71.3184 43.5723 71.8164C42.9375 72.3145 42.6201 72.9004 42.6201 73.5742H39.9248C39.9248 72.1973 40.501 71.0693 41.6533 70.1904C42.8057 69.3115 44.2461 68.8721 45.9746 68.8721C47.8301 68.8721 49.2754 69.2725 50.3105 70.0732C51.3457 70.8643 51.8633 71.9971 51.8633 73.4717C51.8633 74.1846 51.6484 74.8389 51.2188 75.4346C50.7891 76.0303 50.1787 76.5039 49.3877 76.8555C51.2334 77.4805 52.1562 78.7109 52.1562 80.5469C52.1562 82.002 51.5947 83.1543 50.4717 84.0039C49.3486 84.8535 47.8496 85.2783 45.9746 85.2783C44.1484 85.2783 42.6396 84.834 41.4482 83.9453C40.2666 83.0469 39.6758 81.8359 39.6758 80.3125H42.3711C42.3711 81.084 42.7129 81.748 43.3965 82.3047C44.0898 82.8516 44.9492 83.125 45.9746 83.125C47.0098 83.125 47.8447 82.8857 48.4795 82.4072C49.1143 81.9287 49.4316 81.3086 49.4316 80.5469C49.4316 79.6582 49.1631 79.0234 48.626 78.6426C48.0986 78.252 47.2734 78.0566 46.1504 78.0566H43.4404V75.7715H46.3848C48.2305 75.7227 49.1533 74.9609 49.1533 73.4863ZM54.9541 76.9287C54.9541 75.376 55.2568 73.9795 55.8623 72.7393C56.4775 71.499 57.3271 70.542 58.4111 69.8682C59.5049 69.1943 60.75 68.8574 62.1465 68.8574C64.3047 68.8574 66.0479 69.6045 67.376 71.0986C68.7139 72.5928 69.3828 74.5801 69.3828 77.0605V77.251C69.3828 78.7939 69.085 80.1807 68.4893 81.4111C67.9033 82.6318 67.0586 83.584 65.9551 84.2676C64.8613 84.9512 63.6016 85.293 62.1758 85.293C60.0273 85.293 58.2842 84.5459 56.9463 83.0518C55.6182 81.5576 54.9541 79.5801 54.9541 77.1191V76.9287ZM57.6787 77.251C57.6787 79.0088 58.084 80.4199 58.8945 81.4844C59.7148 82.5488 60.8086 83.0811 62.1758 83.0811C63.5527 83.0811 64.6465 82.5439 65.457 81.4697C66.2676 80.3857 66.6729 78.8721 66.6729 76.9287C66.6729 75.1904 66.2578 73.7842 65.4277 72.71C64.6074 71.626 63.5137 71.084 62.1465 71.084C60.8086 71.084 59.7295 71.6162 58.9092 72.6807C58.0889 73.7451 57.6787 75.2686 57.6787 77.251ZM79.7393 70.0586C81.7314 70.0586 83.3232 70.7275 84.5146 72.0654C85.7158 73.3936 86.3164 75.1465 86.3164 77.3242V77.5732C86.3164 79.0674 86.0283 80.4053 85.4521 81.5869C84.876 82.7588 84.0459 83.6719 82.9619 84.3262C81.8877 84.9707 80.6475 85.293 79.2412 85.293C77.1123 85.293 75.3984 84.585 74.0996 83.1689C72.8008 81.7432 72.1514 79.834 72.1514 77.4414V76.123C72.1514 72.793 72.7666 70.1465 73.9971 68.1836C75.2373 66.2207 77.0635 65.0244 79.4756 64.5947C80.8428 64.3506 81.7656 64.0527 82.2441 63.7012C82.7227 63.3496 82.9619 62.8662 82.9619 62.251H85.1885C85.1885 63.4717 84.9102 64.4238 84.3535 65.1074C83.8066 65.791 82.9277 66.2744 81.7168 66.5576L79.6953 67.0117C78.084 67.3926 76.873 68.0371 76.0625 68.9453C75.2617 69.8438 74.7393 71.0449 74.4951 72.5488C75.9307 70.8887 77.6787 70.0586 79.7393 70.0586ZM79.2119 72.2852C77.8838 72.2852 76.8291 72.7344 76.0479 73.6328C75.2666 74.5215 74.876 75.7568 74.876 77.3389V77.5732C74.876 79.2725 75.2666 80.6201 76.0479 81.6162C76.8389 82.6025 77.9033 83.0957 79.2412 83.0957C80.5889 83.0957 81.6533 82.5977 82.4346 81.6016C83.2158 80.6055 83.6064 79.1504 83.6064 77.2363C83.6064 75.7422 83.2109 74.5459 82.4199 73.6475C81.6387 72.7393 80.5693 72.2852 79.2119 72.2852ZM102.488 77.251C102.488 79.6631 101.937 81.6064 100.833 83.0811C99.7295 84.5557 98.2354 85.293 96.3506 85.293C94.4268 85.293 92.9131 84.6826 91.8096 83.4619V91.0938H89.0996V69.1504H91.5752L91.707 70.9082C92.8105 69.541 94.3438 68.8574 96.3066 68.8574C98.2109 68.8574 99.7148 69.5752 100.818 71.0107C101.932 72.4463 102.488 74.4434 102.488 77.002V77.251ZM99.7783 76.9434C99.7783 75.1562 99.3975 73.7451 98.6357 72.71C97.874 71.6748 96.8291 71.1572 95.501 71.1572C93.8604 71.1572 92.6299 71.8848 91.8096 73.3398V80.9131C92.6201 82.3584 93.8604 83.0811 95.5303 83.0811C96.8291 83.0811 97.8594 82.5684 98.6211 81.543C99.3926 80.5078 99.7783 78.9746 99.7783 76.9434ZM115.73 85C115.574 84.6875 115.447 84.1309 115.35 83.3301C114.09 84.6387 112.586 85.293 110.838 85.293C109.275 85.293 107.991 84.8535 106.985 83.9746C105.989 83.0859 105.491 81.9629 105.491 80.6055C105.491 78.9551 106.116 77.6758 107.366 76.7676C108.626 75.8496 110.394 75.3906 112.669 75.3906H115.306V74.1455C115.306 73.1982 115.022 72.4463 114.456 71.8896C113.89 71.3232 113.055 71.04 111.951 71.04C110.984 71.04 110.174 71.2842 109.52 71.7725C108.865 72.2607 108.538 72.8516 108.538 73.5449H105.813C105.813 72.7539 106.092 71.9922 106.648 71.2598C107.215 70.5176 107.977 69.9316 108.934 69.502C109.9 69.0723 110.96 68.8574 112.112 68.8574C113.938 68.8574 115.369 69.3164 116.404 70.2344C117.439 71.1426 117.977 72.3975 118.016 73.999V81.2939C118.016 82.749 118.201 83.9062 118.572 84.7656V85H115.73ZM111.233 82.9346C112.083 82.9346 112.889 82.7148 113.65 82.2754C114.412 81.8359 114.964 81.2646 115.306 80.5615V77.3096H113.182C109.861 77.3096 108.201 78.2812 108.201 80.2246C108.201 81.0742 108.484 81.7383 109.051 82.2168C109.617 82.6953 110.345 82.9346 111.233 82.9346ZM134.905 78.1152H133.001V85H130.291V78.1152H128.387L123.948 85H120.521L126.189 76.7969L121.062 69.1504H124.344L128.431 75.7129H130.291V69.1504H133.001V75.7129H134.847L138.963 69.1504H142.244L137.103 76.8115L142.771 85H139.344L134.905 78.1152ZM151.517 85.293C149.368 85.293 147.62 84.5898 146.272 83.1836C144.925 81.7676 144.251 79.8779 144.251 77.5146V77.0166C144.251 75.4443 144.549 74.043 145.145 72.8125C145.75 71.5723 146.59 70.6055 147.664 69.9121C148.748 69.209 149.92 68.8574 151.18 68.8574C153.24 68.8574 154.842 69.5361 155.984 70.8936C157.127 72.251 157.698 74.1943 157.698 76.7236V77.8516H146.961C147 79.4141 147.454 80.6787 148.323 81.6455C149.202 82.6025 150.315 83.0811 151.663 83.0811C152.62 83.0811 153.431 82.8857 154.095 82.4951C154.759 82.1045 155.34 81.5869 155.838 80.9424L157.493 82.2314C156.165 84.2725 154.173 85.293 151.517 85.293ZM151.18 71.084C150.086 71.084 149.168 71.4844 148.426 72.2852C147.684 73.0762 147.225 74.1895 147.049 75.625H154.988V75.4199C154.91 74.043 154.539 72.9785 153.875 72.2266C153.211 71.4648 152.312 71.084 151.18 71.084ZM173.797 85H171.087V78.2324H163.807V85H161.082V69.1504H163.807V76.0205H171.087V69.1504H173.797V85ZM188.416 69.1504H191.126V85H188.416V73.4424L181.106 85H178.396V69.1504H181.106V80.7227L188.416 69.1504ZM202.054 85.293C199.905 85.293 198.157 84.5898 196.81 83.1836C195.462 81.7676 194.788 79.8779 194.788 77.5146V77.0166C194.788 75.4443 195.086 74.043 195.682 72.8125C196.287 71.5723 197.127 70.6055 198.201 69.9121C199.285 69.209 200.457 68.8574 201.717 68.8574C203.777 68.8574 205.379 69.5361 206.521 70.8936C207.664 72.251 208.235 74.1943 208.235 76.7236V77.8516H197.498C197.537 79.4141 197.991 80.6787 198.86 81.6455C199.739 82.6025 200.853 83.0811 202.2 83.0811C203.157 83.0811 203.968 82.8857 204.632 82.4951C205.296 82.1045 205.877 81.5869 206.375 80.9424L208.03 82.2314C206.702 84.2725 204.71 85.293 202.054 85.293ZM201.717 71.084C200.623 71.084 199.705 71.4844 198.963 72.2852C198.221 73.0762 197.762 74.1895 197.586 75.625H205.525V75.4199C205.447 74.043 205.076 72.9785 204.412 72.2266C203.748 71.4648 202.85 71.084 201.717 71.084ZM218.108 76.9287C218.108 75.376 218.411 73.9795 219.017 72.7393C219.632 71.499 220.481 70.542 221.565 69.8682C222.659 69.1943 223.904 68.8574 225.301 68.8574C227.459 68.8574 229.202 69.6045 230.53 71.0986C231.868 72.5928 232.537 74.5801 232.537 77.0605V77.251C232.537 78.7939 232.239 80.1807 231.644 81.4111C231.058 82.6318 230.213 83.584 229.109 84.2676C228.016 84.9512 226.756 85.293 225.33 85.293C223.182 85.293 221.438 84.5459 220.101 83.0518C218.772 81.5576 218.108 79.5801 218.108 77.1191V76.9287ZM220.833 77.251C220.833 79.0088 221.238 80.4199 222.049 81.4844C222.869 82.5488 223.963 83.0811 225.33 83.0811C226.707 83.0811 227.801 82.5439 228.611 81.4697C229.422 80.3857 229.827 78.8721 229.827 76.9287C229.827 75.1904 229.412 73.7842 228.582 72.71C227.762 71.626 226.668 71.084 225.301 71.084C223.963 71.084 222.884 71.6162 222.063 72.6807C221.243 73.7451 220.833 75.2686 220.833 77.251ZM247.391 71.3477H242.073V85H239.363V71.3477H234.148V69.1504H247.391V71.3477ZM255.213 83.0811C256.18 83.0811 257.024 82.7881 257.747 82.2021C258.47 81.6162 258.87 80.8838 258.948 80.0049H261.512C261.463 80.9131 261.15 81.7773 260.574 82.5977C259.998 83.418 259.227 84.0723 258.26 84.5605C257.303 85.0488 256.287 85.293 255.213 85.293C253.055 85.293 251.336 84.5752 250.057 83.1396C248.787 81.6943 248.152 79.7217 248.152 77.2217V76.7676C248.152 75.2246 248.436 73.8525 249.002 72.6514C249.568 71.4502 250.379 70.5176 251.434 69.8535C252.498 69.1895 253.753 68.8574 255.198 68.8574C256.976 68.8574 258.45 69.3896 259.622 70.4541C260.804 71.5186 261.434 72.9004 261.512 74.5996H258.948C258.87 73.5742 258.479 72.7344 257.776 72.0801C257.083 71.416 256.224 71.084 255.198 71.084C253.821 71.084 252.752 71.582 251.99 72.5781C251.238 73.5645 250.862 74.9951 250.862 76.8701V77.3828C250.862 79.209 251.238 80.6152 251.99 81.6016C252.742 82.5879 253.816 83.0811 255.213 83.0811ZM269.744 81.0303L273.436 69.1504H276.336L269.964 87.4463C268.978 90.083 267.41 91.4014 265.262 91.4014L264.749 91.3574L263.738 91.167V88.9697L264.471 89.0283C265.389 89.0283 266.102 88.8428 266.609 88.4717C267.127 88.1006 267.552 87.4219 267.884 86.4355L268.484 84.8242L262.83 69.1504H265.789L269.744 81.0303ZM290.545 71.3477H285.228V85H282.518V71.3477H277.303V69.1504H290.545V71.3477ZM298.367 83.0811C299.334 83.0811 300.179 82.7881 300.901 82.2021C301.624 81.6162 302.024 80.8838 302.103 80.0049H304.666C304.617 80.9131 304.305 81.7773 303.729 82.5977C303.152 83.418 302.381 84.0723 301.414 84.5605C300.457 85.0488 299.441 85.293 298.367 85.293C296.209 85.293 294.49 84.5752 293.211 83.1396C291.941 81.6943 291.307 79.7217 291.307 77.2217V76.7676C291.307 75.2246 291.59 73.8525 292.156 72.6514C292.723 71.4502 293.533 70.5176 294.588 69.8535C295.652 69.1895 296.907 68.8574 298.353 68.8574C300.13 68.8574 301.604 69.3896 302.776 70.4541C303.958 71.5186 304.588 72.9004 304.666 74.5996H302.103C302.024 73.5742 301.634 72.7344 300.931 72.0801C300.237 71.416 299.378 71.084 298.353 71.084C296.976 71.084 295.906 71.582 295.145 72.5781C294.393 73.5645 294.017 74.9951 294.017 76.8701V77.3828C294.017 79.209 294.393 80.6152 295.145 81.6016C295.896 82.5879 296.971 83.0811 298.367 83.0811ZM319.49 71.3477H314.173V85H311.463V71.3477H306.248V69.1504H319.49V71.3477ZM322.376 85V69.1504H328.558C330.667 69.1504 332.283 69.5215 333.406 70.2637C334.539 70.9961 335.105 72.0752 335.105 73.501C335.105 74.2334 334.886 74.8975 334.446 75.4932C334.007 76.0791 333.357 76.5283 332.498 76.8408C333.455 77.0654 334.222 77.5049 334.798 78.1592C335.384 78.8135 335.677 79.5947 335.677 80.5029C335.677 81.958 335.14 83.0713 334.065 83.8428C333.001 84.6143 331.492 85 329.539 85H322.376ZM325.086 78.042V82.8174H329.568C330.701 82.8174 331.546 82.6074 332.103 82.1875C332.669 81.7676 332.952 81.1768 332.952 80.415C332.952 78.833 331.79 78.042 329.466 78.042H325.086ZM325.086 75.874H328.587C331.126 75.874 332.396 75.1318 332.396 73.6475C332.396 72.1631 331.194 71.3965 328.792 71.3477H325.086V75.874ZM344.275 81.0303L347.967 69.1504H350.867L344.495 87.4463C343.509 90.083 341.941 91.4014 339.793 91.4014L339.28 91.3574L338.27 91.167V88.9697L339.002 89.0283C339.92 89.0283 340.633 88.8428 341.141 88.4717C341.658 88.1006 342.083 87.4219 342.415 86.4355L343.016 84.8242L337.361 69.1504H340.32L344.275 81.0303ZM359.671 85.293C357.522 85.293 355.774 84.5898 354.427 83.1836C353.079 81.7676 352.405 79.8779 352.405 77.5146V77.0166C352.405 75.4443 352.703 74.043 353.299 72.8125C353.904 71.5723 354.744 70.6055 355.818 69.9121C356.902 69.209 358.074 68.8574 359.334 68.8574C361.395 68.8574 362.996 69.5361 364.139 70.8936C365.281 72.251 365.853 74.1943 365.853 76.7236V77.8516H355.115C355.154 79.4141 355.608 80.6787 356.478 81.6455C357.356 82.6025 358.47 83.0811 359.817 83.0811C360.774 83.0811 361.585 82.8857 362.249 82.4951C362.913 82.1045 363.494 81.5869 363.992 80.9424L365.647 82.2314C364.319 84.2725 362.327 85.293 359.671 85.293ZM359.334 71.084C358.24 71.084 357.322 71.4844 356.58 72.2852C355.838 73.0762 355.379 74.1895 355.203 75.625H363.143V75.4199C363.064 74.043 362.693 72.9785 362.029 72.2266C361.365 71.4648 360.467 71.084 359.334 71.084ZM380.604 71.3477H375.286V85H372.576V71.3477H367.361V69.1504H380.604V71.3477Z" fill="black"/>
</svg>
