<svg width="200" height="80" viewBox="0 0 200 80" fill="none" xmlns="http://www.w3.org/2000/svg">
<rect width="200" height="80" fill="white"/>
<g clip-path="url(#clip0)">
<path d="M38.2279 36.354C38.2279 36.354 41.6862 31.5692 46.914 34.6831C46.914 34.6831 40.8015 17.3667 33.6436 29.4426C33.724 29.3667 38.9517 26.1008 38.2279 36.354V36.354Z" fill="#8B8C8C"/>
<path d="M52.7855 52.9875C52.7855 44.5571 47.9599 37.7976 47.9599 37.7976C45.8688 35.0634 43.4559 35.0634 43.4559 35.0634C40.8019 34.7596 38.8716 37.6457 38.8716 37.6457C37.3435 39.3925 35.8958 39.6204 35.0111 39.6204H33.483C32.5983 39.6963 31.1506 39.3925 29.6225 37.6457C29.6225 37.6457 27.6923 34.7596 25.0382 35.0634C25.0382 35.0634 22.6254 35.0634 20.5343 37.7976C20.5343 37.7976 19.73 38.9368 18.7649 40.8356C17.4781 43.6457 15.7891 47.9748 15.7891 52.9875C15.7891 52.9875 15.4674 61.4179 23.0275 53.8229C23.0275 53.8229 28.6574 46.9875 34.2873 46.9875C39.9172 46.9875 45.547 53.8229 45.547 53.8229C50.2118 58.4558 51.9008 57.0887 52.4638 55.3419C52.8659 54.2786 52.7855 52.9875 52.7855 52.9875Z" fill="#39BEE7"/>
<path d="M23.9121 39.0889H26.0836V45.6965H23.9121V39.0889Z" fill="white"/>
<path d="M40.4801 24.2023C37.7455 22.3035 28.1747 17.2149 21.6602 34.6073C21.6602 34.6073 23.6708 33.1643 26.3249 33.6959C27.6117 33.9238 29.0594 34.6833 30.5071 36.3542C30.5071 36.3542 32.8395 20.7845 41.2843 24.7339C41.2039 24.7339 40.9626 24.5061 40.4801 24.2023V24.2023Z" fill="#E61948"/>
<path d="M21.499 41.3672H28.4962V43.4178H21.499V41.3672Z" fill="white"/>
<path d="M43.376 41.1389C44.1312 41.1389 44.7433 40.5609 44.7433 39.8478C44.7433 39.1347 44.1312 38.5566 43.376 38.5566C42.6209 38.5566 42.0088 39.1347 42.0088 39.8478C42.0088 40.5609 42.6209 41.1389 43.376 41.1389Z" fill="white"/>
<path d="M43.376 46.1516C44.1312 46.1516 44.7433 45.5736 44.7433 44.8605C44.7433 44.1474 44.1312 43.5693 43.376 43.5693C42.6209 43.5693 42.0088 44.1474 42.0088 44.8605C42.0088 45.5736 42.6209 46.1516 43.376 46.1516Z" fill="white"/>
<path d="M40.7218 43.6458C41.4769 43.6458 42.089 43.0677 42.089 42.3546C42.089 41.6415 41.4769 41.0635 40.7218 41.0635C39.9666 41.0635 39.3545 41.6415 39.3545 42.3546C39.3545 43.0677 39.9666 43.6458 40.7218 43.6458Z" fill="white"/>
<path d="M46.0294 43.6458C46.7845 43.6458 47.3966 43.0677 47.3966 42.3546C47.3966 41.6415 46.7845 41.0635 46.0294 41.0635C45.2742 41.0635 44.6621 41.6415 44.6621 42.3546C44.6621 43.0677 45.2742 43.6458 46.0294 43.6458Z" fill="white"/>
<path d="M66.6184 46.0762C64.7686 46.0762 63.4817 45.9243 62.3557 45.6965C62.1145 45.6205 61.8732 45.4686 61.8732 45.2408V43.5699C61.8732 43.342 62.1145 43.1142 62.3557 43.1142H62.4362C63.4013 43.1901 65.8141 43.342 66.6988 43.342C68.8703 43.342 69.5137 42.5826 69.5137 41.2914C69.5137 40.38 69.0312 39.9243 67.4226 39.0889L64.2056 37.2661C61.9536 36.0509 61.3906 34.6838 61.3906 33.0889C61.3906 30.5826 62.9187 28.7598 67.4226 28.7598C69.0312 28.7598 71.2027 28.9876 72.0874 29.1395C72.3287 29.2155 72.4895 29.3674 72.4895 29.5952V31.2661C72.4895 31.4939 72.3287 31.6458 72.0874 31.6458H72.007C70.3984 31.4939 68.7899 31.418 67.2618 31.418C65.4924 31.418 64.7686 32.0256 64.7686 33.0129C64.7686 33.7724 65.1707 34.2281 66.7792 35.0636L69.6746 36.5826C72.3287 37.9496 73.0525 39.4686 73.0525 41.2155C72.9721 43.5699 71.444 46.0762 66.6184 46.0762V46.0762ZM86.9664 31.5699H82.7038V45.3927C82.7038 45.6205 82.4625 45.8484 82.2212 45.8484H79.8084C79.5671 45.8484 79.3258 45.6205 79.3258 45.3927V31.5699H75.0632C74.8219 31.5699 74.5806 31.418 74.5806 31.1901V29.3674C74.5806 29.1395 74.8219 28.9117 75.0632 28.9117H86.886C87.1272 28.9117 87.3685 29.0636 87.3685 29.3674V31.1901C87.4489 31.418 87.2077 31.5699 86.9664 31.5699V31.5699ZM99.9955 45.7724C99.1913 45.8484 98.3066 46.0762 95.4112 46.0762C92.2746 46.0762 89.8618 45.2408 89.8618 41.4433V33.4686C89.8618 29.5952 92.2746 28.8357 95.4112 28.8357C98.3066 28.8357 99.1913 29.0636 99.9955 29.1395C100.317 29.2155 100.478 29.2914 100.478 29.5952V31.0382C100.478 31.2661 100.237 31.4939 99.9955 31.4939H95.0895C93.7222 31.4939 93.1593 31.9496 93.1593 33.4686V35.899H99.6738C99.9151 35.899 100.156 36.1269 100.156 36.3547V38.0256C100.156 38.2534 99.9151 38.4813 99.6738 38.4813H93.1593V41.4433C93.1593 42.9623 93.6418 43.418 95.0895 43.418H99.9955C100.237 43.418 100.478 43.6458 100.478 43.8737V45.3167C100.478 45.5446 100.398 45.6965 99.9955 45.7724V45.7724ZM116.644 45.8484H114.07C113.829 45.8484 113.668 45.6965 113.588 45.4686L112.462 41.1395H106.912L105.786 45.4686C105.706 45.6965 105.545 45.8484 105.304 45.8484H102.73C102.489 45.8484 102.328 45.6965 102.328 45.4686V45.3927L106.269 31.1142C106.832 28.9876 108.601 28.7598 109.647 28.7598C110.692 28.7598 112.381 28.9876 113.025 31.1142L116.966 45.3927V45.4686C117.046 45.6965 116.885 45.8484 116.644 45.8484ZM110.129 31.7977C110.049 31.4939 109.968 31.418 109.727 31.418C109.486 31.418 109.405 31.4939 109.325 31.7977L107.556 38.5572H111.818L110.129 31.7977V31.7977ZM134.418 45.8484H132.005C131.764 45.8484 131.603 45.6205 131.603 45.3927V34.8357C131.603 34.6838 131.603 34.6079 131.523 34.6079C131.523 34.6079 131.442 34.6838 131.442 34.7598L129.11 39.0889C128.949 39.3167 128.628 39.4686 128.306 39.4686H125.893C125.571 39.4686 125.25 39.3167 125.089 39.0889L122.756 34.7598C122.676 34.6838 122.676 34.6079 122.676 34.6079C122.596 34.6079 122.596 34.6838 122.596 34.8357V45.3927C122.596 45.6205 122.435 45.8484 122.193 45.8484H119.781C119.539 45.8484 119.378 45.7724 119.378 45.5446V29.8231C119.378 29.2914 119.781 28.9117 120.344 28.9117H122.354C122.756 28.9117 123.078 29.1395 123.239 29.4433L126.778 36.4307C126.858 36.6585 126.939 36.7344 127.019 36.7344C127.099 36.7344 127.18 36.6585 127.26 36.4307L130.879 29.4433C131.04 29.1395 131.362 28.9117 131.764 28.9117H133.775C134.338 28.9117 134.74 29.2914 134.74 29.8231V45.5446C134.82 45.7724 134.66 45.8484 134.418 45.8484ZM143.748 46.0762C141.818 46.0762 140.289 46.0003 139.566 45.8484C138.761 45.6965 138.44 45.4686 138.44 44.6332V30.2028C138.44 29.3674 138.761 29.0636 139.566 28.9876C140.209 28.9117 141.737 28.7598 143.587 28.7598C147.93 28.7598 150.986 29.975 150.986 33.3927V33.8484C150.986 35.3674 150.262 36.6585 148.734 37.2661C150.182 37.8737 151.067 39.0129 151.067 40.7598V41.1395C151.067 44.7851 148.252 46.0762 143.748 46.0762V46.0762ZM147.689 33.5446C147.689 31.9496 146.563 31.342 143.507 31.342C142.944 31.342 142.22 31.342 141.737 31.418V36.0509H144.793C147.045 36.0509 147.689 35.0636 147.689 33.8484V33.5446V33.5446ZM147.85 40.7598C147.85 39.5446 147.126 38.3294 144.874 38.3294H141.818V43.342C142.381 43.342 143.265 43.418 143.828 43.418C146.884 43.418 147.85 42.6585 147.85 41.0636V40.7598V40.7598ZM160.637 46.0762C156.777 46.0762 153.962 44.4813 153.962 39.6205V29.3674C153.962 29.1395 154.203 28.9117 154.445 28.9117H156.857C157.099 28.9117 157.34 29.0636 157.34 29.3674V39.6205C157.34 42.2028 157.983 43.418 160.637 43.418C163.292 43.418 163.935 42.2028 163.935 39.6205V29.3674C163.935 29.1395 164.176 28.9117 164.418 28.9117H166.83C167.072 28.9117 167.313 29.0636 167.313 29.3674V39.6205C167.232 44.4813 164.498 46.0762 160.637 46.0762V46.0762ZM183.157 29.4433L179.457 37.342C178.975 38.3294 178.492 38.7851 178.01 39.0129V45.3927C178.01 45.6205 177.849 45.8484 177.527 45.8484H175.114C174.873 45.8484 174.632 45.6205 174.632 45.3927V39.0129C174.069 38.7851 173.586 38.3294 173.184 37.342L169.565 29.4433C169.565 29.3674 169.484 29.2914 169.484 29.2914C169.484 29.1395 169.645 28.9876 169.887 28.9876H172.541C172.782 28.9876 172.943 29.1395 173.023 29.3674L175.919 36.1269C176.079 36.5066 176.24 36.5826 176.321 36.5826C176.401 36.5826 176.562 36.5066 176.723 36.1269L179.618 29.3674C179.699 29.2155 179.859 28.9876 180.101 28.9876H182.755C182.996 28.9876 183.157 29.1395 183.157 29.2914V29.4433V29.4433Z" fill="#39BEE7"/>
<path d="M67.504 56.1008C67.504 56.1767 67.4235 56.2527 67.3431 56.2527H67.2627C67.1823 56.2527 67.1018 56.1767 67.1018 56.1008V51.7716C67.1018 51.6957 67.1018 51.6197 67.0214 51.6197C66.941 51.6197 66.941 51.6957 66.8606 51.7716L65.6542 53.7463C65.4933 54.0501 65.3325 54.0501 65.1716 54.0501C65.0107 54.0501 64.8499 54.0501 64.689 53.7463L63.4022 51.6957C63.3218 51.6197 63.3218 51.6197 63.2413 51.6197C63.1609 51.6197 63.1609 51.6957 63.1609 51.7716V56.1008C63.1609 56.1767 63.0805 56.2527 63.0001 56.2527H62.9196C62.8392 56.2527 62.7588 56.1767 62.7588 56.1008V51.7716C62.7588 51.3919 63.0001 51.3159 63.2413 51.3159C63.4022 51.3159 63.5631 51.3919 63.7239 51.6197L64.9303 53.6704C65.0107 53.7463 65.0107 53.8223 65.0912 53.8223C65.1716 53.8223 65.1716 53.7463 65.252 53.6704L66.4584 51.6197C66.6193 51.3919 66.7801 51.3159 66.941 51.3159C67.1823 51.3159 67.4235 51.3919 67.4235 51.7716L67.504 56.1008V56.1008ZM72.0079 56.1767C71.847 56.1767 71.7666 56.1008 71.7666 56.0248V55.797C71.284 56.0248 70.7211 56.2527 70.1581 56.2527C69.4342 56.2527 68.7104 55.9489 68.7104 54.8096V54.6577C68.7104 53.7463 69.3538 53.2147 71.1232 53.2147H71.847V52.9109C71.847 51.9235 71.5253 51.6197 70.6406 51.6197C69.9972 51.6197 69.7559 51.6957 69.2734 51.6957H69.1929C69.1125 51.6957 69.0321 51.6197 69.0321 51.5438V51.4678C69.0321 51.3919 69.1125 51.3159 69.2734 51.3159C69.6755 51.24 69.9972 51.24 70.6406 51.24C71.9275 51.24 72.2492 51.9235 72.2492 52.9109V56.0248C72.2492 56.1008 72.1687 56.1767 72.0079 56.1767V56.1767ZM71.7666 53.5944H71.0428C69.5951 53.5944 69.1125 53.8982 69.1125 54.6577V54.8096C69.1125 55.6451 69.5951 55.9489 70.1581 55.9489C70.7211 55.9489 71.2036 55.797 71.847 55.4932L71.7666 53.5944V53.5944ZM74.5815 51.6957C74.099 51.6957 74.0186 51.8476 74.0186 52.2273V56.0248C74.0186 56.1008 73.9381 56.1767 73.8577 56.1767H73.7773C73.6968 56.1767 73.6164 56.1008 73.6164 56.0248V52.2273C73.6164 51.4678 74.099 51.3159 74.662 51.3159H75.9488C76.0292 51.3159 76.1097 51.3919 76.1097 51.4678V51.5438C76.1097 51.6197 76.0292 51.6957 75.9488 51.6957H74.5815V51.6957ZM80.2919 56.1767C80.131 56.1767 80.0506 56.1008 80.0506 56.0248V55.797C79.568 56.0248 79.005 56.2527 78.442 56.2527C77.7182 56.2527 76.9944 55.9489 76.9944 54.8096V54.6577C76.9944 53.7463 77.6378 53.2147 79.4072 53.2147H80.131V52.9109C80.131 51.9235 79.8093 51.6197 78.9246 51.6197C78.2812 51.6197 78.0399 51.6957 77.5573 51.6957H77.4769C77.3965 51.6957 77.3161 51.6197 77.3161 51.5438V51.4678C77.3161 51.3919 77.3965 51.3159 77.5573 51.3159C77.9595 51.24 78.2812 51.24 78.9246 51.24C80.2114 51.24 80.5331 51.9235 80.5331 52.9109V56.0248C80.5331 56.1008 80.4527 56.1767 80.2919 56.1767V56.1767ZM80.0506 53.5944H79.3267C77.8791 53.5944 77.3965 53.8982 77.3965 54.6577V54.8096C77.3965 55.6451 77.8791 55.9489 78.442 55.9489C79.005 55.9489 79.4876 55.797 80.131 55.4932L80.0506 53.5944ZM83.8306 53.4425C84.7958 53.4425 85.037 52.9868 85.037 52.4552V52.3792C85.037 51.6957 84.6349 51.4678 83.5089 51.4678C83.0264 51.4678 82.6242 51.5438 82.2221 51.5438C82.0613 51.5438 82.0613 51.4678 82.0613 51.3919V51.3159C82.0613 51.24 82.0613 51.1641 82.2221 51.1641C82.4634 51.0881 83.0264 51.0881 83.5089 51.0881C84.7153 51.0881 85.4392 51.3919 85.4392 52.3033V52.3792C85.4392 52.8349 85.1979 53.2906 84.7153 53.5185C85.3588 53.8223 85.4392 54.3539 85.4392 54.6577V54.7337C85.4392 55.721 84.7153 56.1767 83.5089 56.1767C83.0264 56.1767 82.4634 56.1008 82.2221 56.1008C82.0613 56.1008 82.0613 56.0248 82.0613 55.9489V55.8729C82.0613 55.797 82.0613 55.721 82.2221 55.721C82.7047 55.797 83.0264 55.797 83.5089 55.797C84.5545 55.797 85.037 55.4932 85.037 54.7337V54.6577C85.037 54.0501 84.7153 53.6704 83.8306 53.6704H82.2221C82.1417 53.6704 82.0613 53.5944 82.0613 53.5185C82.0613 53.4425 82.1417 53.3666 82.2221 53.3666L83.8306 53.4425ZM89.541 51.6197C89.7018 51.3159 89.7822 51.3159 90.0235 51.3159C90.2648 51.3159 90.4257 51.4678 90.4257 51.8476V56.0248C90.4257 56.1767 90.3452 56.1767 90.2648 56.1767H90.1844C90.1039 56.1767 90.0235 56.1008 90.0235 56.0248V51.8476C90.0235 51.7716 89.9431 51.7716 89.9431 51.8476L87.6911 55.8729C87.5303 56.1008 87.3694 56.1767 87.1281 56.1767C86.8869 56.1767 86.726 56.0248 86.726 55.6451V51.4678C86.726 51.3159 86.8064 51.3159 86.8869 51.3159H86.9673C87.0477 51.3159 87.1281 51.3919 87.1281 51.4678V55.6451C87.1281 55.721 87.2086 55.721 87.2086 55.6451L89.541 51.6197ZM92.195 53.7463V56.0248C92.195 56.1008 92.1146 56.1767 92.0342 56.1767H91.9538C91.8733 56.1767 91.7929 56.1008 91.7929 56.0248V51.4678C91.7929 51.3919 91.8733 51.3159 91.9538 51.3159H92.0342C92.1146 51.3159 92.195 51.3919 92.195 51.4678V53.3666H95.01V51.4678C95.01 51.3919 95.0904 51.3159 95.1708 51.3159H95.2513C95.3317 51.3159 95.4121 51.3919 95.4121 51.4678V56.0248C95.4121 56.1008 95.3317 56.1767 95.2513 56.1767H95.1708C95.0904 56.1767 95.01 56.1008 95.01 56.0248V53.7463H92.195V53.7463ZM102.168 51.4678C102.168 51.3919 102.248 51.3159 102.329 51.3159H102.409C102.49 51.3159 102.57 51.3919 102.57 51.4678V55.2653C102.57 55.4932 102.49 55.6451 102.409 55.797H102.972C103.214 55.797 103.294 55.8729 103.294 56.1008V57.24C103.294 57.316 103.214 57.3919 103.133 57.3919H103.053C102.972 57.3919 102.892 57.316 102.892 57.24V56.1767H99.8356C99.353 56.1767 98.7901 56.0248 98.7901 55.2653V51.4678C98.7901 51.3919 98.8705 51.3159 98.9509 51.3159H99.0313C99.1118 51.3159 99.1922 51.3919 99.1922 51.4678V55.2653C99.1922 55.6451 99.353 55.797 99.7552 55.797H101.444C101.927 55.797 102.007 55.6451 102.007 55.2653L102.168 51.4678V51.4678ZM106.752 51.6197C106.913 51.3159 106.994 51.3159 107.235 51.3159C107.476 51.3159 107.637 51.4678 107.637 51.8476V56.0248C107.637 56.1767 107.557 56.1767 107.476 56.1767H107.396C107.315 56.1767 107.235 56.1008 107.235 56.0248V51.8476C107.235 51.7716 107.154 51.7716 107.154 51.8476L104.903 55.8729C104.742 56.1008 104.661 56.1767 104.42 56.1767C104.179 56.1767 104.018 56.0248 104.018 55.6451V51.4678C104.018 51.3159 104.098 51.3159 104.179 51.3159H104.259C104.34 51.3159 104.42 51.3919 104.42 51.4678V55.6451C104.42 55.721 104.5 55.721 104.5 55.6451L106.752 51.6197ZM108.763 53.4425C108.763 52.1514 109.165 51.24 110.693 51.24C111.095 51.24 111.417 51.3159 111.819 51.3919V49.6451C111.819 49.5691 111.9 49.4932 111.98 49.4932H112.06C112.141 49.4932 112.221 49.5691 112.221 49.6451V51.3919C112.543 51.3159 112.865 51.24 113.347 51.24C114.795 51.24 115.278 52.1514 115.278 53.4425V54.0501C115.278 55.4932 114.795 56.2527 113.347 56.2527C112.945 56.2527 112.623 56.1767 112.221 56.1008V57.7716C112.221 57.8476 112.141 57.9235 112.06 57.9235H111.98C111.9 57.9235 111.819 57.8476 111.819 57.7716V56.1008C111.417 56.1767 111.095 56.2527 110.693 56.2527C109.326 56.2527 108.763 55.4932 108.763 54.0501V53.4425ZM109.246 54.0501C109.246 55.2653 109.567 55.8729 110.693 55.8729C111.095 55.8729 111.417 55.797 111.819 55.721V51.6957C111.498 51.6197 111.176 51.5438 110.693 51.5438C109.487 51.5438 109.246 52.2273 109.246 53.3666V54.0501V54.0501ZM114.795 53.4425C114.795 52.2273 114.554 51.6197 113.347 51.6197C112.865 51.6197 112.623 51.6957 112.221 51.7716V55.797C112.623 55.8729 112.945 55.9489 113.347 55.9489C114.473 55.9489 114.795 55.3413 114.795 54.1261V53.4425V53.4425ZM118.173 56.2527C117.771 56.2527 117.208 56.1767 116.806 56.1008V57.7716C116.806 57.8476 116.725 57.9235 116.645 57.9235H116.564C116.484 57.9235 116.404 57.8476 116.404 57.7716V51.6197C116.404 51.5438 116.404 51.4678 116.564 51.4678C116.967 51.3919 117.61 51.3159 118.173 51.3159C119.54 51.3159 120.023 52.2273 120.023 53.5185V54.1261C120.103 55.4932 119.46 56.2527 118.173 56.2527V56.2527ZM119.621 53.4425C119.621 52.2273 119.218 51.6197 118.173 51.6197C117.69 51.6197 117.208 51.6957 116.806 51.7716V55.797C117.208 55.8729 117.771 55.9489 118.173 55.9489C119.218 55.9489 119.621 55.3413 119.621 54.1261V53.4425V53.4425ZM123.159 56.2527C121.873 56.2527 121.149 55.4172 121.149 54.0501V53.4425C121.149 52.0754 121.792 51.24 123.159 51.24C124.527 51.24 125.17 52.0754 125.17 53.4425V54.0501C125.09 55.4172 124.446 56.2527 123.159 56.2527ZM124.688 53.4425C124.688 52.3033 124.285 51.6197 123.159 51.6197C122.033 51.6197 121.631 52.3033 121.631 53.4425V54.0501C121.631 55.1894 122.033 55.8729 123.159 55.8729C124.285 55.8729 124.688 55.1894 124.688 54.0501V53.4425ZM129.272 53.6704C129.915 53.8982 130.076 54.4299 130.076 54.8096V54.8856C130.076 55.9489 129.111 56.3286 127.744 56.3286C127.342 56.3286 126.779 56.3286 126.457 56.2527C126.376 56.2527 126.296 56.2527 126.296 56.1767V51.4678C126.296 51.3919 126.376 51.3919 126.376 51.3919C126.698 51.3159 127.261 51.3159 127.744 51.3159C128.87 51.3159 129.996 51.4678 129.996 52.5311V52.6071C130.076 52.9868 129.835 53.4425 129.272 53.6704V53.6704ZM129.594 52.4552C129.594 51.6957 128.87 51.6197 127.744 51.6197H126.698V53.4425H128.065C128.789 53.4425 129.594 53.4425 129.594 52.4552V52.4552ZM129.674 54.7337C129.674 53.8223 128.789 53.8223 128.146 53.8223H126.779V55.8729H127.824C129.111 55.9489 129.674 55.5691 129.674 54.7337V54.7337ZM131.283 51.4678C131.283 51.3919 131.363 51.3159 131.443 51.3159H131.524C131.685 51.3159 131.685 51.3919 131.685 51.4678V53.1387H132.73C134.097 53.1387 135.063 53.5185 135.063 54.6577V54.8096C135.063 55.9489 134.097 56.3286 132.73 56.3286C132.328 56.3286 131.765 56.3286 131.443 56.2527C131.363 56.2527 131.283 56.2527 131.283 56.1767V51.4678ZM131.765 55.8729H132.811C134.178 55.8729 134.741 55.5691 134.741 54.7337V54.5818C134.741 53.7463 134.178 53.4425 132.811 53.4425H131.765V55.8729ZM136.591 56.1767H136.51C136.43 56.1767 136.349 56.1008 136.349 56.0248V51.4678C136.349 51.3919 136.43 51.3159 136.51 51.3159H136.591C136.671 51.3159 136.752 51.3919 136.752 51.4678V56.0248C136.752 56.1008 136.671 56.1767 136.591 56.1767ZM141.497 56.1767H141.416C141.336 56.1767 141.255 56.1767 141.255 56.1008L139.647 53.9742L138.038 56.1008C138.038 56.1767 137.958 56.1767 137.958 56.1767H137.797C137.717 56.1767 137.636 56.1008 137.636 56.1008C137.636 56.0248 137.636 56.0248 137.717 55.9489L139.406 53.6704L137.797 51.4678L137.717 51.3919C137.717 51.3159 137.797 51.24 137.878 51.24H137.958C138.038 51.24 138.119 51.3159 138.119 51.3159L139.647 53.2906L141.095 51.3159C141.095 51.24 141.255 51.24 141.255 51.24H141.336C141.416 51.24 141.497 51.3159 141.497 51.3159C141.497 51.3919 141.497 51.3919 141.416 51.4678L139.808 53.5944L141.497 55.8729V55.9489C141.658 56.1008 141.658 56.1767 141.497 56.1767V56.1767ZM148.413 51.4678V51.5438C148.413 51.6197 148.333 51.6957 148.253 51.6957H146.644V56.0248C146.644 56.1008 146.564 56.1767 146.483 56.1767H146.403C146.322 56.1767 146.242 56.1008 146.242 56.0248V51.6957H144.633C144.553 51.6957 144.473 51.6197 144.473 51.5438V51.4678C144.473 51.3919 144.553 51.3159 144.633 51.3159H148.172C148.333 51.3159 148.413 51.3919 148.413 51.4678V51.4678ZM151.309 56.2527C150.022 56.2527 149.298 55.4172 149.298 54.0501V53.4425C149.298 52.0754 149.942 51.24 151.309 51.24C152.676 51.24 153.32 52.0754 153.32 53.4425V54.0501C153.32 55.4172 152.676 56.2527 151.309 56.2527ZM152.917 53.4425C152.917 52.3033 152.515 51.6197 151.389 51.6197C150.263 51.6197 149.861 52.3033 149.861 53.4425V54.0501C149.861 55.1894 150.263 55.8729 151.389 55.8729C152.515 55.8729 152.917 55.1894 152.917 54.0501V53.4425ZM157.502 53.6704C158.145 53.8982 158.306 54.4299 158.306 54.8096V54.8856C158.306 55.9489 157.341 56.3286 155.974 56.3286C155.571 56.3286 155.008 56.3286 154.687 56.2527C154.606 56.2527 154.526 56.2527 154.526 56.1767V51.4678C154.526 51.3919 154.526 51.3919 154.606 51.3919C154.928 51.3159 155.491 51.3159 155.974 51.3159C157.1 51.3159 158.226 51.4678 158.226 52.5311V52.6071C158.226 52.9868 157.984 53.4425 157.502 53.6704V53.6704ZM157.823 52.4552C157.823 51.6957 157.019 51.6197 155.974 51.6197H154.928V53.4425H156.295C157.019 53.4425 157.823 53.4425 157.823 52.4552V52.4552ZM157.904 54.7337C157.904 53.8223 157.019 53.8223 156.376 53.8223H154.928V55.8729H155.974C157.341 55.9489 157.904 55.5691 157.904 54.7337V54.7337ZM162.649 56.1767C162.488 56.1767 162.408 56.1008 162.408 56.0248V55.797C161.925 56.0248 161.362 56.2527 160.799 56.2527C160.075 56.2527 159.352 55.9489 159.352 54.8096V54.6577C159.352 53.7463 159.995 53.2147 161.764 53.2147H162.488V52.9109C162.488 51.9235 162.166 51.6197 161.282 51.6197C160.638 51.6197 160.397 51.6957 159.915 51.6957C159.834 51.6957 159.754 51.6197 159.754 51.5438V51.4678C159.754 51.3919 159.834 51.3159 159.995 51.3159C160.397 51.24 160.719 51.24 161.362 51.24C162.649 51.24 162.971 51.9235 162.971 52.9109V56.0248C162.89 56.1008 162.81 56.1767 162.649 56.1767V56.1767ZM162.488 53.5944H161.764C160.317 53.5944 159.834 53.8982 159.834 54.6577V54.8096C159.834 55.6451 160.317 55.9489 160.88 55.9489C161.443 55.9489 161.925 55.797 162.488 55.4932V53.5944ZM166.027 56.2527C165.625 56.2527 165.062 56.1767 164.66 56.1008V57.7716C164.66 57.8476 164.579 57.9235 164.499 57.9235H164.418C164.338 57.9235 164.258 57.8476 164.258 57.7716V51.6197C164.258 51.5438 164.258 51.4678 164.418 51.4678C164.821 51.3919 165.464 51.3159 166.027 51.3159C167.394 51.3159 167.957 52.2273 167.957 53.5185V54.1261C167.877 55.4932 167.233 56.2527 166.027 56.2527V56.2527ZM167.475 53.4425C167.475 52.2273 167.073 51.6197 166.027 51.6197C165.544 51.6197 165.062 51.6957 164.66 51.7716V55.797C165.062 55.8729 165.625 55.9489 166.027 55.9489C167.073 55.9489 167.475 55.3413 167.475 54.1261V53.4425V53.4425ZM170.933 56.2527C169.646 56.2527 168.922 55.4172 168.922 54.0501V53.4425C168.922 52.0754 169.566 51.24 170.933 51.24C172.3 51.24 172.944 52.0754 172.944 53.4425V54.0501C172.944 55.4172 172.22 56.2527 170.933 56.2527ZM172.461 53.4425C172.461 52.3033 172.059 51.6197 170.933 51.6197C169.807 51.6197 169.405 52.3033 169.405 53.4425V54.0501C169.405 55.1894 169.807 55.8729 170.933 55.8729C172.059 55.8729 172.461 55.1894 172.461 54.0501V53.4425ZM177.045 53.6704C177.689 53.8982 177.85 54.4299 177.85 54.8096V54.8856C177.85 55.9489 176.885 56.3286 175.517 56.3286C175.115 56.3286 174.552 56.3286 174.231 56.2527C174.15 56.2527 174.07 56.2527 174.07 56.1767V51.4678C174.07 51.3919 174.07 51.3919 174.15 51.3919C174.472 51.3159 175.035 51.3159 175.517 51.3159C176.643 51.3159 177.769 51.4678 177.769 52.5311V52.6071C177.85 52.9868 177.608 53.4425 177.045 53.6704V53.6704ZM177.448 52.4552C177.448 51.6957 176.643 51.6197 175.598 51.6197H174.552V53.4425H175.919C176.643 53.4425 177.448 53.4425 177.448 52.4552V52.4552ZM177.448 54.7337C177.448 53.8223 176.563 53.8223 175.919 53.8223H174.552V55.8729H175.598C176.885 55.9489 177.448 55.5691 177.448 54.7337V54.7337Z" fill="black"/>
</g>
<defs>
<clipPath id="clip0">
<rect width="167.368" height="36" fill="white" transform="translate(15.7891 22)"/>
</clipPath>
</defs>
</svg>
