<svg width="200" height="80" viewBox="0 0 200 80" fill="none" xmlns="http://www.w3.org/2000/svg">
<rect width="200" height="80" fill="white"/>
<g clip-path="url(#clip0)">
<path d="M102.659 42.7921C102.659 44.6823 100.917 45.9711 98.1669 45.9711C96.425 45.9711 95.0498 45.6274 94.0414 45.1978C93.7664 45.1119 93.583 44.8541 93.583 44.5105C93.583 44.1668 93.858 43.8231 94.3164 43.8231C94.4081 43.8231 94.4998 43.8231 94.6831 43.909C95.5082 44.2527 96.6084 44.5964 98.1669 44.5964C99.9087 44.5964 101.192 44.1668 101.192 42.7062C101.192 40.3004 93.7664 41.5892 93.7664 37.551C93.7664 35.7467 95.3249 34.2002 98.2585 34.2002C99.6337 34.2002 100.826 34.372 101.742 34.7157C102.017 34.8016 102.201 34.9735 102.201 35.4031C102.201 35.7467 101.926 36.0904 101.467 36.0904C101.376 36.0904 101.284 36.0904 101.192 36.0045C100.367 35.7467 99.4503 35.5749 98.3502 35.5749C96.6084 35.5749 95.2332 36.1763 95.2332 37.4651C95.2332 40.3004 102.659 38.4961 102.659 42.7921Z" fill="#201600"/>
<path d="M113.201 35.0594C113.201 35.489 112.835 35.7468 112.468 35.7468H108.893V45.1978C108.893 45.6274 108.526 45.9711 108.068 45.9711C107.609 45.9711 107.242 45.6274 107.242 45.1978V35.7468H103.667C103.209 35.7468 102.934 35.489 102.934 35.0594C102.934 34.6298 103.209 34.3721 103.667 34.3721H112.376C112.835 34.3721 113.201 34.7157 113.201 35.0594Z" fill="#201600"/>
<path d="M123.745 45.1119C123.745 45.5415 123.378 45.7993 123.011 45.7993H116.044C115.585 45.7993 115.219 45.4556 115.219 45.026V35.1453C115.219 34.7157 115.585 34.3721 116.044 34.3721H123.011C123.47 34.3721 123.745 34.7157 123.745 35.0594C123.745 35.4031 123.378 35.7468 123.011 35.7468H116.777V39.3554H122.37C122.828 39.3554 123.103 39.699 123.103 40.0427C123.103 40.3864 122.736 40.7301 122.37 40.7301H116.777V44.3387H123.011C123.378 44.4246 123.745 44.7683 123.745 45.1119Z" fill="#201600"/>
<path d="M136.396 45.1978C136.396 45.6274 136.121 45.9711 135.571 45.9711C135.205 45.9711 134.93 45.7993 134.838 45.5415L133.738 42.9639H127.779L126.679 45.5415C126.495 45.7993 126.22 45.9711 125.945 45.9711C125.487 45.9711 125.12 45.6274 125.12 45.1978C125.12 45.1119 125.12 45.026 125.212 44.8542L129.704 34.9735C129.887 34.6298 130.162 34.2861 130.712 34.2861H130.896C131.446 34.2861 131.721 34.6298 131.904 34.9735L136.396 44.8542C136.305 44.9401 136.396 45.1119 136.396 45.1978ZM133.096 41.5033L130.712 36.1763L128.329 41.5033H133.096Z" fill="#201600"/>
<path d="M151.981 35.4031V45.1978C151.981 45.6274 151.615 45.9711 151.156 45.9711C150.698 45.9711 150.331 45.6274 150.331 45.1978V35.8327L146.389 45.1978C146.206 45.6274 145.747 45.8852 145.289 45.8852C144.739 45.8852 144.372 45.6274 144.189 45.1978L140.063 35.8327V45.1978C140.063 45.6274 139.697 45.9711 139.238 45.9711C138.78 45.9711 138.413 45.6274 138.413 45.1978V35.4031C138.413 34.8016 138.963 34.2861 139.513 34.2861H140.063C140.522 34.2861 140.98 34.5439 141.163 34.9735L145.106 44.2527L149.048 34.9735C149.231 34.5439 149.598 34.2861 150.148 34.2861H150.698C151.523 34.2861 151.981 34.8016 151.981 35.4031Z" fill="#201600"/>
<path d="M164.449 38.0666C164.449 39.785 163.349 41.6752 159.774 41.6752H156.565V45.1978C156.565 45.6274 156.199 45.9711 155.74 45.9711C155.282 45.9711 154.915 45.6274 154.915 45.1978V35.1453C154.915 34.7157 155.282 34.3721 155.74 34.3721H159.682C163.349 34.3721 164.449 36.2623 164.449 38.0666ZM162.891 38.0666C162.891 37.0356 162.249 35.8327 159.682 35.8327H156.657V40.3005H159.682C162.249 40.2146 162.891 39.0976 162.891 38.0666Z" fill="#201600"/>
<path d="M176.001 45.1978C176.001 45.6274 175.726 45.9711 175.176 45.9711C174.809 45.9711 174.534 45.7993 174.442 45.5415L173.342 42.9639H167.383L166.283 45.5415C166.1 45.7993 165.825 45.9711 165.55 45.9711C165.091 45.9711 164.725 45.6274 164.725 45.1978C164.725 45.1119 164.725 45.026 164.816 44.8542L169.308 34.9735C169.492 34.6298 169.767 34.2861 170.317 34.2861H170.5C171.05 34.2861 171.325 34.6298 171.509 34.9735L176.001 44.8542C176.001 44.9401 176.001 45.1119 176.001 45.1978ZM172.792 41.5033L170.409 36.1763L168.025 41.5033H172.792Z" fill="#201600"/>
<path d="M184.618 34.7157C184.802 34.458 184.985 34.3721 185.352 34.3721C185.81 34.3721 186.177 34.7157 186.085 35.1453C186.085 35.3172 185.993 35.489 185.902 35.5749L181.684 41.0737V45.1978C181.684 45.6274 181.318 45.9711 180.859 45.9711C180.401 45.9711 180.034 45.6274 180.034 45.1978V40.9878L175.817 35.489C175.725 35.3172 175.634 35.2312 175.634 35.0594C175.634 34.6298 175.909 34.2861 176.367 34.2861C176.642 34.2861 176.917 34.458 177.101 34.6298L180.768 39.6131L184.618 34.7157Z" fill="#201600"/>
<path d="M65.8963 58C65.713 58 65.4379 58 65.2546 58C64.1545 58 63.2377 57.0549 63.2377 56.0239C63.2377 54.9928 64.2461 54.1337 65.3463 54.1337C69.3801 54.3055 73.1388 52.9308 76.0725 50.3532C79.0062 47.7757 80.6564 44.3389 80.8397 40.5585C81.1147 32.8258 74.6057 26.2959 66.3547 26.0382C58.2871 25.7804 51.503 31.537 50.8612 39.0979C50.8612 39.1838 50.7696 40.7303 50.7696 40.9021C50.3112 50.3532 41.8769 57.8282 31.7924 57.8282C21.2495 57.8282 12.6318 49.8377 12.6318 39.957C12.6318 30.0764 21.2495 22 31.7924 22C32.8925 22 33.901 22.8592 33.901 23.9761C33.901 25.0931 32.9842 25.9523 31.7924 25.9523C23.5414 25.9523 16.7573 32.2243 16.7573 40.043C16.7573 47.8616 23.4498 54.1337 31.7924 54.1337C39.7683 54.1337 46.3691 48.2912 46.7358 40.8162C46.7358 40.6444 46.8274 39.0979 46.8274 39.0119C47.5609 29.2172 56.1785 21.9141 66.5381 22.2578C77.0809 22.6014 85.3319 30.9356 84.9652 40.8162C84.7818 45.6277 82.6733 50.0095 78.9145 53.2745C75.3391 56.3675 70.7552 58 65.8963 58Z" fill="url(#paint0_linear)"/>
<path d="M65.8957 37.5509C67.0602 37.5509 68.0043 36.6662 68.0043 35.5748C68.0043 34.4834 67.0602 33.5986 65.8957 33.5986C64.7312 33.5986 63.7871 34.4834 63.7871 35.5748C63.7871 36.6662 64.7312 37.5509 65.8957 37.5509Z" fill="#020202"/>
<path d="M65.8957 46.9161C67.0602 46.9161 68.0043 46.0314 68.0043 44.94C68.0043 43.8486 67.0602 42.9639 65.8957 42.9639C64.7312 42.9639 63.7871 43.8486 63.7871 44.94C63.7871 46.0314 64.7312 46.9161 65.8957 46.9161Z" fill="#020202"/>
<path d="M60.9455 42.1905C62.11 42.1905 63.0541 41.3058 63.0541 40.2144C63.0541 39.123 62.11 38.2383 60.9455 38.2383C59.781 38.2383 58.8369 39.123 58.8369 40.2144C58.8369 41.3058 59.781 42.1905 60.9455 42.1905Z" fill="#020202"/>
<path d="M70.9387 42.1905C72.1032 42.1905 73.0472 41.3058 73.0472 40.2144C73.0472 39.123 72.1032 38.2383 70.9387 38.2383C69.7741 38.2383 68.8301 39.123 68.8301 40.2144C68.8301 41.3058 69.7741 42.1905 70.9387 42.1905Z" fill="#020202"/>
<path d="M36.1011 38.2383C37.3846 38.2383 38.3014 39.1834 38.3014 40.3003C38.3014 41.5032 37.2929 42.3624 36.1011 42.3624H26.7501C25.4666 42.3624 24.5498 41.4173 24.5498 40.3003C24.5498 39.0975 25.5583 38.2383 26.7501 38.2383H36.1011Z" fill="#171717"/>
<path d="M29.1338 36.0904C29.1338 34.8875 30.1422 34.0283 31.334 34.0283C32.6175 34.0283 33.5343 34.9734 33.5343 36.0904V44.7682C33.5343 45.971 32.5258 46.8302 31.334 46.8302C30.0506 46.8302 29.1338 45.8851 29.1338 44.7682V36.0904Z" fill="#171717"/>
</g>
<defs>
<linearGradient id="paint0_linear" x1="12.6318" y1="40.021" x2="84.9704" y2="40.021" gradientUnits="userSpaceOnUse">
<stop offset="0.0842105" stop-color="#FF4547"/>
<stop offset="1" stop-color="#FF6E3D"/>
</linearGradient>
<clipPath id="clip0">
<rect width="174.737" height="36" fill="white" transform="translate(12.6318 22)"/>
</clipPath>
</defs>
</svg>
