<svg width="200" height="80" viewBox="0 0 200 80" fill="none" xmlns="http://www.w3.org/2000/svg">
<rect width="200" height="80" fill="white"/>
<g clip-path="url(#clip0)">
<path d="M89.4949 18.9386L88.5106 8.67676L98.5326 20.3282L89.4949 18.9386V18.9386ZM55.2234 58.3825L30.5264 40.9588L39.922 29.8418L55.6708 47.8L88.5106 8.67676L89.9423 18.2972L55.2234 58.3825V58.3825ZM55.8497 70.6753L30.5264 40.9588L55.2234 58.3825L90.0318 18.2972L98.5326 20.4351L55.8497 70.6753V70.6753Z" fill="#3AB54B"/>
<path d="M89.495 18.9386L98.5327 20.3282L88.5107 8.67676L89.495 18.9386Z" fill="#5CCC63"/>
<path d="M55.2234 58.3825L30.5264 40.9588L39.922 29.8418L55.6708 47.8L88.5106 8.67676L89.4949 18.9386L55.2234 58.3825Z" fill="#42D14E"/>
<path d="M104.527 37.1095C104.169 36.6819 103.632 36.4681 103.006 36.4681C102.38 36.4681 101.843 36.6819 101.485 37.0026C101.127 37.3232 100.948 37.7508 100.948 38.2853C100.948 38.7129 101.127 39.1404 101.574 39.568C102.022 39.8887 102.738 40.3163 103.811 40.7439C104.885 41.1714 105.69 41.599 106.406 42.0266C108.017 43.0955 108.912 44.6989 108.912 46.623C108.912 48.2264 108.375 49.4023 107.391 50.2574C106.406 51.1126 104.975 51.5402 103.274 51.5402C102.022 51.5402 100.948 51.3264 99.9636 50.7919C98.9793 50.2574 98.174 49.6161 97.7266 48.654C97.1897 47.7989 97.0107 46.7299 97.0107 45.5541H100.68C100.68 46.5161 100.858 47.1575 101.306 47.692C101.753 48.1195 102.38 48.3333 103.364 48.3333C103.99 48.3333 104.438 48.2264 104.796 47.9058C105.154 47.5851 105.333 47.1575 105.333 46.623C105.333 45.9817 105.154 45.5541 104.796 45.1265C104.438 44.6989 103.722 44.3783 102.827 44.0576C101.843 43.7369 101.127 43.3093 100.501 42.9886C98.5319 41.8128 97.5476 40.3163 97.5476 38.2853C97.5476 37.3232 97.8161 36.4681 98.2635 35.7198C98.7109 34.9716 99.4267 34.3302 100.322 34.0095C101.216 33.582 102.201 33.3682 103.364 33.3682C104.438 33.3682 105.422 33.582 106.317 34.0095C107.212 34.4371 107.838 35.0785 108.375 35.9336C108.822 36.7888 109.091 37.7508 109.091 38.8198H105.422C105.064 37.9646 104.885 37.4301 104.527 37.1095V37.1095ZM118.218 36.7888V51.2195H114.549V36.7888H110.075V33.4751H122.781V36.7888H118.218V36.7888ZM128.24 36.7888V40.5301H133.967V43.7369H128.24V48.0126H135.041V51.3264H124.571V33.4751H135.041V36.7888H128.24V36.7888ZM146.673 51.2195L145.778 47.9058H140.767L139.873 51.2195H135.935L141.483 33.4751H144.973L150.61 51.2195H146.673V51.2195ZM143.273 38.4991L141.662 44.6989H144.973L143.273 38.4991ZM164.659 51.2195V47.0506L165.017 38.606L161.348 51.2195H158.932L155.263 38.606L155.621 47.0506V51.2195H151.953V33.4751H156.785L160.185 45.8748L163.585 33.4751H168.417V51.2195H164.659V51.2195Z" fill="black"/>
<path d="M120.635 64.0469C120.545 63.94 120.545 63.7262 120.456 63.4055C120.008 63.8331 119.561 64.1538 118.934 64.1538C118.308 64.1538 117.861 63.94 117.503 63.6193C117.145 63.2986 116.966 62.7642 116.966 62.2297C116.966 61.5883 117.234 61.0539 117.682 60.6263C118.129 60.3056 118.755 60.0918 119.65 60.0918H120.456V59.6642C120.456 59.3435 120.366 59.0229 120.187 58.916C120.008 58.8091 119.74 58.5953 119.382 58.5953C119.113 58.5953 118.845 58.7022 118.666 58.8091C118.487 59.0229 118.398 59.1298 118.398 59.4504H117.055C117.055 59.1298 117.145 58.8091 117.413 58.4884C117.592 58.1677 117.95 57.9539 118.308 57.7401C118.666 57.5263 119.113 57.5263 119.561 57.5263C120.277 57.5263 120.814 57.7401 121.171 58.0608C121.619 58.3815 121.798 58.916 121.798 59.6642V62.5504C121.798 63.0848 121.887 63.6193 121.977 63.94V64.0469H120.635V64.0469ZM120.366 61.1607H119.65C119.203 61.1607 118.845 61.2676 118.577 61.4814C118.308 61.6952 118.219 61.909 118.219 62.2297C118.219 62.5504 118.308 62.7642 118.487 62.8711C118.666 63.0848 118.845 63.0848 119.113 63.0848C119.382 63.0848 119.65 62.9779 119.829 62.8711C120.008 62.7642 120.187 62.5504 120.366 62.3366V61.1607V61.1607ZM126.182 59.1298C126.003 58.916 125.735 58.8091 125.377 58.8091C124.93 58.8091 124.661 59.0229 124.393 59.3435C124.124 59.6642 124.035 60.1987 124.035 60.8401V61.0539C124.035 61.6952 124.124 62.2297 124.393 62.5504C124.661 62.871 124.93 63.0848 125.377 63.0848C125.735 63.0848 126.003 62.9779 126.182 62.7642C126.361 62.5504 126.54 62.3366 126.54 62.0159H127.793C127.793 62.4435 127.704 62.7642 127.435 63.0848C127.256 63.4055 126.898 63.7262 126.54 63.94C126.182 64.1538 125.825 64.2607 125.377 64.2607C124.572 64.2607 123.945 63.94 123.409 63.4055C122.961 62.8711 122.693 62.0159 122.693 61.0539V60.947C122.693 59.9849 122.961 59.2367 123.409 58.5953C123.856 58.0608 124.482 57.7401 125.377 57.7401C126.093 57.7401 126.63 57.9539 127.077 58.3815C127.525 58.8091 127.704 59.3435 127.793 60.0918H126.54C126.54 59.6642 126.361 59.3435 126.182 59.1298ZM132.088 59.1298C131.909 58.916 131.641 58.8091 131.283 58.8091C130.835 58.8091 130.567 59.0229 130.299 59.3435C130.03 59.6642 129.941 60.1987 129.941 60.8401V61.0539C129.941 61.6952 130.03 62.2297 130.299 62.5504C130.567 62.871 130.835 63.0848 131.283 63.0848C131.641 63.0848 131.909 62.9779 132.088 62.7642C132.267 62.5504 132.446 62.3366 132.446 62.0159H133.699C133.699 62.4435 133.609 62.7642 133.341 63.0848C133.162 63.4055 132.804 63.7262 132.446 63.94C132.088 64.1538 131.73 64.2607 131.283 64.2607C130.478 64.2607 129.851 63.94 129.314 63.4055C128.867 62.8711 128.598 62.0159 128.598 61.0539V60.947C128.598 59.9849 128.867 59.2367 129.314 58.5953C129.762 58.0608 130.388 57.7401 131.283 57.7401C131.999 57.7401 132.536 57.9539 132.983 58.3815C133.43 58.8091 133.609 59.3435 133.699 60.0918H132.446C132.446 59.6642 132.357 59.3435 132.088 59.1298ZM139.694 62.6573C139.515 63.1917 139.157 63.5124 138.71 63.8331C138.263 64.1538 137.815 64.2607 137.278 64.2607C136.473 64.2607 135.846 63.94 135.31 63.4055C134.862 62.7642 134.594 62.0159 134.594 61.0539V60.947C134.594 60.3056 134.683 59.7711 134.952 59.2366C135.22 58.7022 135.489 58.3815 135.936 58.0608C136.383 57.847 136.831 57.6332 137.368 57.6332C138.173 57.6332 138.799 57.9539 139.247 58.4884C139.694 59.0229 139.963 59.7711 140.052 60.6263V60.947C140.052 61.5883 139.963 62.2297 139.694 62.6573ZM138.352 59.3435C138.084 58.916 137.726 58.8091 137.368 58.8091C136.92 58.8091 136.562 59.0229 136.383 59.3435C136.115 59.6642 136.025 60.3056 136.025 60.947C136.025 61.5883 136.115 62.1228 136.383 62.4435C136.652 62.7642 137.01 62.9779 137.368 62.9779C137.726 62.9779 138.173 62.7642 138.352 62.4435C138.62 62.0159 138.71 61.4814 138.71 60.8401C138.71 60.1987 138.62 59.7711 138.352 59.3435ZM144.616 64.0469V63.4055C144.258 63.94 143.721 64.1538 143.005 64.1538C142.379 64.1538 141.931 63.94 141.573 63.5124C141.215 63.0848 141.126 62.5504 141.126 61.8021V57.7401H142.468V61.8021C142.468 62.6573 142.737 62.9779 143.363 62.9779C143.989 62.9779 144.437 62.7642 144.616 62.2297V57.6332H145.958V63.94H144.616V64.0469ZM150.521 64.0469V59.9849C150.521 59.5573 150.432 59.2367 150.253 59.1298C150.074 58.916 149.806 58.8091 149.448 58.8091C148.911 58.8091 148.553 59.0229 148.284 59.5573V64.0469H146.942V57.7401H148.195V58.4884C148.642 57.9539 149.179 57.6332 149.895 57.6332C151.148 57.6332 151.685 58.3815 151.774 59.878V64.0469H150.521V64.0469ZM155.085 62.8711C155.175 62.9779 155.354 63.0848 155.532 63.0848C155.711 63.0848 155.801 63.0848 155.98 62.9779V64.0469C155.711 64.1538 155.443 64.1538 155.085 64.1538C154.101 64.1538 153.564 63.5124 153.564 62.3366V58.7022H152.58V57.6332H153.564V56.1367H154.906V57.6332H155.89V58.7022H154.906V62.2297C154.996 62.5504 154.996 62.7642 155.085 62.8711V62.8711ZM158.127 63.94C158.038 64.0469 157.77 64.1538 157.591 64.1538C157.322 64.1538 157.143 64.0469 157.054 63.94C156.875 63.8331 156.875 63.6193 156.875 63.4055C156.875 63.1917 156.964 62.9779 157.054 62.8711C157.143 62.7642 157.412 62.6573 157.591 62.6573C157.859 62.6573 158.038 62.7642 158.127 62.8711C158.217 62.9779 158.306 63.1917 158.306 63.4055C158.396 63.6193 158.306 63.8331 158.127 63.94ZM162.423 59.0229H161.886C161.259 59.0229 160.901 59.2366 160.722 59.7711V64.1538H159.38V57.847H160.633V58.5953C160.991 58.0608 161.349 57.7401 161.975 57.7401C162.154 57.7401 162.333 57.7401 162.423 57.847V59.0229V59.0229ZM167.076 64.0469V63.4055C166.718 63.94 166.181 64.1538 165.465 64.1538C164.839 64.1538 164.391 63.94 164.033 63.5124C163.675 63.0848 163.586 62.5504 163.586 61.8021V57.7401H164.928V61.8021C164.928 62.6573 165.197 62.9779 165.823 62.9779C166.449 62.9779 166.897 62.7642 167.076 62.2297V57.6332H168.418V63.94H167.076V64.0469Z" fill="black"/>
</g>
<defs>
<clipPath id="clip0">
<rect width="137.895" height="62" fill="white" transform="translate(30.5264 8.67676)"/>
</clipPath>
</defs>
</svg>
