<svg width="190" height="80" viewBox="0 0 190 80" fill="none" xmlns="http://www.w3.org/2000/svg">
<rect width="190" height="80" fill="white"/>
<path d="M97.5256 42.7921C97.5256 44.6823 95.8708 45.9711 93.258 45.9711C91.6032 45.9711 90.2968 45.6274 89.3388 45.1978C89.0775 45.1119 88.9033 44.8541 88.9033 44.5105C88.9033 44.1668 89.1646 43.8231 89.6001 43.8231C89.6872 43.8231 89.7743 43.8231 89.9484 43.909C90.7323 44.2527 91.7774 44.5964 93.258 44.5964C94.9128 44.5964 96.1321 44.1668 96.1321 42.7062C96.1321 40.3004 89.0775 41.5892 89.0775 37.551C89.0775 35.7467 90.5581 34.2002 93.3451 34.2002C94.6515 34.2002 95.7837 34.372 96.6546 34.7157C96.9159 34.8016 97.0901 34.9735 97.0901 35.4031C97.0901 35.7467 96.8288 36.0904 96.3933 36.0904C96.3063 36.0904 96.2192 36.0904 96.1321 36.0045C95.3482 35.7467 94.4773 35.5749 93.4322 35.5749C91.7774 35.5749 90.471 36.1763 90.471 37.4651C90.471 40.3004 97.5256 38.4961 97.5256 42.7921Z" fill="#201600"/>
<path d="M107.542 35.0594C107.542 35.489 107.193 35.7468 106.845 35.7468H103.448V45.1978C103.448 45.6274 103.1 45.9711 102.664 45.9711C102.229 45.9711 101.88 45.6274 101.88 45.1978V35.7468H98.4839C98.0484 35.7468 97.7871 35.489 97.7871 35.0594C97.7871 34.6298 98.0484 34.3721 98.4839 34.3721H106.758C107.193 34.3721 107.542 34.7157 107.542 35.0594Z" fill="#201600"/>
<path d="M117.557 45.1119C117.557 45.5415 117.208 45.7993 116.86 45.7993H110.241C109.805 45.7993 109.457 45.4556 109.457 45.026V35.1453C109.457 34.7157 109.805 34.3721 110.241 34.3721H116.86C117.295 34.3721 117.557 34.7157 117.557 35.0594C117.557 35.4031 117.208 35.7468 116.86 35.7468H110.938V39.3554H116.25C116.686 39.3554 116.947 39.699 116.947 40.0427C116.947 40.3864 116.599 40.7301 116.25 40.7301H110.938V44.3387H116.86C117.208 44.4246 117.557 44.7683 117.557 45.1119Z" fill="#201600"/>
<path d="M129.576 45.1978C129.576 45.6274 129.314 45.9711 128.792 45.9711C128.444 45.9711 128.182 45.7993 128.095 45.5415L127.05 42.9639H121.389L120.344 45.5415C120.17 45.7993 119.908 45.9711 119.647 45.9711C119.212 45.9711 118.863 45.6274 118.863 45.1978C118.863 45.1119 118.863 45.026 118.95 44.8542L123.218 34.9735C123.392 34.6298 123.653 34.2861 124.176 34.2861H124.35C124.873 34.2861 125.134 34.6298 125.308 34.9735L129.576 44.8542C129.489 44.9401 129.576 45.1119 129.576 45.1978ZM126.44 41.5033L124.176 36.1763L121.912 41.5033H126.44Z" fill="#201600"/>
<path d="M144.382 35.4031V45.1978C144.382 45.6274 144.034 45.9711 143.598 45.9711C143.163 45.9711 142.814 45.6274 142.814 45.1978V35.8327L139.069 45.1978C138.895 45.6274 138.46 45.8852 138.024 45.8852C137.502 45.8852 137.153 45.6274 136.979 45.1978L133.06 35.8327V45.1978C133.06 45.6274 132.712 45.9711 132.276 45.9711C131.841 45.9711 131.492 45.6274 131.492 45.1978V35.4031C131.492 34.8016 132.015 34.2861 132.537 34.2861H133.06C133.495 34.2861 133.931 34.5439 134.105 34.9735L137.85 44.2527L141.595 34.9735C141.769 34.5439 142.118 34.2861 142.64 34.2861H143.163C143.947 34.2861 144.382 34.8016 144.382 35.4031Z" fill="#201600"/>
<path d="M156.227 38.0666C156.227 39.785 155.182 41.6752 151.785 41.6752H148.737V45.1978C148.737 45.6274 148.388 45.9711 147.953 45.9711C147.517 45.9711 147.169 45.6274 147.169 45.1978V35.1453C147.169 34.7157 147.517 34.3721 147.953 34.3721H151.698C155.182 34.3721 156.227 36.2623 156.227 38.0666ZM154.746 38.0666C154.746 37.0356 154.136 35.8327 151.698 35.8327H148.824V40.3005H151.698C154.136 40.2146 154.746 39.0976 154.746 38.0666Z" fill="#201600"/>
<path d="M167.201 45.1978C167.201 45.6274 166.939 45.9711 166.417 45.9711C166.069 45.9711 165.807 45.7993 165.72 45.5415L164.675 42.9639H159.014L157.969 45.5415C157.795 45.7993 157.533 45.9711 157.272 45.9711C156.837 45.9711 156.488 45.6274 156.488 45.1978C156.488 45.1119 156.488 45.026 156.575 44.8542L160.843 34.9735C161.017 34.6298 161.278 34.2861 161.801 34.2861H161.975C162.498 34.2861 162.759 34.6298 162.933 34.9735L167.201 44.8542C167.201 44.9401 167.201 45.1119 167.201 45.1978ZM164.152 41.5033L161.888 36.1763L159.624 41.5033H164.152Z" fill="#201600"/>
<path d="M175.387 34.7157C175.561 34.458 175.735 34.3721 176.083 34.3721C176.519 34.3721 176.867 34.7157 176.78 35.1453C176.78 35.3172 176.693 35.489 176.606 35.5749L172.6 41.0737V45.1978C172.6 45.6274 172.251 45.9711 171.816 45.9711C171.38 45.9711 171.032 45.6274 171.032 45.1978V40.9878L167.026 35.489C166.939 35.3172 166.852 35.2312 166.852 35.0594C166.852 34.6298 167.113 34.2861 167.548 34.2861C167.81 34.2861 168.071 34.458 168.245 34.6298L171.729 39.6131L175.387 34.7157Z" fill="#201600"/>
<path d="M62.6013 58C62.4271 58 62.1658 58 61.9916 58C60.9465 58 60.0756 57.0549 60.0756 56.0239C60.0756 54.9928 61.0336 54.1337 62.0787 54.1337C65.9108 54.3055 69.4816 52.9308 72.2686 50.3532C75.0556 47.7757 76.6233 44.3389 76.7975 40.5585C77.0588 32.8258 70.8751 26.2959 63.0367 26.0382C55.3725 25.7804 48.9276 31.537 48.3179 39.0979C48.3179 39.1838 48.2308 40.7303 48.2308 40.9021C47.7954 50.3532 39.7828 57.8282 30.2025 57.8282C20.1868 57.8282 12 49.8377 12 39.957C12 30.0764 20.1868 22 30.2025 22C31.2476 22 32.2057 22.8592 32.2057 23.9761C32.2057 25.0931 31.3347 25.9523 30.2025 25.9523C22.3641 25.9523 15.9192 32.2243 15.9192 40.043C15.9192 47.8616 22.277 54.1337 30.2025 54.1337C37.7796 54.1337 44.0504 48.2912 44.3987 40.8162C44.3987 40.6444 44.4858 39.0979 44.4858 39.0119C45.1826 29.2172 53.3694 21.9141 63.2109 22.2578C73.2267 22.6014 81.0651 30.9356 80.7167 40.8162C80.5425 45.6277 78.5394 50.0095 74.9685 53.2745C71.5719 56.3675 67.2172 58 62.6013 58Z" fill="url(#paint0_linear)"/>
<path d="M62.6008 37.5509C63.7071 37.5509 64.604 36.6662 64.604 35.5748C64.604 34.4834 63.7071 33.5986 62.6008 33.5986C61.4945 33.5986 60.5977 34.4834 60.5977 35.5748C60.5977 36.6662 61.4945 37.5509 62.6008 37.5509Z" fill="#020202"/>
<path d="M62.6008 46.9161C63.7071 46.9161 64.604 46.0314 64.604 44.94C64.604 43.8486 63.7071 42.9639 62.6008 42.9639C61.4945 42.9639 60.5977 43.8486 60.5977 44.94C60.5977 46.0314 61.4945 46.9161 62.6008 46.9161Z" fill="#020202"/>
<path d="M57.8977 42.1905C59.004 42.1905 59.9008 41.3058 59.9008 40.2144C59.9008 39.123 59.004 38.2383 57.8977 38.2383C56.7914 38.2383 55.8945 39.123 55.8945 40.2144C55.8945 41.3058 56.7914 42.1905 57.8977 42.1905Z" fill="#020202"/>
<path d="M67.3908 42.1905C68.4972 42.1905 69.394 41.3058 69.394 40.2144C69.394 39.123 68.4972 38.2383 67.3908 38.2383C66.2845 38.2383 65.3877 39.123 65.3877 40.2144C65.3877 41.3058 66.2845 42.1905 67.3908 42.1905Z" fill="#020202"/>
<path d="M34.296 38.2383C35.5153 38.2383 36.3863 39.1834 36.3863 40.3003C36.3863 41.5032 35.4282 42.3624 34.296 42.3624H25.4125C24.1932 42.3624 23.3223 41.4173 23.3223 40.3003C23.3223 39.0975 24.2803 38.2383 25.4125 38.2383H34.296Z" fill="#171717"/>
<path d="M27.6768 36.0904C27.6768 34.8875 28.6348 34.0283 29.767 34.0283C30.9863 34.0283 31.8572 34.9734 31.8572 36.0904V44.7682C31.8572 45.971 30.8992 46.8302 29.767 46.8302C28.5477 46.8302 27.6768 45.8851 27.6768 44.7682V36.0904Z" fill="#171717"/>
<defs>
<linearGradient id="paint0_linear" x1="12" y1="40.021" x2="80.7216" y2="40.021" gradientUnits="userSpaceOnUse">
<stop offset="0.0842105" stop-color="#FF4547"/>
<stop offset="1" stop-color="#FF6E3D"/>
</linearGradient>
</defs>
</svg>
