<svg width="29" height="29" fill="none" xmlns="http://www.w3.org/2000/svg"><path d="M9.539 22.334l-2.853-1.102a3.523 3.523 0 006.939-.856 3.524 3.524 0 00-3.523-3.52c-.7 0-1.352.207-1.9.56L11.02 18.5a2.056 2.056 0 011.177 2.656 2.052 2.052 0 01-2.658 1.177zm10.868-8.226a4.369 4.369 0 004.365-4.365 4.369 4.369 0 00-4.365-4.365 4.37 4.37 0 00-4.364 4.365 4.372 4.372 0 004.364 4.365zm0-7.44a3.078 3.078 0 013.077 3.075 3.078 3.078 0 01-3.077 3.074 3.078 3.078 0 01-3.074-3.074 3.078 3.078 0 013.074-3.075z" fill="#9A1C8E"/><path d="M25.198.002H3.802A3.8 3.8 0 000 3.804v10.439l5.53 2.137a5.927 5.927 0 014.401-2.062l3.323-4.434a7.117 7.117 0 0114.232 0c0 2.157-.962 4.09-2.478 5.396a7.098 7.098 0 01-5.19 1.696l-3.862 2.91a5.945 5.945 0 01-5.928 6.316 5.944 5.944 0 01-5.94-5.945v-.034L0 18.646v6.55c0 2.1 1.702 3.803 3.802 3.803h21.396c2.1 0 3.802-1.703 3.802-3.802V3.806c0-2.1-1.703-3.804-3.802-3.804z" fill="#9A1C8E"/></svg>