<svg xmlns="http://www.w3.org/2000/svg" viewBox="0 0 291.43 148.17"><defs><style>.cls-5{fill:none;stroke:#4c4c96;stroke-miterlimit:10;stroke-width:.5px}</style></defs><g id="Слой_2" data-name="Слой 2"><g id="Слой_1-2" data-name="Слой 1"><text transform="translate(31.01 78.64)" fill="#4c4c96" font-size="36" font-family="Tahoma" letter-spacing=".01em">DESCOUNTER</text><path d="M115.07 23.82h134.5a17.15 17.15 0 0115 8.77c20 35.69 47.71 149.35-5 103.23-48.11-51.77-98.82-37.65-98.82-37.65" stroke-width="3" stroke="#4c4c96" stroke-miterlimit="10" fill="none"/><path d="M133.9 23.49v-2.4c0-.44.24-.8.55-.8h6.89c.31 0 .56.36.56.8v2.4" stroke-width="3" stroke="#4c4c96" stroke-miterlimit="10" fill="#4c4c96"/><path d="M138.68 22.41s.07-30.27-74.43-18.83C-2.54 10-77.42 180.3 189.5 116.05" stroke-width="2" stroke="#4c4c96" stroke-miterlimit="10" fill="none"/><rect class="cls-5" x="188.47" y="114.29" width="4.37" transform="rotate(-40.14 190.635 114.278)"/><rect class="cls-5" x="187.66" y="116.64" width="6.65"/><rect class="cls-5" x="188.01" y="115.42" width="6.65" transform="rotate(-16.26 191.303 115.401)"/></g></g></svg>