<svg width="190" height="80" viewBox="0 0 190 80" fill="none" xmlns="http://www.w3.org/2000/svg">
<rect width="190" height="80" fill="white"/>
<g clip-path="url(#clip0)">
<path d="M36.317 36.354C36.317 36.354 39.6025 31.5692 44.5688 34.6831C44.5688 34.6831 38.762 17.3667 31.9619 29.4426C32.0383 29.3667 37.0047 26.1008 36.317 36.354V36.354Z" fill="#8B8C8C"/>
<path d="M50.1465 52.9875C50.1465 44.5571 45.5622 37.7976 45.5622 37.7976C43.5756 35.0634 41.2834 35.0634 41.2834 35.0634C38.7621 34.7596 36.9283 37.6457 36.9283 37.6457C35.4766 39.3925 34.1013 39.6204 33.2609 39.6204H31.8092C30.9687 39.6963 29.5934 39.3925 28.1417 37.6457C28.1417 37.6457 26.308 34.7596 23.7866 35.0634C23.7866 35.0634 21.4944 35.0634 19.5079 37.7976C19.5079 37.7976 18.7438 38.9368 17.8269 40.8356C16.6044 43.6457 14.9999 47.9748 14.9999 52.9875C14.9999 52.9875 14.6943 61.4179 21.8764 53.8229C21.8764 53.8229 27.2248 46.9875 32.5732 46.9875C37.9216 46.9875 43.27 53.8229 43.27 53.8229C47.7015 58.4558 49.306 57.0887 49.8409 55.3419C50.2229 54.2786 50.1465 52.9875 50.1465 52.9875Z" fill="#39BEE7"/>
<path d="M22.7168 39.0889H24.7797V45.6965H22.7168V39.0889Z" fill="white"/>
<path d="M38.457 24.2023C35.8592 22.3035 26.767 17.2149 20.5781 34.6073C20.5781 34.6073 22.4883 33.1643 25.0096 33.6959C26.2321 33.9238 27.6074 34.6833 28.9827 36.3542C28.9827 36.3542 31.1985 20.7845 39.2211 24.7339C39.1447 24.7339 38.9155 24.5061 38.457 24.2023V24.2023Z" fill="#E61948"/>
<path d="M20.4248 41.3672H27.0721V43.4178H20.4248V41.3672Z" fill="white"/>
<path d="M41.2071 41.1389C41.9245 41.1389 42.506 40.5609 42.506 39.8478C42.506 39.1347 41.9245 38.5566 41.2071 38.5566C40.4897 38.5566 39.9082 39.1347 39.9082 39.8478C39.9082 40.5609 40.4897 41.1389 41.2071 41.1389Z" fill="white"/>
<path d="M41.2071 46.1516C41.9245 46.1516 42.506 45.5736 42.506 44.8605C42.506 44.1474 41.9245 43.5693 41.2071 43.5693C40.4897 43.5693 39.9082 44.1474 39.9082 44.8605C39.9082 45.5736 40.4897 46.1516 41.2071 46.1516Z" fill="white"/>
<path d="M38.6856 43.6458C39.403 43.6458 39.9845 43.0677 39.9845 42.3546C39.9845 41.6415 39.403 41.0635 38.6856 41.0635C37.9683 41.0635 37.3867 41.6415 37.3867 42.3546C37.3867 43.0677 37.9683 43.6458 38.6856 43.6458Z" fill="white"/>
<path d="M43.7286 43.6458C44.4459 43.6458 45.0275 43.0677 45.0275 42.3546C45.0275 41.6415 44.4459 41.0635 43.7286 41.0635C43.0112 41.0635 42.4297 41.6415 42.4297 42.3546C42.4297 43.0677 43.0112 43.6458 43.7286 43.6458Z" fill="white"/>
<path d="M63.2886 46.0762C61.5313 46.0762 60.3088 45.9243 59.2391 45.6965C59.0099 45.6205 58.7807 45.4686 58.7807 45.2408V43.5699C58.7807 43.342 59.0099 43.1142 59.2391 43.1142H59.3155C60.2324 43.1901 62.5246 43.342 63.365 43.342C65.428 43.342 66.0392 42.5826 66.0392 41.2914C66.0392 40.38 65.5808 39.9243 64.0527 39.0889L60.9965 37.2661C58.8571 36.0509 58.3223 34.6838 58.3223 33.0889C58.3223 30.5826 59.774 28.7598 64.0527 28.7598C65.5808 28.7598 67.6437 28.9876 68.4842 29.1395C68.7134 29.2155 68.8662 29.3674 68.8662 29.5952V31.2661C68.8662 31.4939 68.7134 31.6458 68.4842 31.6458H68.4078C66.8797 31.4939 65.3516 31.418 63.8999 31.418C62.2189 31.418 61.5313 32.0256 61.5313 33.0129C61.5313 33.7724 61.9133 34.2281 63.4414 35.0636L66.192 36.5826C68.7134 37.9496 69.4011 39.4686 69.4011 41.2155C69.3247 43.5699 67.873 46.0762 63.2886 46.0762V46.0762ZM82.6192 31.5699H78.5697V45.3927C78.5697 45.6205 78.3405 45.8484 78.1113 45.8484H75.8191C75.5899 45.8484 75.3607 45.6205 75.3607 45.3927V31.5699H71.3112C71.082 31.5699 70.8528 31.418 70.8528 31.1901V29.3674C70.8528 29.1395 71.082 28.9117 71.3112 28.9117H82.5428C82.772 28.9117 83.0013 29.0636 83.0013 29.3674V31.1901C83.0777 31.418 82.8485 31.5699 82.6192 31.5699V31.5699ZM94.9969 45.7724C94.2329 45.8484 93.3924 46.0762 90.6418 46.0762C87.662 46.0762 85.3698 45.2408 85.3698 41.4433V33.4686C85.3698 29.5952 87.662 28.8357 90.6418 28.8357C93.3924 28.8357 94.2329 29.0636 94.9969 29.1395C95.3026 29.2155 95.4554 29.2914 95.4554 29.5952V31.0382C95.4554 31.2661 95.2262 31.4939 94.9969 31.4939H90.3362C89.0373 31.4939 88.5025 31.9496 88.5025 33.4686V35.899H94.6913C94.9205 35.899 95.1497 36.1269 95.1497 36.3547V38.0256C95.1497 38.2534 94.9205 38.4813 94.6913 38.4813H88.5025V41.4433C88.5025 42.9623 88.9609 43.418 90.3362 43.418H94.9969C95.2262 43.418 95.4554 43.6458 95.4554 43.8737V45.3167C95.4554 45.5446 95.379 45.6965 94.9969 45.7724V45.7724ZM110.813 45.8484H108.368C108.139 45.8484 107.986 45.6965 107.909 45.4686L106.84 41.1395H101.568L100.498 45.4686C100.422 45.6965 100.269 45.8484 100.04 45.8484H97.5947C97.3655 45.8484 97.2127 45.6965 97.2127 45.4686V45.3927L100.957 31.1142C101.491 28.9876 103.172 28.7598 104.166 28.7598C105.159 28.7598 106.763 28.9876 107.375 31.1142L111.119 45.3927V45.4686C111.195 45.6965 111.042 45.8484 110.813 45.8484ZM104.624 31.7977C104.548 31.4939 104.471 31.418 104.242 31.418C104.013 31.418 103.936 31.4939 103.86 31.7977L102.179 38.5572H106.229L104.624 31.7977V31.7977ZM127.699 45.8484H125.406C125.177 45.8484 125.024 45.6205 125.024 45.3927V34.8357C125.024 34.6838 125.024 34.6079 124.948 34.6079C124.948 34.6079 124.872 34.6838 124.872 34.7598L122.656 39.0889C122.503 39.3167 122.197 39.4686 121.892 39.4686H119.6C119.294 39.4686 118.988 39.3167 118.835 39.0889L116.62 34.7598C116.543 34.6838 116.543 34.6079 116.543 34.6079C116.467 34.6079 116.467 34.6838 116.467 34.8357V45.3927C116.467 45.6205 116.314 45.8484 116.085 45.8484H113.793C113.563 45.8484 113.411 45.7724 113.411 45.5446V29.8231C113.411 29.2914 113.793 28.9117 114.328 28.9117H116.238C116.62 28.9117 116.925 29.1395 117.078 29.4433L120.44 36.4307C120.516 36.6585 120.593 36.7344 120.669 36.7344C120.746 36.7344 120.822 36.6585 120.898 36.4307L124.337 29.4433C124.489 29.1395 124.795 28.9117 125.177 28.9117H127.087C127.622 28.9117 128.004 29.2914 128.004 29.8231V45.5446C128.081 45.7724 127.928 45.8484 127.699 45.8484ZM136.562 46.0762C134.728 46.0762 133.276 46.0003 132.588 45.8484C131.824 45.6965 131.519 45.4686 131.519 44.6332V30.2028C131.519 29.3674 131.824 29.0636 132.588 28.9876C133.2 28.9117 134.651 28.7598 136.409 28.7598C140.535 28.7598 143.438 29.975 143.438 33.3927V33.8484C143.438 35.3674 142.75 36.6585 141.299 37.2661C142.674 37.8737 143.514 39.0129 143.514 40.7598V41.1395C143.514 44.7851 140.84 46.0762 136.562 46.0762V46.0762ZM140.305 33.5446C140.305 31.9496 139.236 31.342 136.332 31.342C135.798 31.342 135.11 31.342 134.651 31.418V36.0509H137.555C139.694 36.0509 140.305 35.0636 140.305 33.8484V33.5446V33.5446ZM140.458 40.7598C140.458 39.5446 139.771 38.3294 137.631 38.3294H134.728V43.342C135.263 43.342 136.103 43.418 136.638 43.418C139.541 43.418 140.458 42.6585 140.458 41.0636V40.7598V40.7598ZM152.607 46.0762C148.939 46.0762 146.265 44.4813 146.265 39.6205V29.3674C146.265 29.1395 146.494 28.9117 146.724 28.9117H149.016C149.245 28.9117 149.474 29.0636 149.474 29.3674V39.6205C149.474 42.2028 150.085 43.418 152.607 43.418C155.128 43.418 155.739 42.2028 155.739 39.6205V29.3674C155.739 29.1395 155.969 28.9117 156.198 28.9117H158.49C158.719 28.9117 158.948 29.0636 158.948 29.3674V39.6205C158.872 44.4813 156.274 46.0762 152.607 46.0762V46.0762ZM174 29.4433L170.486 37.342C170.027 38.3294 169.569 38.7851 169.11 39.0129V45.3927C169.11 45.6205 168.958 45.8484 168.652 45.8484H166.36C166.131 45.8484 165.901 45.6205 165.901 45.3927V39.0129C165.366 38.7851 164.908 38.3294 164.526 37.342L161.088 29.4433C161.088 29.3674 161.011 29.2914 161.011 29.2914C161.011 29.1395 161.164 28.9876 161.393 28.9876H163.915C164.144 28.9876 164.297 29.1395 164.373 29.3674L167.124 36.1269C167.277 36.5066 167.429 36.5826 167.506 36.5826C167.582 36.5826 167.735 36.5066 167.888 36.1269L170.638 29.3674C170.715 29.2155 170.868 28.9876 171.097 28.9876H173.618C173.847 28.9876 174 29.1395 174 29.2914V29.4433V29.4433Z" fill="#39BEE7"/>
<path d="M64.129 56.1008C64.129 56.1767 64.0526 56.2527 63.9762 56.2527H63.8998C63.8234 56.2527 63.747 56.1767 63.747 56.1008V51.7716C63.747 51.6957 63.747 51.6197 63.6706 51.6197C63.5942 51.6197 63.5942 51.6957 63.5178 51.7716L62.3717 53.7463C62.2189 54.0501 62.0661 54.0501 61.9133 54.0501C61.7605 54.0501 61.6076 54.0501 61.4548 53.7463L60.2323 51.6957C60.1559 51.6197 60.1559 51.6197 60.0795 51.6197C60.0031 51.6197 60.0031 51.6957 60.0031 51.7716V56.1008C60.0031 56.1767 59.9267 56.2527 59.8503 56.2527H59.7739C59.6975 56.2527 59.6211 56.1767 59.6211 56.1008V51.7716C59.6211 51.3919 59.8503 51.3159 60.0795 51.3159C60.2323 51.3159 60.3851 51.3919 60.538 51.6197L61.684 53.6704C61.7604 53.7463 61.7604 53.8223 61.8369 53.8223C61.9133 53.8223 61.9133 53.7463 61.9897 53.6704L63.1357 51.6197C63.2886 51.3919 63.4414 51.3159 63.5942 51.3159C63.8234 51.3159 64.0526 51.3919 64.0526 51.7716L64.129 56.1008V56.1008ZM68.4077 56.1767C68.2549 56.1767 68.1785 56.1008 68.1785 56.0248V55.797C67.7201 56.0248 67.1852 56.2527 66.6504 56.2527C65.9628 56.2527 65.2751 55.9489 65.2751 54.8096V54.6577C65.2751 53.7463 65.8864 53.2147 67.5673 53.2147H68.2549V52.9109C68.2549 51.9235 67.9493 51.6197 67.1088 51.6197C66.4976 51.6197 66.2684 51.6957 65.8099 51.6957H65.7335C65.6571 51.6957 65.5807 51.6197 65.5807 51.5438V51.4678C65.5807 51.3919 65.6571 51.3159 65.8099 51.3159C66.192 51.24 66.4976 51.24 67.1088 51.24C68.3313 51.24 68.6369 51.9235 68.6369 52.9109V56.0248C68.6369 56.1008 68.5605 56.1767 68.4077 56.1767V56.1767ZM68.1785 53.5944H67.4909C66.1156 53.5944 65.6571 53.8982 65.6571 54.6577V54.8096C65.6571 55.6451 66.1156 55.9489 66.6504 55.9489C67.1852 55.9489 67.6437 55.797 68.2549 55.4932L68.1785 53.5944V53.5944ZM70.8527 51.6957C70.3943 51.6957 70.3179 51.8476 70.3179 52.2273V56.0248C70.3179 56.1008 70.2415 56.1767 70.1651 56.1767H70.0887C70.0123 56.1767 69.9358 56.1008 69.9358 56.0248V52.2273C69.9358 51.4678 70.3943 51.3159 70.9291 51.3159H72.1516C72.228 51.3159 72.3044 51.3919 72.3044 51.4678V51.5438C72.3044 51.6197 72.228 51.6957 72.1516 51.6957H70.8527V51.6957ZM76.2775 56.1767C76.1247 56.1767 76.0483 56.1008 76.0483 56.0248V55.797C75.5899 56.0248 75.055 56.2527 74.5202 56.2527C73.8325 56.2527 73.1449 55.9489 73.1449 54.8096V54.6577C73.1449 53.7463 73.7561 53.2147 75.437 53.2147H76.1247V52.9109C76.1247 51.9235 75.8191 51.6197 74.9786 51.6197C74.3674 51.6197 74.1382 51.6957 73.6797 51.6957H73.6033C73.5269 51.6957 73.4505 51.6197 73.4505 51.5438V51.4678C73.4505 51.3919 73.5269 51.3159 73.6797 51.3159C74.0618 51.24 74.3674 51.24 74.9786 51.24C76.2011 51.24 76.5067 51.9235 76.5067 52.9109V56.0248C76.5067 56.1008 76.4303 56.1767 76.2775 56.1767V56.1767ZM76.0483 53.5944H75.3606C73.9853 53.5944 73.5269 53.8982 73.5269 54.6577V54.8096C73.5269 55.6451 73.9853 55.9489 74.5202 55.9489C75.055 55.9489 75.5135 55.797 76.1247 55.4932L76.0483 53.5944ZM79.6394 53.4425C80.5562 53.4425 80.7854 52.9868 80.7854 52.4552V52.3792C80.7854 51.6957 80.4034 51.4678 79.3337 51.4678C78.8753 51.4678 78.4933 51.5438 78.1112 51.5438C77.9584 51.5438 77.9584 51.4678 77.9584 51.3919V51.3159C77.9584 51.24 77.9584 51.1641 78.1112 51.1641C78.3405 51.0881 78.8753 51.0881 79.3337 51.0881C80.4798 51.0881 81.1675 51.3919 81.1675 52.3033V52.3792C81.1675 52.8349 80.9382 53.2906 80.4798 53.5185C81.0911 53.8223 81.1675 54.3539 81.1675 54.6577V54.7337C81.1675 55.721 80.4798 56.1767 79.3337 56.1767C78.8753 56.1767 78.3405 56.1008 78.1112 56.1008C77.9584 56.1008 77.9584 56.0248 77.9584 55.9489V55.8729C77.9584 55.797 77.9584 55.721 78.1112 55.721C78.5697 55.797 78.8753 55.797 79.3337 55.797C80.327 55.797 80.7854 55.4932 80.7854 54.7337V54.6577C80.7854 54.0501 80.4798 53.6704 79.6394 53.6704H78.1112C78.0348 53.6704 77.9584 53.5944 77.9584 53.5185C77.9584 53.4425 78.0348 53.3666 78.1112 53.3666L79.6394 53.4425ZM85.0641 51.6197C85.217 51.3159 85.2934 51.3159 85.5226 51.3159C85.7518 51.3159 85.9046 51.4678 85.9046 51.8476V56.0248C85.9046 56.1767 85.8282 56.1767 85.7518 56.1767H85.6754C85.599 56.1767 85.5226 56.1008 85.5226 56.0248V51.8476C85.5226 51.7716 85.4462 51.7716 85.4462 51.8476L83.3068 55.8729C83.154 56.1008 83.0012 56.1767 82.772 56.1767C82.5428 56.1767 82.39 56.0248 82.39 55.6451V51.4678C82.39 51.3159 82.4664 51.3159 82.5428 51.3159H82.6192C82.6956 51.3159 82.772 51.3919 82.772 51.4678V55.6451C82.772 55.721 82.8484 55.721 82.8484 55.6451L85.0641 51.6197ZM87.5855 53.7463V56.0248C87.5855 56.1008 87.5091 56.1767 87.4327 56.1767H87.3563C87.2799 56.1767 87.2035 56.1008 87.2035 56.0248V51.4678C87.2035 51.3919 87.2799 51.3159 87.3563 51.3159H87.4327C87.5091 51.3159 87.5855 51.3919 87.5855 51.4678V53.3666H90.2597V51.4678C90.2597 51.3919 90.3361 51.3159 90.4125 51.3159H90.489C90.5654 51.3159 90.6418 51.3919 90.6418 51.4678V56.0248C90.6418 56.1008 90.5654 56.1767 90.489 56.1767H90.4125C90.3361 56.1767 90.2597 56.1008 90.2597 56.0248V53.7463H87.5855V53.7463ZM97.0598 51.4678C97.0598 51.3919 97.1362 51.3159 97.2126 51.3159H97.289C97.3654 51.3159 97.4419 51.3919 97.4419 51.4678V55.2653C97.4419 55.4932 97.3654 55.6451 97.289 55.797H97.8239C98.0531 55.797 98.1295 55.8729 98.1295 56.1008V57.24C98.1295 57.316 98.0531 57.3919 97.9767 57.3919H97.9003C97.8239 57.3919 97.7475 57.316 97.7475 57.24V56.1767H94.8441C94.3856 56.1767 93.8508 56.0248 93.8508 55.2653V51.4678C93.8508 51.3919 93.9272 51.3159 94.0036 51.3159H94.08C94.1564 51.3159 94.2328 51.3919 94.2328 51.4678V55.2653C94.2328 55.6451 94.3856 55.797 94.7677 55.797H96.3722C96.8306 55.797 96.907 55.6451 96.907 55.2653L97.0598 51.4678V51.4678ZM101.415 51.6197C101.568 51.3159 101.644 51.3159 101.873 51.3159C102.103 51.3159 102.255 51.4678 102.255 51.8476V56.0248C102.255 56.1767 102.179 56.1767 102.103 56.1767H102.026C101.95 56.1767 101.873 56.1008 101.873 56.0248V51.8476C101.873 51.7716 101.797 51.7716 101.797 51.8476L99.6576 55.8729C99.5048 56.1008 99.4284 56.1767 99.1992 56.1767C98.97 56.1767 98.8172 56.0248 98.8172 55.6451V51.4678C98.8172 51.3159 98.8936 51.3159 98.97 51.3159H99.0464C99.1228 51.3159 99.1992 51.3919 99.1992 51.4678V55.6451C99.1992 55.721 99.2756 55.721 99.2756 55.6451L101.415 51.6197ZM103.325 53.4425C103.325 52.1514 103.707 51.24 105.159 51.24C105.541 51.24 105.846 51.3159 106.229 51.3919V49.6451C106.229 49.5691 106.305 49.4932 106.381 49.4932H106.458C106.534 49.4932 106.611 49.5691 106.611 49.6451V51.3919C106.916 51.3159 107.222 51.24 107.68 51.24C109.056 51.24 109.514 52.1514 109.514 53.4425V54.0501C109.514 55.4932 109.056 56.2527 107.68 56.2527C107.298 56.2527 106.993 56.1767 106.611 56.1008V57.7716C106.611 57.8476 106.534 57.9235 106.458 57.9235H106.381C106.305 57.9235 106.229 57.8476 106.229 57.7716V56.1008C105.846 56.1767 105.541 56.2527 105.159 56.2527C103.86 56.2527 103.325 55.4932 103.325 54.0501V53.4425ZM103.784 54.0501C103.784 55.2653 104.089 55.8729 105.159 55.8729C105.541 55.8729 105.846 55.797 106.229 55.721V51.6957C105.923 51.6197 105.617 51.5438 105.159 51.5438C104.013 51.5438 103.784 52.2273 103.784 53.3666V54.0501V54.0501ZM109.056 53.4425C109.056 52.2273 108.826 51.6197 107.68 51.6197C107.222 51.6197 106.993 51.6957 106.611 51.7716V55.797C106.993 55.8729 107.298 55.9489 107.68 55.9489C108.75 55.9489 109.056 55.3413 109.056 54.1261V53.4425V53.4425ZM112.265 56.2527C111.883 56.2527 111.348 56.1767 110.966 56.1008V57.7716C110.966 57.8476 110.889 57.9235 110.813 57.9235H110.736C110.66 57.9235 110.584 57.8476 110.584 57.7716V51.6197C110.584 51.5438 110.584 51.4678 110.736 51.4678C111.118 51.3919 111.73 51.3159 112.265 51.3159C113.563 51.3159 114.022 52.2273 114.022 53.5185V54.1261C114.098 55.4932 113.487 56.2527 112.265 56.2527V56.2527ZM113.64 53.4425C113.64 52.2273 113.258 51.6197 112.265 51.6197C111.806 51.6197 111.348 51.6957 110.966 51.7716V55.797C111.348 55.8729 111.883 55.9489 112.265 55.9489C113.258 55.9489 113.64 55.3413 113.64 54.1261V53.4425V53.4425ZM117.002 56.2527C115.779 56.2527 115.092 55.4172 115.092 54.0501V53.4425C115.092 52.0754 115.703 51.24 117.002 51.24C118.301 51.24 118.912 52.0754 118.912 53.4425V54.0501C118.835 55.4172 118.224 56.2527 117.002 56.2527ZM118.453 53.4425C118.453 52.3033 118.071 51.6197 117.002 51.6197C115.932 51.6197 115.55 52.3033 115.55 53.4425V54.0501C115.55 55.1894 115.932 55.8729 117.002 55.8729C118.071 55.8729 118.453 55.1894 118.453 54.0501V53.4425ZM122.809 53.6704C123.42 53.8982 123.573 54.4299 123.573 54.8096V54.8856C123.573 55.9489 122.656 56.3286 121.357 56.3286C120.975 56.3286 120.44 56.3286 120.134 56.2527C120.058 56.2527 119.981 56.2527 119.981 56.1767V51.4678C119.981 51.3919 120.058 51.3919 120.058 51.3919C120.364 51.3159 120.898 51.3159 121.357 51.3159C122.426 51.3159 123.496 51.4678 123.496 52.5311V52.6071C123.573 52.9868 123.343 53.4425 122.809 53.6704V53.6704ZM123.114 52.4552C123.114 51.6957 122.426 51.6197 121.357 51.6197H120.364V53.4425H121.662C122.35 53.4425 123.114 53.4425 123.114 52.4552V52.4552ZM123.191 54.7337C123.191 53.8223 122.35 53.8223 121.739 53.8223H120.44V55.8729H121.433C122.656 55.9489 123.191 55.5691 123.191 54.7337V54.7337ZM124.719 51.4678C124.719 51.3919 124.795 51.3159 124.871 51.3159H124.948C125.101 51.3159 125.101 51.3919 125.101 51.4678V53.1387H126.094C127.393 53.1387 128.31 53.5185 128.31 54.6577V54.8096C128.31 55.9489 127.393 56.3286 126.094 56.3286C125.712 56.3286 125.177 56.3286 124.871 56.2527C124.795 56.2527 124.719 56.2527 124.719 56.1767V51.4678ZM125.177 55.8729H126.17C127.469 55.8729 128.004 55.5691 128.004 54.7337V54.5818C128.004 53.7463 127.469 53.4425 126.17 53.4425H125.177V55.8729ZM129.761 56.1767H129.685C129.609 56.1767 129.532 56.1008 129.532 56.0248V51.4678C129.532 51.3919 129.609 51.3159 129.685 51.3159H129.761C129.838 51.3159 129.914 51.3919 129.914 51.4678V56.0248C129.914 56.1008 129.838 56.1767 129.761 56.1767ZM134.422 56.1767H134.346C134.269 56.1767 134.193 56.1767 134.193 56.1008L132.665 53.9742L131.137 56.1008C131.137 56.1767 131.06 56.1767 131.06 56.1767H130.908C130.831 56.1767 130.755 56.1008 130.755 56.1008C130.755 56.0248 130.755 56.0248 130.831 55.9489L132.436 53.6704L130.908 51.4678L130.831 51.3919C130.831 51.3159 130.908 51.24 130.984 51.24H131.06C131.137 51.24 131.213 51.3159 131.213 51.3159L132.665 53.2906L134.04 51.3159C134.04 51.24 134.193 51.24 134.193 51.24H134.269C134.346 51.24 134.422 51.3159 134.422 51.3159C134.422 51.3919 134.422 51.3919 134.346 51.4678L132.818 53.5944L134.422 55.8729V55.9489C134.575 56.1008 134.575 56.1767 134.422 56.1767V56.1767ZM140.993 51.4678V51.5438C140.993 51.6197 140.917 51.6957 140.84 51.6957H139.312V56.0248C139.312 56.1008 139.236 56.1767 139.159 56.1767H139.083C139.006 56.1767 138.93 56.1008 138.93 56.0248V51.6957H137.402C137.326 51.6957 137.249 51.6197 137.249 51.5438V51.4678C137.249 51.3919 137.326 51.3159 137.402 51.3159H140.764C140.917 51.3159 140.993 51.3919 140.993 51.4678V51.4678ZM143.744 56.2527C142.521 56.2527 141.834 55.4172 141.834 54.0501V53.4425C141.834 52.0754 142.445 51.24 143.744 51.24C145.043 51.24 145.654 52.0754 145.654 53.4425V54.0501C145.654 55.4172 145.043 56.2527 143.744 56.2527ZM145.272 53.4425C145.272 52.3033 144.89 51.6197 143.82 51.6197C142.75 51.6197 142.368 52.3033 142.368 53.4425V54.0501C142.368 55.1894 142.75 55.8729 143.82 55.8729C144.89 55.8729 145.272 55.1894 145.272 54.0501V53.4425ZM149.627 53.6704C150.238 53.8982 150.391 54.4299 150.391 54.8096V54.8856C150.391 55.9489 149.474 56.3286 148.175 56.3286C147.793 56.3286 147.258 56.3286 146.953 56.2527C146.876 56.2527 146.8 56.2527 146.8 56.1767V51.4678C146.8 51.3919 146.8 51.3919 146.876 51.3919C147.182 51.3159 147.717 51.3159 148.175 51.3159C149.245 51.3159 150.315 51.4678 150.315 52.5311V52.6071C150.315 52.9868 150.085 53.4425 149.627 53.6704V53.6704ZM149.932 52.4552C149.932 51.6957 149.168 51.6197 148.175 51.6197H147.182V53.4425H148.481C149.168 53.4425 149.932 53.4425 149.932 52.4552V52.4552ZM150.009 54.7337C150.009 53.8223 149.168 53.8223 148.557 53.8223H147.182V55.8729H148.175C149.474 55.9489 150.009 55.5691 150.009 54.7337V54.7337ZM154.517 56.1767C154.364 56.1767 154.288 56.1008 154.288 56.0248V55.797C153.829 56.0248 153.294 56.2527 152.76 56.2527C152.072 56.2527 151.384 55.9489 151.384 54.8096V54.6577C151.384 53.7463 151.995 53.2147 153.676 53.2147H154.364V52.9109C154.364 51.9235 154.058 51.6197 153.218 51.6197C152.607 51.6197 152.377 51.6957 151.919 51.6957C151.843 51.6957 151.766 51.6197 151.766 51.5438V51.4678C151.766 51.3919 151.843 51.3159 151.995 51.3159C152.377 51.24 152.683 51.24 153.294 51.24C154.517 51.24 154.822 51.9235 154.822 52.9109V56.0248C154.746 56.1008 154.67 56.1767 154.517 56.1767V56.1767ZM154.364 53.5944H153.676C152.301 53.5944 151.843 53.8982 151.843 54.6577V54.8096C151.843 55.6451 152.301 55.9489 152.836 55.9489C153.371 55.9489 153.829 55.797 154.364 55.4932V53.5944ZM157.726 56.2527C157.344 56.2527 156.809 56.1767 156.427 56.1008V57.7716C156.427 57.8476 156.351 57.9235 156.274 57.9235H156.198C156.121 57.9235 156.045 57.8476 156.045 57.7716V51.6197C156.045 51.5438 156.045 51.4678 156.198 51.4678C156.58 51.3919 157.191 51.3159 157.726 51.3159C159.025 51.3159 159.56 52.2273 159.56 53.5185V54.1261C159.483 55.4932 158.872 56.2527 157.726 56.2527V56.2527ZM159.101 53.4425C159.101 52.2273 158.719 51.6197 157.726 51.6197C157.267 51.6197 156.809 51.6957 156.427 51.7716V55.797C156.809 55.8729 157.344 55.9489 157.726 55.9489C158.719 55.9489 159.101 55.3413 159.101 54.1261V53.4425V53.4425ZM162.387 56.2527C161.164 56.2527 160.476 55.4172 160.476 54.0501V53.4425C160.476 52.0754 161.088 51.24 162.387 51.24C163.686 51.24 164.297 52.0754 164.297 53.4425V54.0501C164.297 55.4172 163.609 56.2527 162.387 56.2527ZM163.838 53.4425C163.838 52.3033 163.456 51.6197 162.387 51.6197C161.317 51.6197 160.935 52.3033 160.935 53.4425V54.0501C160.935 55.1894 161.317 55.8729 162.387 55.8729C163.456 55.8729 163.838 55.1894 163.838 54.0501V53.4425ZM168.193 53.6704C168.805 53.8982 168.957 54.4299 168.957 54.8096V54.8856C168.957 55.9489 168.041 56.3286 166.742 56.3286C166.36 56.3286 165.825 56.3286 165.519 56.2527C165.443 56.2527 165.366 56.2527 165.366 56.1767V51.4678C165.366 51.3919 165.366 51.3919 165.443 51.3919C165.748 51.3159 166.283 51.3159 166.742 51.3159C167.811 51.3159 168.881 51.4678 168.881 52.5311V52.6071C168.957 52.9868 168.728 53.4425 168.193 53.6704V53.6704ZM168.575 52.4552C168.575 51.6957 167.811 51.6197 166.818 51.6197H165.825V53.4425H167.124C167.811 53.4425 168.575 53.4425 168.575 52.4552V52.4552ZM168.575 54.7337C168.575 53.8223 167.735 53.8223 167.124 53.8223H165.825V55.8729H166.818C168.041 55.9489 168.575 55.5691 168.575 54.7337V54.7337Z" fill="black"/>
</g>
<defs>
<clipPath id="clip0">
<rect width="159" height="36" fill="white" transform="translate(15 22)"/>
</clipPath>
</defs>
</svg>
