<svg width="190" height="81" viewBox="0 0 190 81" fill="none" xmlns="http://www.w3.org/2000/svg">
<rect y="0.323242" width="190" height="80" fill="white"/>
<g clip-path="url(#clip0)">
<path d="M85.0201 19.2618L84.085 9L93.6059 20.6514L85.0201 19.2618V19.2618ZM52.4621 58.7057L29 41.282L37.9258 30.165L52.8872 48.1232L84.085 9L85.4451 18.6205L52.4621 58.7057V58.7057ZM53.0572 70.9985L29 41.282L52.4621 58.7057L85.5301 18.6205L93.6059 20.7583L53.0572 70.9985V70.9985Z" fill="#3AB54B"/>
<path d="M85.0201 19.2618L93.6058 20.6514L84.085 9L85.0201 19.2618Z" fill="#5CCC63"/>
<path d="M52.4621 58.7057L29 41.282L37.9258 30.165L52.8872 48.1232L84.085 9L85.0201 19.2618L52.4621 58.7057Z" fill="#42D14E"/>
<path d="M99.3008 37.4327C98.9608 37.0051 98.4507 36.7913 97.8557 36.7913C97.2606 36.7913 96.7506 37.0051 96.4105 37.3258C96.0705 37.6465 95.9005 38.0741 95.9005 38.6085C95.9005 39.0361 96.0705 39.4637 96.4956 39.8913C96.9206 40.2119 97.6007 40.6395 98.6207 41.0671C99.6408 41.4947 100.406 41.9222 101.086 42.3498C102.616 43.4188 103.466 45.0222 103.466 46.9463C103.466 48.5497 102.956 49.7255 102.021 50.5807C101.086 51.4358 99.7258 51.8634 98.1107 51.8634C96.9206 51.8634 95.9005 51.6496 94.9654 51.1151C94.0303 50.5807 93.2653 49.9393 92.8402 48.9773C92.3302 48.1221 92.1602 47.0532 92.1602 45.8773H95.6455C95.6455 46.8394 95.8155 47.4807 96.2405 48.0152C96.6656 48.4428 97.2606 48.6566 98.1957 48.6566C98.7908 48.6566 99.2158 48.5497 99.5558 48.229C99.8959 47.9083 100.066 47.4807 100.066 46.9463C100.066 46.3049 99.8959 45.8773 99.5558 45.4498C99.2158 45.0222 98.5357 44.7015 97.6857 44.3808C96.7506 44.0601 96.0705 43.6326 95.4755 43.3119C93.6053 42.136 92.6702 40.6395 92.6702 38.6085C92.6702 37.6465 92.9252 36.7913 93.3503 36.0431C93.7753 35.2948 94.4554 34.6535 95.3054 34.3328C96.1555 33.9052 97.0906 33.6914 98.1957 33.6914C99.2158 33.6914 100.151 33.9052 101.001 34.3328C101.851 34.7603 102.446 35.4017 102.956 36.2569C103.381 37.112 103.636 38.0741 103.636 39.143H100.151C99.8108 38.2878 99.6408 37.7534 99.3008 37.4327V37.4327ZM112.307 37.112V51.5427H108.822V37.112H104.571V33.7983H116.642V37.112H112.307V37.112ZM121.828 37.112V40.8533H127.268V44.0601H121.828V48.3359H128.288V51.6496H118.343V33.7983H128.288V37.112H121.828V37.112ZM139.339 51.5427L138.489 48.229H133.729L132.879 51.5427H129.139L134.409 33.7983H137.724L143.08 51.5427H139.339V51.5427ZM136.109 38.8223L134.579 45.0222H137.724L136.109 38.8223ZM156.426 51.5427V47.3738L156.766 38.9292L153.281 51.5427H150.986L147.5 38.9292L147.84 47.3738V51.5427H144.355V33.7983H148.945L152.176 46.198L155.406 33.7983H159.996V51.5427H156.426V51.5427Z" fill="black"/>
<path d="M114.603 64.3701C114.518 64.2632 114.518 64.0494 114.433 63.7288C114.007 64.1563 113.582 64.477 112.987 64.477C112.392 64.477 111.967 64.2632 111.627 63.9425C111.287 63.6219 111.117 63.0874 111.117 62.5529C111.117 61.9116 111.372 61.3771 111.797 60.9495C112.222 60.6288 112.817 60.415 113.667 60.415H114.433V59.9875C114.433 59.6668 114.347 59.3461 114.177 59.2392C114.007 59.1323 113.752 58.9185 113.412 58.9185C113.157 58.9185 112.902 59.0254 112.732 59.1323C112.562 59.3461 112.477 59.453 112.477 59.7737H111.202C111.202 59.453 111.287 59.1323 111.542 58.8116C111.712 58.491 112.052 58.2772 112.392 58.0634C112.732 57.8496 113.157 57.8496 113.582 57.8496C114.262 57.8496 114.773 58.0634 115.113 58.3841C115.538 58.7047 115.708 59.2392 115.708 59.9875V62.8736C115.708 63.4081 115.793 63.9426 115.878 64.2632V64.3701H114.603V64.3701ZM114.347 61.484H113.667C113.242 61.484 112.902 61.5909 112.647 61.8047C112.392 62.0185 112.307 62.2322 112.307 62.5529C112.307 62.8736 112.392 63.0874 112.562 63.1943C112.732 63.4081 112.902 63.4081 113.157 63.4081C113.412 63.4081 113.667 63.3012 113.837 63.1943C114.007 63.0874 114.177 62.8736 114.347 62.6598V61.484V61.484ZM119.873 59.453C119.703 59.2392 119.448 59.1323 119.108 59.1323C118.683 59.1323 118.428 59.3461 118.173 59.6668C117.918 59.9875 117.833 60.5219 117.833 61.1633V61.3771C117.833 62.0185 117.918 62.5529 118.173 62.8736C118.428 63.1943 118.683 63.4081 119.108 63.4081C119.448 63.4081 119.703 63.3012 119.873 63.0874C120.043 62.8736 120.213 62.6598 120.213 62.3391H121.403C121.403 62.7667 121.318 63.0874 121.063 63.4081C120.893 63.7288 120.553 64.0494 120.213 64.2632C119.873 64.477 119.533 64.5839 119.108 64.5839C118.343 64.5839 117.748 64.2632 117.238 63.7288C116.813 63.1943 116.558 62.3391 116.558 61.3771V61.2702C116.558 60.3081 116.813 59.5599 117.238 58.9185C117.663 58.3841 118.258 58.0634 119.108 58.0634C119.788 58.0634 120.298 58.2772 120.723 58.7047C121.148 59.1323 121.318 59.6668 121.403 60.415H120.213C120.213 59.9875 120.043 59.6668 119.873 59.453ZM125.484 59.453C125.313 59.2392 125.058 59.1323 124.718 59.1323C124.293 59.1323 124.038 59.3461 123.783 59.6668C123.528 59.9875 123.443 60.5219 123.443 61.1633V61.3771C123.443 62.0185 123.528 62.5529 123.783 62.8736C124.038 63.1943 124.293 63.4081 124.718 63.4081C125.058 63.4081 125.313 63.3012 125.484 63.0874C125.654 62.8736 125.824 62.6598 125.824 62.3391H127.014C127.014 62.7667 126.929 63.0874 126.674 63.4081C126.504 63.7288 126.164 64.0494 125.824 64.2632C125.484 64.477 125.143 64.5839 124.718 64.5839C123.953 64.5839 123.358 64.2632 122.848 63.7288C122.423 63.1943 122.168 62.3391 122.168 61.3771V61.2702C122.168 60.3081 122.423 59.5599 122.848 58.9185C123.273 58.3841 123.868 58.0634 124.718 58.0634C125.398 58.0634 125.909 58.2772 126.334 58.7047C126.759 59.1323 126.929 59.6668 127.014 60.415H125.824C125.824 59.9875 125.739 59.6668 125.484 59.453ZM132.709 62.9805C132.539 63.515 132.199 63.8357 131.774 64.1563C131.349 64.477 130.924 64.5839 130.414 64.5839C129.649 64.5839 129.054 64.2632 128.544 63.7288C128.119 63.0874 127.864 62.3391 127.864 61.3771V61.2702C127.864 60.6288 127.949 60.0944 128.204 59.5599C128.459 59.0254 128.714 58.7047 129.139 58.3841C129.564 58.1703 129.989 57.9565 130.499 57.9565C131.264 57.9565 131.859 58.2772 132.284 58.8116C132.709 59.3461 132.964 60.0944 133.049 60.9495V61.2702C133.049 61.9116 132.964 62.5529 132.709 62.9805ZM131.434 59.6668C131.179 59.2392 130.839 59.1323 130.499 59.1323C130.074 59.1323 129.734 59.3461 129.564 59.6668C129.309 59.9875 129.224 60.6288 129.224 61.2702C129.224 61.9116 129.309 62.446 129.564 62.7667C129.819 63.0874 130.159 63.3012 130.499 63.3012C130.839 63.3012 131.264 63.0874 131.434 62.7667C131.689 62.3391 131.774 61.8047 131.774 61.1633C131.774 60.5219 131.689 60.0944 131.434 59.6668ZM137.385 64.3701V63.7288C137.045 64.2632 136.535 64.477 135.854 64.477C135.259 64.477 134.834 64.2632 134.494 63.8357C134.154 63.4081 134.069 62.8736 134.069 62.1254V58.0634H135.344V62.1254C135.344 62.9805 135.599 63.3012 136.194 63.3012C136.79 63.3012 137.215 63.0874 137.385 62.5529V57.9565H138.66V64.2632H137.385V64.3701ZM142.995 64.3701V60.3082C142.995 59.8806 142.91 59.5599 142.74 59.453C142.57 59.2392 142.315 59.1323 141.975 59.1323C141.465 59.1323 141.125 59.3461 140.87 59.8806V64.3701H139.595V58.0634H140.785V58.8116C141.21 58.2772 141.72 57.9565 142.4 57.9565C143.59 57.9565 144.1 58.7047 144.185 60.2013V64.3701H142.995V64.3701ZM147.33 63.1943C147.415 63.3012 147.586 63.4081 147.756 63.4081C147.926 63.4081 148.011 63.4081 148.181 63.3012V64.3701C147.926 64.477 147.671 64.477 147.33 64.477C146.395 64.477 145.885 63.8357 145.885 62.6598V59.0254H144.95V57.9565H145.885V56.46H147.16V57.9565H148.096V59.0254H147.16V62.5529C147.245 62.8736 147.245 63.0874 147.33 63.1943V63.1943ZM150.221 64.2632C150.136 64.3701 149.881 64.477 149.711 64.477C149.456 64.477 149.286 64.3701 149.201 64.2632C149.031 64.1563 149.031 63.9426 149.031 63.7288C149.031 63.515 149.116 63.3012 149.201 63.1943C149.286 63.0874 149.541 62.9805 149.711 62.9805C149.966 62.9805 150.136 63.0874 150.221 63.1943C150.306 63.3012 150.391 63.515 150.391 63.7288C150.476 63.9426 150.391 64.1563 150.221 64.2632ZM154.301 59.3461H153.791C153.196 59.3461 152.856 59.5599 152.686 60.0944V64.477H151.411V58.1703H152.601V58.9185C152.941 58.3841 153.281 58.0634 153.876 58.0634C154.046 58.0634 154.216 58.0634 154.301 58.1703V59.3461V59.3461ZM158.722 64.3701V63.7288C158.381 64.2632 157.871 64.477 157.191 64.477C156.596 64.477 156.171 64.2632 155.831 63.8357C155.491 63.4081 155.406 62.8736 155.406 62.1254V58.0634H156.681V62.1254C156.681 62.9805 156.936 63.3012 157.531 63.3012C158.126 63.3012 158.551 63.0874 158.722 62.5529V57.9565H159.997V64.2632H158.722V64.3701Z" fill="black"/>
</g>
<defs>
<clipPath id="clip0">
<rect width="131" height="62" fill="white" transform="translate(29 9)"/>
</clipPath>
</defs>
</svg>
